<svg xmlns="http://www.w3.org/2000/svg" width="42" height="37.95" viewBox="0 0 42 37.95">
  <path id="support04_b" d="M23.6,40.65a2.038,2.038,0,0,0,.7-.15,1.8,1.8,0,0,0,.65-.4L41.3,23.75a5.089,5.089,0,0,0,1.075-1.55,4.293,4.293,0,0,0,.375-1.75,4.648,4.648,0,0,0-.375-1.8,4.92,4.92,0,0,0-1.075-1.6l-8.4-8.4A4.732,4.732,0,0,0,31.35,7.6a4.55,4.55,0,0,0-3.5,0A4.732,4.732,0,0,0,26.3,8.65l-1.4,1.4,3.95,4a5.521,5.521,0,0,1,1.025,1.45,4.078,4.078,0,0,1,.425,1.85,4.274,4.274,0,0,1-4.15,4.15,4.655,4.655,0,0,1-1.85-.325,4.981,4.981,0,0,1-1.4-.925L19.2,16.5l-8.95,8.95a1.833,1.833,0,0,0-.4.625,1.948,1.948,0,0,0-.15.725,1.575,1.575,0,0,0,.475,1.2,1.643,1.643,0,0,0,1.175.45,1.813,1.813,0,0,0,.775-.175A2.018,2.018,0,0,0,12.7,27.9l6.65-6.65,1.6,1.6-6.6,6.6a1.754,1.754,0,0,0-.425.65,2.214,2.214,0,0,0-.125.75,1.711,1.711,0,0,0,1.65,1.65,1.914,1.914,0,0,0,1.35-.55l6.85-6.9,1.6,1.6L18.4,33.5a2.909,2.909,0,0,0-.375.65,1.878,1.878,0,0,0-.175.75,1.707,1.707,0,0,0,1.7,1.7,1.765,1.765,0,0,0,.7-.15,1.892,1.892,0,0,0,.6-.4l6.9-6.9,1.6,1.6-6.9,6.9a1.8,1.8,0,0,0-.4.65,2.038,2.038,0,0,0-.15.7,1.558,1.558,0,0,0,.475,1.225,1.768,1.768,0,0,0,1.225.425Zm0,2.3a3.713,3.713,0,0,1-2.75-1.175,4.2,4.2,0,0,1-1.2-2.925,4.414,4.414,0,0,1-2.85-1.175A4.076,4.076,0,0,1,15.55,34.8a4.418,4.418,0,0,1-2.85-1.25,4.215,4.215,0,0,1-1.2-2.85,4.516,4.516,0,0,1-2.875-1.175A3.59,3.59,0,0,1,7.45,26.75a4.4,4.4,0,0,1,.3-1.55,3.887,3.887,0,0,1,.9-1.4L19.2,13.25l5.1,5.1a2.45,2.45,0,0,0,.85.625,2.419,2.419,0,0,0,1,.225,1.851,1.851,0,0,0,1.3-.575,1.741,1.741,0,0,0,.4-2.125,3.134,3.134,0,0,0-.6-.8l-7-7.05A4.732,4.732,0,0,0,18.7,7.6a4.681,4.681,0,0,0-1.8-.35,4.373,4.373,0,0,0-1.725.35A4.814,4.814,0,0,0,13.65,8.65l-6.95,7a4.1,4.1,0,0,0-1.075,1.575A6.371,6.371,0,0,0,5.25,19.15,4.555,4.555,0,0,0,5.6,20.9a6.5,6.5,0,0,0,.9,1.55L4.8,24.1a8.99,8.99,0,0,1-1.275-2.275A7.335,7.335,0,0,1,3,19.1a7.465,7.465,0,0,1,.525-2.775A6.469,6.469,0,0,1,5.1,14L12,7.05A6.84,6.84,0,0,1,14.3,5.5a7.273,7.273,0,0,1,5.3,0,6.84,6.84,0,0,1,2.3,1.55l1.4,1.4,1.4-1.4A6.293,6.293,0,0,1,26.975,5.5a7.206,7.206,0,0,1,5.275,0,6.84,6.84,0,0,1,2.3,1.55L42.9,15.4A7.334,7.334,0,0,1,45,20.45a6.508,6.508,0,0,1-.55,2.65,7.99,7.99,0,0,1-1.55,2.3L26.55,41.7a3.652,3.652,0,0,1-1.375.95,4.33,4.33,0,0,1-1.575.3ZM17.95,16.85Z" transform="translate(-3 -5)" fill="#666"/>
</svg>
