<svg xmlns="http://www.w3.org/2000/svg" width="38" height="34.95" viewBox="0 0 38 34.95">
  <path id="support01_b" d="M7.25,33.7v4.4a.6.6,0,0,0,.65.65H40.1a.6.6,0,0,0,.65-.65V33.7ZM7.9,41A2.9,2.9,0,0,1,5,38.1V15.9a2.737,2.737,0,0,1,.85-2,2.794,2.794,0,0,1,2.05-.85h6.85a4.983,4.983,0,0,1-.425-1.075A4.367,4.367,0,0,1,14.15,10.8a4.547,4.547,0,0,1,1.4-3.375A4.613,4.613,0,0,1,18.9,6.05a4.543,4.543,0,0,1,2.35.65A5.2,5.2,0,0,1,23,8.35l1,1.5.95-1.5A5.412,5.412,0,0,1,26.7,6.675,4.414,4.414,0,0,1,29,6.05,4.632,4.632,0,0,1,32.375,7.4a4.566,4.566,0,0,1,1.375,3.4,3.991,3.991,0,0,1-.15,1.05,12.626,12.626,0,0,1-.4,1.2h6.9a2.794,2.794,0,0,1,2.05.85,2.737,2.737,0,0,1,.85,2V38.1A2.9,2.9,0,0,1,40.1,41ZM7.25,29h33.5V15.9a.579.579,0,0,0-.175-.425A.642.642,0,0,0,40.1,15.3H27.55l4.05,5.6a1.051,1.051,0,0,1,.15.825,1.343,1.343,0,0,1-.45.725,1.13,1.13,0,0,1-.825.275.844.844,0,0,1-.725-.475l-5.8-8-5.8,8.05a1.077,1.077,0,0,1-.775.45.9.9,0,0,1-.775-.25,1.119,1.119,0,0,1-.4-.75,1.294,1.294,0,0,1,.2-.85l4-5.6H7.9a.642.642,0,0,0-.475.175.579.579,0,0,0-.175.425ZM18.9,13.25a2.414,2.414,0,0,0,1.775-.725A2.356,2.356,0,0,0,21.4,10.8a2.476,2.476,0,0,0-2.5-2.5,2.356,2.356,0,0,0-1.725.725A2.414,2.414,0,0,0,16.45,10.8a2.476,2.476,0,0,0,2.45,2.45Zm10.1,0a2.414,2.414,0,0,0,1.775-.725A2.356,2.356,0,0,0,31.5,10.8,2.476,2.476,0,0,0,29,8.3a2.356,2.356,0,0,0-1.725.725A2.414,2.414,0,0,0,26.55,10.8,2.476,2.476,0,0,0,29,13.25Z" transform="translate(-5 -6.05)" fill="#666"/>
</svg>
