<svg xmlns="http://www.w3.org/2000/svg" width="33.4" height="31.716" viewBox="0 0 33.4 31.716">
  <path id="support02_b" d="M29.7,39.7a1.019,1.019,0,0,1-1.1-.15,1.28,1.28,0,0,1-.5-1.05.831.831,0,0,1,.175-.525,1.006,1.006,0,0,1,.425-.325,14.533,14.533,0,0,0,7.05-5.325A14.1,14.1,0,0,0,38.4,23.95a14.434,14.434,0,0,0-9.7-13.7.8.8,0,0,1-.45-.35,1.049,1.049,0,0,1-.15-.55,1.212,1.212,0,0,1,.5-1.025,1.136,1.136,0,0,1,1.1-.175,17.206,17.206,0,0,1,7.95,6.175A16.173,16.173,0,0,1,40.7,23.95a16.173,16.173,0,0,1-3.05,9.625A16.892,16.892,0,0,1,29.7,39.7ZM8.75,29A1.373,1.373,0,0,1,7.3,27.55v-7.1A1.373,1.373,0,0,1,8.75,19h6l6.1-6.1a1.324,1.324,0,0,1,1.575-.325A1.3,1.3,0,0,1,23.3,13.85V34.1a1.425,1.425,0,0,1-2.45,1L14.75,29Zm18.6,2.6V16.35a7.516,7.516,0,0,1,3.6,3A8.422,8.422,0,0,1,32.3,24a8.265,8.265,0,0,1-1.35,4.65,7.6,7.6,0,0,1-3.6,2.95Zm-6.3-15.45-5.3,5.1H9.6v5.5h6.15l5.3,5.1ZM16.25,24Z" transform="translate(-7.3 -8.081)" fill="#666"/>
</svg>
