<svg xmlns="http://www.w3.org/2000/svg" width="40" height="36.65" viewBox="0 0 40 36.65">
  <path id="heart_xd" d="M24,41.95,21.95,40.1q-5.3-4.85-8.75-8.375a61.87,61.87,0,0,1-5.5-6.3A20.807,20.807,0,0,1,4.825,20.4,13.129,13.129,0,0,1,4,15.85,10.334,10.334,0,0,1,14.5,5.3a10.666,10.666,0,0,1,5.275,1.35A12.812,12.812,0,0,1,24,10.55a14.577,14.577,0,0,1,4.45-3.975A10.426,10.426,0,0,1,33.5,5.3,10.334,10.334,0,0,1,44,15.85a13.129,13.129,0,0,1-.825,4.55A20.807,20.807,0,0,1,40.3,25.425a61.87,61.87,0,0,1-5.5,6.3Q31.35,35.25,26.05,40.1ZM24,38q5.05-4.65,8.325-7.975a66.04,66.04,0,0,0,5.2-5.825,19.3,19.3,0,0,0,2.7-4.45A10.491,10.491,0,0,0,41,15.85a7.394,7.394,0,0,0-2.1-5.425A7.264,7.264,0,0,0,33.5,8.3a8,8,0,0,0-4.75,1.575A11.18,11.18,0,0,0,25.2,14.3H22.75a11.059,11.059,0,0,0-3.5-4.4A7.917,7.917,0,0,0,14.5,8.3a7.264,7.264,0,0,0-5.4,2.125A7.394,7.394,0,0,0,7,15.85a10.683,10.683,0,0,0,.775,3.925,19.472,19.472,0,0,0,2.7,4.5A60.01,60.01,0,0,0,15.7,30.1Q19,33.4,24,38ZM24,23.15Z" transform="translate(-4 -5.3)"/>
</svg>
