<?xml version="1.0" encoding="utf-8"?>
<!-- Generator: Adobe Illustrator 24.0.1, SVG Export Plug-In . SVG Version: 6.00 Build 0)  -->
<svg version="1.1" xmlns="http://www.w3.org/2000/svg" xmlns:xlink="http://www.w3.org/1999/xlink" x="0px" y="0px"
	 viewBox="0 0 159 130" style="enable-background:new 0 0 159 130;" xml:space="preserve">
<g id="heart">
	<path d="M78.68,124.83l-6.66-6.01c-11.48-10.5-20.95-19.57-28.43-27.21S30.16,77.15,25.72,71.14c-4.44-6.01-7.55-11.45-9.34-16.33
		c-1.79-4.87-2.68-9.8-2.68-14.78c0-9.75,3.28-17.9,9.83-24.45s14.65-9.83,24.28-9.83c6.17,0,11.89,1.46,17.14,4.39
		s9.83,7.15,13.73,12.67c4.55-5.85,9.37-10.15,14.46-12.91c5.09-2.76,10.56-4.14,16.41-4.14c9.64,0,17.73,3.28,24.28,9.83
		c6.55,6.55,9.83,14.7,9.83,24.45c0,4.98-0.89,9.91-2.68,14.78c-1.79,4.87-4.9,10.31-9.34,16.33c-4.44,6.01-10.4,12.83-17.87,20.47
		c-7.47,7.63-16.95,16.7-28.43,27.21L78.68,124.83z M78.68,112c10.94-10.07,19.95-18.71,27.05-25.91
		c7.09-7.2,12.72-13.51,16.89-18.92c4.17-5.41,7.09-10.23,8.77-14.46s2.52-8.45,2.52-12.67c0-7.15-2.27-13.02-6.82-17.62
		c-4.55-4.6-10.4-6.9-17.54-6.9c-5.52,0-10.67,1.71-15.43,5.12c-4.76,3.41-8.61,8.2-11.53,14.38h-7.96
		c-2.82-6.06-6.61-10.83-11.37-14.29c-4.76-3.47-9.91-5.2-15.43-5.2c-7.15,0-13,2.3-17.54,6.9s-6.82,10.48-6.82,17.62
		c0,4.22,0.84,8.47,2.52,12.75c1.68,4.28,4.6,9.15,8.77,14.62s9.83,11.78,16.97,18.92S67.85,102.03,78.68,112z"/>
</g>
<g id="Layer_2">
</g>
</svg>
