<svg width="188" height="29" viewBox="0 0 188 29" fill="none" xmlns="http://www.w3.org/2000/svg">
<path d="M19.9051 7.90116C19.9501 7.2901 19.7448 6.73191 19.4496 6.20311C19.2379 5.81532 18.9364 5.48041 18.5707 5.20426C18.314 5.01036 18.0189 4.8576 17.7174 4.72246C17.3003 4.54032 16.8577 4.48156 16.4021 4.44631C15.9145 4.40518 15.4334 4.46393 14.9778 4.60495C14.6186 4.71071 14.2785 4.86347 13.977 5.08675C13.8038 5.21601 13.6305 5.35115 13.4701 5.49216C13.3803 5.57442 13.2905 5.66255 13.2135 5.75656C13.0018 6.02684 12.8093 6.31475 12.6489 6.6144C12.45 6.98456 12.373 7.37823 12.2511 7.76602C12.2255 7.84828 12.187 7.92466 12.1485 7.99517C12.0073 8.25369 11.7443 8.18319 11.5839 8.04217C11.5454 8.00692 11.5069 7.96579 11.4748 7.93054C11.3401 7.76602 11.1605 7.75427 10.9616 7.80715C10.8076 7.84828 10.66 7.89528 10.5125 7.94816C10.1981 8.06567 10.0441 7.97754 9.88372 7.77189C9.81956 7.68376 9.7554 7.59563 9.67841 7.51337C9.53727 7.36648 9.31272 7.2901 9.08175 7.40173C8.94702 7.46636 8.78021 7.48987 8.62623 7.51337C8.38885 7.54862 8.13863 7.56625 7.90125 7.6015C7.7216 7.62501 7.54838 7.6015 7.38799 7.52512C7.09928 7.38998 7.09286 7.0727 7.35591 6.90231C7.69594 6.68491 8.06806 6.53214 8.42734 6.35588C8.84437 6.15611 9.23573 5.93283 9.5116 5.57442C9.59501 5.46866 9.65275 5.35115 9.71691 5.23951C9.80673 5.08675 9.88372 4.92811 9.97996 4.78122C10.1339 4.55794 10.2943 4.34055 10.4611 4.12902C10.66 3.87637 10.9038 3.6531 11.1669 3.44746C11.4556 3.21831 11.7828 3.02441 12.0972 2.82464C12.527 2.55436 13.0082 2.37222 13.483 2.17833C13.746 2.07257 14.0155 1.98443 14.2849 1.89042C14.5993 1.77879 14.811 1.57314 14.9522 1.29699C15.0163 1.1736 15.1126 1.05609 15.1831 0.938575C15.3115 0.721177 15.4783 0.527283 15.6387 0.333388C15.7413 0.21 15.8632 0.10424 16.0108 0.0454836C16.2417 -0.0426503 16.415 -0.0132724 16.4727 0.227627C16.5369 0.497905 16.6139 0.762306 16.6459 1.03258C16.6844 1.32049 16.8705 1.48501 17.1143 1.61427C17.2041 1.66127 17.3068 1.69065 17.403 1.71415C17.6789 1.78466 17.9548 1.84929 18.2242 1.94918C18.5899 2.09019 18.9556 2.21946 19.3085 2.39572C19.7961 2.63662 20.2516 2.91278 20.6879 3.22418C21.0664 3.49446 21.4064 3.79999 21.7208 4.12902C22.1314 4.56382 22.4779 5.04562 22.7345 5.5803C22.9911 6.1091 23.1579 6.65553 23.2285 7.22546C23.267 7.56625 23.2863 7.90703 23.267 8.24782C23.2413 8.68261 23.1579 9.11153 23.036 9.53457C22.9206 9.92236 22.7473 10.2867 22.5677 10.6451C22.4137 10.9447 22.202 11.2267 21.9967 11.5029C21.785 11.7791 21.5604 12.0435 21.323 12.2961C21.137 12.4959 20.9253 12.6721 20.72 12.8543C20.5211 13.0306 20.3222 13.2068 20.1105 13.3596C19.8217 13.5711 19.5074 13.7591 19.2187 13.9707C19.0711 14.0764 18.93 14.1939 18.8081 14.3291C18.6348 14.5171 18.6348 14.7404 18.7439 14.9578C18.93 15.3455 19.1609 15.7098 19.424 16.0506C19.6164 16.2974 19.841 16.5324 20.0784 16.7498C20.3799 17.0318 20.7199 17.2669 21.0921 17.4666C21.5668 17.7252 22.0801 17.8603 22.619 17.9602C23.1836 18.0601 23.7225 17.9837 24.2615 17.8485C24.6913 17.7428 25.0698 17.5489 25.4099 17.3021C25.8975 16.9555 26.2953 16.5324 26.5775 16.0271C26.7251 15.7627 26.847 15.4924 26.9368 15.2045C27.0459 14.8579 27.0844 14.5053 27.0844 14.141C27.0844 13.7885 27.0202 13.4536 26.9304 13.1128C26.8213 12.7133 26.6096 12.3607 26.3594 12.0317C26.1798 11.7967 25.9552 11.5852 25.7178 11.3913C25.4997 11.2091 25.2431 11.0799 24.9929 10.9388C24.8389 10.8507 24.6592 10.7978 24.486 10.7449C24.3384 10.6979 24.1845 10.6568 24.0241 10.6274C23.8637 10.5981 23.7739 10.5099 23.7418 10.3748C23.7097 10.2455 23.7674 10.1456 23.8765 10.0634C24.0626 9.93412 24.069 9.76372 24.0048 9.58158C23.992 9.5522 23.9727 9.52282 23.9663 9.48757C23.9407 9.40531 23.915 9.32305 23.9022 9.24079C23.8765 9.0469 23.9022 8.87063 24.0754 8.71787C24.1652 8.63561 24.223 8.51222 24.2807 8.40058C24.3513 8.25957 24.3641 8.1068 24.3128 7.95991C24.3064 7.93054 24.2935 7.90703 24.2871 7.87766C24.2294 7.68964 24.1524 7.51337 24.1139 7.3136C24.069 7.0492 23.9984 6.79067 24.0112 6.52039C24.0112 6.47339 23.992 6.42051 23.992 6.3735C23.9856 6.29712 23.9856 6.22661 24.069 6.17961C24.146 6.13848 24.2358 6.14435 24.3192 6.22074C24.4347 6.32062 24.5566 6.42051 24.6464 6.53802C24.8645 6.81417 25.0634 7.10208 25.2751 7.38998C25.3329 7.46636 25.4035 7.54275 25.4676 7.61325C25.4869 7.63676 25.5125 7.64851 25.5318 7.67201C25.7499 7.98929 26.0964 8.15968 26.4172 8.35945C26.77 8.58273 27.1165 8.81188 27.4629 9.04102C27.8607 9.30543 28.2328 9.60508 28.5728 9.93412C29.0027 10.3513 29.3748 10.8037 29.6571 11.3208C29.8817 11.732 30.087 12.1492 30.2538 12.584C30.3051 12.725 30.3821 12.8602 30.4463 13.0012C30.5682 13.2538 30.7799 13.4066 31.0429 13.5241C31.2803 13.624 31.5113 13.7356 31.7487 13.8473C31.8128 13.8766 31.8706 13.9236 31.9219 13.9707C31.9411 13.9883 31.9668 14.0118 31.9732 14.0353C32.0566 14.2703 31.9411 14.4642 31.6845 14.5347C31.4535 14.5935 31.229 14.664 30.9916 14.7051C30.7414 14.7521 30.5874 14.899 30.4976 15.0929C30.3628 15.3925 30.2602 15.704 30.1447 16.0095C30.0677 16.2093 29.9715 16.4031 29.8945 16.6029C29.7662 16.9437 29.5673 17.2492 29.3748 17.5606C29.1631 17.9014 28.9065 18.2187 28.6306 18.5184C28.0211 19.1764 27.2897 19.6935 26.4556 20.0871C26.3081 20.1577 26.1541 20.2105 26.0001 20.2634C25.7756 20.3398 25.5574 20.4221 25.3265 20.4808C24.8774 20.5925 24.4154 20.6512 23.9535 20.6865C23.7482 20.6982 23.5365 20.71 23.3312 20.71C22.8628 20.71 22.4073 20.6571 21.9454 20.5807C21.3423 20.4867 20.7777 20.2928 20.2324 20.046C19.9244 19.905 19.61 19.7522 19.3213 19.5818C19.0775 19.435 18.8594 19.2528 18.6348 19.0824C18.4167 18.912 18.1921 18.7475 17.9997 18.5595C17.7495 18.3186 17.5249 18.0601 17.3003 17.8015C17.1656 17.6488 17.0565 17.4784 16.9218 17.3315C16.7486 17.1376 16.5625 16.9613 16.2802 16.9085C16.1006 16.8791 15.9402 16.9084 15.7926 16.9907C15.6964 17.0436 15.6066 17.0965 15.5168 17.1552C15.0484 17.4608 14.5801 17.7663 14.1695 18.1365C13.7332 18.5242 13.3611 18.9649 13.1173 19.482C12.8735 19.999 12.7323 20.5396 12.7259 21.1095C12.7195 21.4503 12.7323 21.7793 12.835 22.1084C12.9312 22.4139 13.0852 22.7018 13.252 22.9838C13.3931 23.2247 13.592 23.4245 13.7909 23.6184C14.1502 23.9709 14.5865 24.2353 15.0805 24.3998C15.7413 24.6231 16.4342 24.7112 17.14 24.582C17.5377 24.5115 17.9098 24.3763 18.2563 24.1766C18.6412 23.9533 18.9749 23.683 19.2764 23.3716C19.5074 23.1307 19.7063 22.8663 19.8795 22.5902C20.0976 22.2435 20.2837 21.8733 20.3927 21.4797C20.4184 21.3798 20.4505 21.2858 20.489 21.1918C20.5724 20.9744 20.8354 20.9274 20.9958 21.1036C21.1049 21.2211 21.2075 21.3504 21.3038 21.4797C21.4578 21.6794 21.631 21.7264 21.8748 21.6089C22.0031 21.5502 22.1314 21.4914 22.2854 21.4914C22.4522 21.4855 22.5805 21.5384 22.696 21.6383C22.7987 21.7264 22.8949 21.8204 22.9911 21.9145C23.0874 22.0143 23.1964 22.0437 23.3376 22.0261C23.652 21.9908 23.9278 21.844 24.223 21.7558C24.4218 21.6971 24.6143 21.6266 24.8325 21.6383C24.8645 21.6383 24.8966 21.6383 24.9223 21.6442C25.0955 21.6794 25.1468 21.7969 25.0313 21.9145C24.9094 22.0378 24.7683 22.1436 24.6272 22.2552C24.4026 22.4315 24.1716 22.6078 23.9471 22.784C23.8829 22.8369 23.8124 22.8781 23.7546 22.9368C23.6584 23.0249 23.5621 23.1248 23.4659 23.2188C23.2542 23.4245 23.081 23.6595 22.9206 23.9122C22.773 24.1413 22.5934 24.3587 22.4201 24.5761C22.2405 24.7994 22.0608 25.0168 21.8748 25.2283C21.5412 25.5926 21.1498 25.9099 20.7328 26.1978C20.3799 26.4387 19.9886 26.6267 19.6036 26.8088C19.5266 26.8441 19.4432 26.8676 19.3662 26.8911C18.9813 27.0086 18.5899 27.1202 18.205 27.2495C17.8906 27.3553 17.634 27.5198 17.5121 27.8253C17.3902 28.125 17.2041 28.3952 17.0052 28.6596C16.9218 28.7772 16.7871 28.8712 16.6524 28.9534C16.5048 29.0474 16.3251 28.9946 16.2674 28.8359C16.2161 28.7008 16.184 28.5539 16.1648 28.4129C16.1455 28.2131 16.107 28.0251 16.0044 27.8488C15.9081 27.6784 15.7541 27.5609 15.5873 27.4551C15.35 27.3083 15.0741 27.2495 14.7982 27.2025C14.5352 27.1614 14.2785 27.0967 14.0283 26.991C13.823 26.9028 13.6049 26.8382 13.3996 26.7501C13.1814 26.6502 12.9633 26.5444 12.758 26.4269C12.2896 26.1684 11.879 25.8452 11.4748 25.5044C11.308 25.3634 11.1669 25.1872 11.0193 25.0285C10.8782 24.8758 10.737 24.723 10.6151 24.5585C10.4034 24.2706 10.2173 23.9709 10.0441 23.6595C9.87089 23.3422 9.74899 23.0132 9.63992 22.6724C9.58218 22.4785 9.50519 22.2846 9.46669 22.0907C9.42178 21.8733 9.39612 21.6501 9.38329 21.4268C9.36404 21.1506 9.34479 20.8745 9.35763 20.6042C9.38329 20.1929 9.38971 19.7757 9.54368 19.3762C9.66558 19.0648 9.74257 18.7416 9.92221 18.4479C10.1147 18.1188 10.32 17.7957 10.5766 17.496C10.9936 17.0025 11.4812 16.5735 11.9945 16.1622C12.1934 16.0036 12.4051 15.8567 12.5976 15.6981C12.8991 15.4513 13.2007 15.2045 13.483 14.946C13.6241 14.8167 13.7139 14.6581 13.6947 14.4642C13.6883 14.4113 13.6883 14.3643 13.6947 14.3114C13.7332 14.047 13.5985 13.8414 13.4252 13.6534C13.2199 13.4242 12.9954 13.2068 12.8029 12.9718C12.4949 12.5899 12.1228 12.2667 11.7379 11.9671C11.462 11.7556 11.1605 11.5793 10.8333 11.4265C10.2494 11.1562 9.62709 11.0916 8.99193 11.1269C8.55566 11.1504 8.13863 11.2444 7.74085 11.4206C7.27892 11.6204 6.88114 11.8848 6.5411 12.2256C6.22032 12.5488 5.9701 12.9189 5.79688 13.3361C5.68139 13.6299 5.56591 13.9178 5.53383 14.2233C5.49533 14.5112 5.47609 14.7991 5.49533 15.0929C5.521 15.3925 5.53383 15.6981 5.61082 15.9919C5.7648 16.5853 6.01501 17.1258 6.50902 17.5606C6.67583 17.7075 6.86189 17.8192 7.05437 17.9308C7.42648 18.1482 7.84992 18.2363 8.26695 18.3421C8.29903 18.348 8.32469 18.3538 8.35677 18.3656C8.64548 18.4361 8.71605 18.6359 8.52999 18.8474C8.31827 19.0883 8.31186 19.1941 8.47225 19.4702C8.62623 19.7287 8.65189 19.9873 8.4915 20.2575C8.43376 20.3515 8.38243 20.4456 8.33752 20.5454C8.22845 20.7805 8.27978 21.0037 8.37601 21.227C8.42734 21.3445 8.453 21.4738 8.48508 21.5972C8.50433 21.6618 8.50433 21.7323 8.53641 21.7911C8.67114 22.0731 8.67114 22.3669 8.67755 22.6665C8.67755 22.7135 8.65189 22.7958 8.61981 22.8076C8.55566 22.8252 8.46583 22.8252 8.41451 22.7899C8.30544 22.7135 8.19637 22.6195 8.1258 22.5138C7.882 22.1554 7.60612 21.8205 7.29175 21.5208C7.07361 21.3093 6.8234 21.1271 6.5796 20.945C6.30372 20.7393 6.01501 20.5513 5.73913 20.3515C5.43759 20.1342 5.13605 19.9109 4.85376 19.6759C4.59713 19.4643 4.35974 19.2293 4.12236 18.9943C3.731 18.6124 3.42304 18.1776 3.15999 17.7134C3.07017 17.5606 2.98677 17.402 2.90336 17.2492C2.81996 17.0965 2.7558 16.932 2.65957 16.7792C2.52483 16.5559 2.44143 16.315 2.34519 16.08C2.28103 15.9213 2.20405 15.7686 2.10781 15.6217C2.06931 15.5571 1.99233 15.5042 1.91534 15.4748C1.59455 15.3279 1.25451 15.2045 0.940139 15.0518C0.632182 14.9049 0.324226 14.7521 0.131753 14.4642C0.0483479 14.3349 -0.0158103 14.2057 0.00343701 14.0529C0.00985278 13.9648 0.00343701 13.8708 0.00343701 13.7826C0.00985278 13.6886 0.0483477 13.6475 0.151 13.6475C0.227989 13.6475 0.31781 13.6416 0.388383 13.671C0.81824 13.8414 1.27376 13.8355 1.72286 13.8238C1.89609 13.8179 2.03724 13.7356 2.15272 13.624C2.3067 13.4712 2.3901 13.2891 2.45426 13.0952C2.51842 12.8954 2.58258 12.6956 2.67881 12.5076C2.85845 12.1375 3.05734 11.7791 3.32039 11.4559C3.4872 11.2502 3.64118 11.0329 3.82724 10.8448C4.01329 10.6451 4.23784 10.4805 4.43032 10.2867C4.60996 10.1045 4.81526 9.96349 5.0334 9.82248C5.23229 9.69322 5.43118 9.56395 5.63648 9.44057C5.99576 9.22904 6.39354 9.08215 6.79132 8.92939C7.13777 8.80012 7.50347 8.73549 7.86917 8.67086C8.11938 8.62386 8.37601 8.58273 8.62623 8.5651C9.12024 8.52397 9.61426 8.5181 10.1083 8.59448C10.5959 8.67086 11.0835 8.73549 11.5518 8.89413C12.0715 9.0704 12.5783 9.2643 13.0339 9.54633C13.3418 9.74022 13.6562 9.92236 13.9449 10.1339C14.1887 10.3102 14.4068 10.5158 14.625 10.7156C14.9265 10.9917 15.2024 11.2914 15.4526 11.6145C15.5745 11.7732 15.7028 11.9318 15.8311 12.0846C16.1263 12.443 16.7101 12.4782 17.0501 12.1433C17.2875 11.9083 17.5634 11.7144 17.8136 11.4911C17.9933 11.3325 18.1665 11.168 18.3333 10.9976C18.5258 10.8096 18.7118 10.6157 18.885 10.4159C19.039 10.2396 19.1673 10.0516 19.3021 9.86948C19.3726 9.7696 19.4496 9.67559 19.5074 9.56983C19.764 9.02927 19.9372 8.48284 19.9051 7.90116Z" fill="white"/>
<path d="M76.5794 8.70148C76.4026 8.63201 76.2257 8.50569 76.0426 8.49938C74.8552 8.44885 73.6679 8.41096 72.5374 8.91621C71.748 9.26988 70.908 9.38987 70.0554 9.35829C68.5271 9.30145 67.5608 7.56468 68.325 6.23841C68.8365 5.34792 69.6133 4.88057 70.6554 4.86793C72.0827 4.8553 73.5163 4.93741 74.931 4.77952C77.4067 4.50163 79.8761 4.74162 82.3455 4.65952C83.1223 4.63426 83.8991 4.489 84.6696 4.49532C85.6801 4.50163 86.6969 4.56479 87.7074 4.67215C89.0842 4.81741 90.4357 5.0953 91.743 5.61949C92.5767 5.95421 93.0251 6.79418 92.1409 7.69099C91.3073 8.52464 90.3283 8.87831 89.1852 8.72042C88.32 8.60043 87.4611 8.37307 86.5959 8.22781C85.699 8.08255 84.7896 7.97519 83.8865 7.86782C83.7223 7.84888 83.5076 7.83625 83.3939 7.92466C83.2234 8.05097 83.0465 8.25307 83.0149 8.44254C82.996 8.55622 83.236 8.78358 83.4002 8.82779C83.6528 8.90357 83.937 8.85937 84.2086 8.88463C84.7138 8.93515 85.2254 8.94778 85.7117 9.06778C86.6716 9.30145 87.0758 9.8067 87.1706 10.773C87.2085 11.1456 87.2274 11.5182 87.24 11.8908C87.2906 14.4676 87.3411 17.0443 87.379 19.6211C87.4042 21.1115 86.8422 22.482 86.3495 23.8399C85.9453 24.9514 84.5559 25.4251 83.6528 24.7493C82.396 23.802 81.0382 24.0104 79.6614 24.1114C79.2888 24.1367 78.9225 24.2567 78.5562 24.2441C77.8235 24.2188 77.1478 24.383 76.4847 24.6672C76.0805 24.8377 75.6573 24.9767 75.2342 25.0967C74.1795 25.3998 73.63 25.1661 73.2006 24.1556C72.6764 22.9241 72.4869 21.6105 72.5185 20.2779C72.5564 18.6864 72.6701 17.1012 72.6953 15.5096C72.708 14.7013 72.6258 13.8865 72.5437 13.0845C72.4048 11.6824 73.3521 10.1477 74.6973 9.68039C75.0826 9.54776 75.4742 9.45303 75.8594 9.3204C76.1247 9.22567 76.3773 9.09304 76.6362 8.97936C76.6047 8.88463 76.592 8.78989 76.5794 8.70148ZM80.0087 16.438C80.6466 16.798 81.3413 17.0822 81.8908 17.5306C82.8065 18.2822 82.5413 18.9769 81.7139 19.5011C80.3308 20.3726 78.8088 20.24 77.293 19.8737C77.2615 19.8674 77.2299 19.8484 77.2046 19.8295C76.7689 19.4632 76.2068 19.1411 76.2005 18.5095C76.1941 17.8717 76.6552 17.4864 77.2046 17.2148C77.3878 17.1201 77.5583 16.9938 77.7351 16.8801C77.4888 16.7791 77.293 16.817 77.1036 16.8296C76.8636 16.8422 76.6299 16.8233 76.3899 16.8485C75.7457 16.9054 75.3921 17.2969 75.4489 17.9222C75.5121 18.5916 75.6068 19.2611 75.7331 19.9242C75.9099 20.8779 75.9668 20.941 76.9267 20.9094C78.0762 20.8779 79.2256 20.7642 80.375 20.72C80.9498 20.701 81.5245 20.7705 82.1055 20.7768C82.9202 20.7831 83.1286 20.7137 83.2802 19.9558C83.457 19.0716 83.457 18.1495 83.5202 17.2464C83.5581 16.6843 83.2297 16.4443 82.7055 16.438C81.7834 16.4317 80.8803 16.438 80.0087 16.438ZM83.5454 12.5603C83.4002 12.4529 83.1665 12.1435 82.9202 12.1371C82.5665 12.1245 82.3329 12.434 82.3518 12.8318C82.3708 13.2108 82.5476 13.4887 82.9391 13.5392C83.2423 13.5771 83.5707 13.1287 83.5454 12.5603ZM76.5036 12.8887C76.0805 12.8192 75.6826 12.7119 75.6384 13.2613C75.6257 13.4192 75.8215 13.7287 75.9541 13.7413C76.5289 13.8234 76.5983 13.4445 76.5036 12.8887ZM79.794 12.5603C79.7309 12.4971 79.5856 12.2192 79.4024 12.194C79.0298 12.1435 78.973 12.4908 79.0235 12.7561C79.0677 12.9834 79.2067 13.3497 79.3519 13.3687C79.7624 13.4381 79.8066 13.0908 79.794 12.5603ZM80.2929 8.43622C79.9645 8.21518 79.7245 7.96256 79.6361 8.00677C79.4088 8.12676 79.2446 8.37938 79.0551 8.57517C79.2256 8.69516 79.4151 8.92252 79.5666 8.90357C79.7751 8.87831 79.9582 8.66358 80.2929 8.43622Z" fill="white"/>
<path d="M170.157 18.6869C169.563 18.6048 169.109 18.5417 168.528 18.4596C168.471 19.3122 168.401 20.0763 168.382 20.8405C168.37 21.6552 168.427 22.4699 168.42 23.2846C168.414 23.6888 168.382 24.0993 168.281 24.4909C168.086 25.2235 167.738 25.4761 167.062 25.4761C166.513 25.4761 165.932 25.0783 165.774 24.5162C165.667 24.1309 165.629 23.7141 165.597 23.3099C165.515 22.2994 165.458 21.2826 165.37 20.2721C165.351 20.089 165.244 19.9121 165.155 19.6721C164.448 20.0827 164.107 20.7079 163.772 21.3142C163.248 22.2678 162.477 22.9562 161.593 23.5436C161.454 23.6383 161.303 23.7583 161.145 23.7709C160.892 23.7962 160.538 23.8341 160.393 23.6951C160.248 23.5562 160.191 23.1583 160.286 22.9625C160.633 22.2299 160.981 21.4784 161.473 20.8468C162.717 19.2616 163.728 17.5375 164.694 15.7881C164.789 15.6112 164.871 15.4218 164.928 15.226C164.959 15.106 164.934 14.9671 164.934 14.746C164.416 14.746 163.924 14.746 163.437 14.746C163.002 14.746 162.553 14.7839 162.13 14.7207C161.581 14.6323 161.031 14.4302 160.936 13.786C160.829 13.0598 160.898 12.3398 161.568 11.8598C162.364 11.2914 163.26 11.0135 164.233 11.0009C164.776 10.9946 165.326 11.0261 165.862 10.9946C166.601 10.9504 167.34 10.8683 168.079 10.7988C168.926 10.7167 169.765 10.622 170.586 10.9756C171.3 11.2851 171.534 11.7398 171.155 12.4156C170.858 12.9398 170.448 13.4071 170.043 13.8618C169.462 14.5123 169.481 14.8218 170.189 15.3144C170.466 15.5102 170.713 15.7439 170.997 15.927C171.603 16.3249 171.957 16.868 171.963 17.6259C173.05 17.9038 174.016 17.6006 174.976 17.2722C175.355 17.1396 175.588 16.3628 175.456 15.946C175.317 15.5039 174.988 15.327 174.414 15.3902C174.111 15.4218 173.807 15.4786 173.504 15.4849C172.696 15.4976 172.298 15.1944 172.096 14.4492C171.881 13.6471 172.045 13.0471 172.709 12.7313C173.403 12.4029 174.148 12.144 174.887 11.9482C175.582 11.7651 175.746 11.683 175.778 10.963C175.803 10.3883 175.822 9.79461 175.702 9.23885C175.519 8.36098 175.98 7.82416 176.542 7.3126C176.713 7.15471 176.934 7.04103 177.142 6.93367C178.115 6.42842 178.677 6.63052 179.037 7.65364C179.289 8.38625 179.454 9.15043 179.22 9.93356C179.144 10.1925 179.075 10.4641 179.062 10.7293C179.018 11.5061 179.308 11.7903 180.079 11.7461C180.382 11.7272 180.685 11.6703 180.982 11.6135C182.087 11.3988 183.394 12.6366 183.117 14.0702C183.003 14.6576 182.58 14.9544 182.081 15.0744C181.329 15.2513 180.552 15.3207 179.782 15.4218C179.517 15.4597 179.245 15.4723 178.923 15.4976C178.828 15.7944 178.702 16.0723 178.664 16.3628C178.595 17.0007 178.866 17.2975 179.523 17.3228C181.386 17.3985 183.249 17.4491 185.112 17.5375C186.293 17.588 187.146 18.2322 187.765 19.1795C188.15 19.7669 188.049 20.2469 187.556 20.7332C186.634 21.6489 185.504 21.7184 184.335 21.4279C182.649 21.0047 180.95 20.7016 179.207 20.8153C178.165 20.8847 177.136 21.15 176.1 21.1879C174.666 21.2384 173.271 21.4721 171.9 21.87C171.338 22.0342 170.776 22.2236 170.296 21.6868C169.74 21.0616 169.481 20.3605 169.778 19.5332C169.86 19.2995 169.974 19.0911 170.157 18.6869Z" fill="white"/>
<path d="M103.345 11.6197C102.922 11.746 102.644 11.8345 102.353 11.9102C101.513 12.1439 100.636 11.7208 100.351 10.9503C100.017 10.0219 100.377 9.10614 101.261 8.7651C102.372 8.34196 103.534 8.10197 104.728 8.10828C105 8.10828 105.271 8.12723 105.543 8.08934C106.667 7.94408 106.705 7.85566 106.768 6.72518C106.818 5.82205 107.279 5.03892 107.848 4.37579C108.378 3.76318 109.433 3.92739 109.856 4.66631C110.153 5.18418 110.355 5.77784 110.488 6.35887C110.804 7.72303 110.987 7.89987 112.414 7.81777C112.919 7.78619 113.425 7.72935 113.923 7.66619C114.782 7.55251 115.547 7.83671 116.248 8.25986C117.315 8.90404 117.277 10.1356 116.216 10.7798C115.54 11.1903 114.801 11.2155 114.05 11.1713C112.692 11.0892 112.585 11.1271 112.029 12.3587C111.107 14.3923 111.208 14.4807 112.686 15.8764C114.776 17.8342 117.125 19.4384 119.69 20.7141C120.359 21.0489 121.028 21.3836 121.641 21.8067C122.658 22.5077 122.5 23.7772 121.37 24.3077C121.275 24.3519 121.186 24.4087 121.092 24.4277C119.475 24.7119 117.858 24.7308 116.248 24.3898C115.982 24.3329 115.679 24.1056 115.528 23.8719C114.283 21.952 112.502 20.4931 111.126 18.6932C110.905 18.4026 110.608 18.1563 110.324 17.9227C109.604 17.3353 109.231 17.3669 108.625 18.1184C107.469 19.5521 106.168 20.8341 104.659 21.8888C103.225 22.893 101.659 23.6003 99.8587 23.6445C99.625 23.6509 99.3724 23.6445 99.1577 23.5688C98.6146 23.3793 98.0272 23.2088 97.983 22.4762C97.9388 21.7373 98.0083 21.0362 98.7535 20.6257C99.4735 20.2341 100.212 19.9057 101.071 19.9752C101.924 20.0447 102.675 19.7731 103.345 19.2489C104.286 18.5226 105.246 17.8279 106.168 17.0827C106.591 16.7416 106.957 16.2806 106.844 15.6869C106.73 15.0996 106.288 14.7838 105.701 14.6638C105.334 14.588 104.981 14.487 104.614 14.3986C103.471 14.1396 102.764 13.4576 103.256 12.3081C103.326 12.1566 103.307 11.9734 103.345 11.6197ZM107.033 11.4239C107.399 12.245 107.955 12.4218 108.511 12.5229C108.871 12.5923 109.231 12.2197 109.263 11.8408C109.307 11.3861 108.985 11.2092 108.637 11.2155C108.151 11.2219 107.665 11.3418 107.033 11.4239Z" fill="white"/>
<path d="M55.1255 19.406C57.0012 19.2545 58.5864 19.0966 60.1716 19.0145C60.8348 18.9766 61.5295 19.0018 62.18 19.1471C63.2031 19.3808 63.6136 20.246 63.1273 21.1807C62.4073 22.5701 61.3463 23.6375 59.8685 24.2374C59.7737 24.2753 59.6601 24.2627 59.578 24.3132C58.378 25.0774 57.1275 24.9069 55.8581 24.5216C54.6645 24.1617 53.4519 23.8459 52.2582 23.4859C51.033 23.1133 49.8141 22.7091 48.5952 22.3301C47.9826 22.1407 47.37 21.9386 46.7448 21.7807C44.2943 21.1618 42.8228 18.9387 43.328 16.4819C43.5807 15.263 43.9659 14.0631 44.2943 12.8568C44.3448 12.661 44.408 12.4652 44.4459 12.2631C44.5722 11.6505 44.3259 11.36 43.7133 11.3979C43.5112 11.4105 43.3217 11.4926 43.1196 11.5305C42.1344 11.6947 41.3134 11.3474 40.8334 10.5643C40.486 9.98954 40.5808 8.93485 41.105 8.28435C41.8818 7.32438 42.8417 6.69283 44.1364 6.65493C45.6458 6.61072 47.1047 6.89492 48.5447 7.26123C49.9404 7.62121 50.3636 9.09905 49.4225 10.2169C48.6078 11.1832 47.8563 12.181 47.4395 13.3873C47.2058 14.0568 47.01 14.7388 46.8584 15.4336C46.6374 16.444 47.6605 17.5619 48.5952 17.9156C49.4794 18.2503 50.3951 18.5282 51.3172 18.724C52.6624 19.0271 54.0329 19.2166 55.1255 19.406Z" fill="white"/>
<path d="M148.943 22.2611C148.172 22.0212 147.389 21.8191 146.637 21.5285C145.532 21.1054 144.446 20.638 143.366 20.1581C141.819 19.476 140.448 18.5602 139.722 16.9561C139.57 16.6277 139.507 16.2424 139.482 15.8761C139.375 14.152 139.381 12.4152 139.16 10.7037C139.034 9.71845 139.375 8.98585 139.842 8.24693C140.549 7.12907 141.358 7.06592 142.28 8.04483C142.513 8.29114 142.703 8.57534 142.88 8.86585C143.158 9.31426 143.536 9.51004 144.067 9.50372C144.951 9.49109 145.829 9.52899 146.713 9.5353C147.799 9.54162 148.658 10.1669 148.816 11.0763C148.955 11.8594 148.677 12.4152 147.901 12.6489C147.13 12.8825 146.322 12.9962 145.526 13.1667C144.768 13.3246 143.972 13.3878 143.265 13.6657C142.381 14.013 142.292 14.6509 142.968 15.333C143.398 15.7624 143.878 16.1603 144.395 16.4698C145.526 17.1455 146.644 17.7582 148.084 17.695C149.385 17.6382 150.705 17.935 152.018 18.0992C152.315 18.1371 152.612 18.2571 152.871 18.4087C153.686 18.8634 153.793 19.6718 153.136 20.3538C152.006 21.5349 150.648 22.2043 148.943 22.2611Z" fill="white"/>
<path d="M135.062 6.73828C135.92 6.83933 136.653 7.16142 137.076 7.94455C137.499 8.734 137.19 9.44765 136.735 10.1234C136.697 10.1803 136.653 10.2434 136.596 10.2687C134.853 11.1465 135.074 12.8517 135.011 14.3422C134.91 16.8053 134.986 19.2683 135.295 21.7251C135.384 22.4135 135.238 23.1461 135.093 23.8345C135.024 24.1692 134.739 24.4913 134.481 24.7376C134.051 25.1481 133.596 25.0976 133.129 24.6997C132.674 24.3208 132.51 23.8219 132.478 23.2661C132.358 20.9672 132.264 18.6684 132.118 16.3758C132.049 15.3338 131.916 14.2917 131.74 13.2686C131.594 12.4223 131.525 12.4412 130.679 12.3465C130.249 12.296 129.807 12.2076 129.409 12.037C128.613 11.696 128.108 10.875 128.197 10.0982C128.298 9.21398 128.594 8.48769 129.605 8.21612C130.843 7.88771 132.049 7.42036 133.281 7.06037C133.862 6.88985 134.474 6.83933 135.062 6.73828Z" fill="white"/>
<path d="M167.284 6.5093C168.212 6.43983 169.001 6.68614 169.728 7.41242C170.353 8.03766 170.214 9.16183 169.469 9.46498C168.004 10.0523 166.475 10.3555 164.909 9.91338C164.189 9.71129 163.848 9.09236 163.898 8.32818C163.949 7.58294 164.593 6.83139 165.338 6.6735C165.698 6.59772 166.071 6.54719 166.444 6.5093C166.715 6.49035 166.987 6.5093 167.284 6.5093Z" fill="white"/>
</svg>
