<svg width="250" height="39" viewBox="0 0 250 39" fill="none" xmlns="http://www.w3.org/2000/svg">
<path d="M26.1255 10.6257C26.1845 9.80392 25.915 9.05326 25.5276 8.34211C25.2498 7.8206 24.854 7.37021 24.374 6.99883C24.0372 6.73808 23.6498 6.53263 23.2541 6.35089C22.7067 6.10594 22.1257 6.02693 21.5278 5.97952C20.8878 5.9242 20.2563 6.00322 19.6584 6.19286C19.1869 6.33509 18.7406 6.54053 18.3448 6.8408C18.1174 7.01463 17.8901 7.19637 17.6796 7.38601C17.5617 7.49664 17.4438 7.61516 17.3427 7.74159C17.0648 8.10506 16.8122 8.49225 16.6017 8.89523C16.3407 9.39303 16.2396 9.92245 16.0796 10.444C16.0459 10.5546 15.9954 10.6573 15.9449 10.7521C15.7596 11.0998 15.4144 11.005 15.2039 10.8153C15.1533 10.7679 15.1028 10.7126 15.0607 10.6652C14.8839 10.444 14.6481 10.4282 14.3871 10.4993C14.185 10.5546 13.9913 10.6178 13.7976 10.6889C13.385 10.8469 13.1829 10.7284 12.9724 10.4519C12.8882 10.3333 12.804 10.2148 12.7029 10.1042C12.5177 9.90664 12.2229 9.80392 11.9198 9.95405C11.743 10.041 11.524 10.0726 11.3219 10.1042C11.0104 10.1516 10.682 10.1753 10.3704 10.2227C10.1346 10.2543 9.90725 10.2227 9.69673 10.12C9.3178 9.93825 9.30938 9.51156 9.65463 9.28241C10.1009 8.99005 10.5893 8.78461 11.0609 8.54756C11.6082 8.2789 12.1219 7.97864 12.484 7.49664C12.5934 7.35441 12.6692 7.19637 12.7534 7.04624C12.8713 6.8408 12.9724 6.62745 13.0987 6.42991C13.3008 6.12965 13.5113 5.83729 13.7302 5.55283C13.9913 5.21305 14.3113 4.91279 14.6565 4.63623C15.0355 4.32807 15.4649 4.06731 15.8775 3.79866C16.4417 3.43518 17.0733 3.19023 17.6964 2.92947C18.0416 2.78724 18.3953 2.66872 18.749 2.54229C19.1616 2.39216 19.4395 2.1156 19.6247 1.74422C19.7089 1.57829 19.8352 1.42025 19.9279 1.26222C20.0963 0.969859 20.3152 0.709104 20.5257 0.448349C20.6605 0.282414 20.8205 0.140184 21.0141 0.0611677C21.3173 -0.0573574 21.5447 -0.0178491 21.6204 0.306119C21.7046 0.669596 21.8057 1.02517 21.8478 1.38865C21.8983 1.77583 22.1425 1.99708 22.4625 2.17091C22.5804 2.23413 22.7151 2.27363 22.8414 2.30524C23.2035 2.40006 23.5656 2.48698 23.9193 2.62131C24.3993 2.81095 24.8792 2.98478 25.3424 3.22183C25.9824 3.5458 26.5802 3.91718 27.1528 4.33597C27.6497 4.69945 28.0959 5.11033 28.5086 5.55283C29.0475 6.13755 29.5022 6.78549 29.839 7.50454C30.1759 8.21569 30.3948 8.95054 30.4874 9.717C30.538 10.1753 30.5632 10.6336 30.538 11.0919C30.5043 11.6766 30.3948 12.2534 30.2348 12.8224C30.0832 13.3439 29.8559 13.8338 29.6201 14.3158C29.418 14.7188 29.1401 15.098 28.8707 15.4694C28.5928 15.8408 28.298 16.1964 27.9865 16.5361C27.7423 16.8048 27.4644 17.0418 27.1949 17.2868C26.9339 17.5239 26.6729 17.7609 26.395 17.9663C26.016 18.2508 25.6034 18.5037 25.2245 18.7881C25.0308 18.9303 24.8456 19.0884 24.6856 19.2701C24.4582 19.523 24.4582 19.8232 24.6014 20.1156C24.8456 20.6371 25.1487 21.127 25.494 21.5853C25.7466 21.9172 26.0413 22.2332 26.3529 22.5256C26.7486 22.9049 27.1949 23.221 27.6833 23.4896C28.3065 23.8373 28.9801 24.019 29.6875 24.1534C30.4285 24.2877 31.1358 24.185 31.8432 24.0032C32.4073 23.861 32.9042 23.6002 33.3505 23.2684C33.9904 22.8022 34.5125 22.2332 34.883 21.5537C35.0767 21.1981 35.2367 20.8347 35.3546 20.4475C35.4977 19.9813 35.5483 19.5072 35.5483 19.0173C35.5483 18.5432 35.4641 18.0928 35.3462 17.6345C35.203 17.0972 34.9251 16.6231 34.5967 16.1806C34.3609 15.8645 34.0662 15.58 33.7547 15.3193C33.4684 15.0743 33.1315 14.9005 32.8031 14.7109C32.601 14.5923 32.3652 14.5212 32.1379 14.4501C31.9442 14.3869 31.7421 14.3316 31.5316 14.2921C31.3211 14.2526 31.2032 14.134 31.1611 13.9523C31.119 13.7785 31.1948 13.6441 31.3379 13.5335C31.5821 13.3597 31.5905 13.1305 31.5063 12.8856C31.4895 12.8461 31.4642 12.8066 31.4558 12.7591C31.4221 12.6485 31.3884 12.5379 31.3716 12.4273C31.3379 12.1665 31.3716 11.9295 31.599 11.724C31.7168 11.6134 31.7926 11.4475 31.8684 11.2973C31.961 11.1077 31.9779 10.9023 31.9105 10.7047C31.9021 10.6652 31.8853 10.6336 31.8768 10.5941C31.8011 10.3412 31.7 10.1042 31.6495 9.83553C31.5905 9.47995 31.4979 9.13228 31.5148 8.7688C31.5148 8.70559 31.4895 8.63448 31.4895 8.57126C31.4811 8.46854 31.4811 8.37372 31.5905 8.31051C31.6916 8.2552 31.8095 8.2631 31.9189 8.36582C32.0705 8.50015 32.2305 8.63448 32.3484 8.79251C32.6347 9.16389 32.8957 9.55107 33.1736 9.93825C33.2494 10.041 33.342 10.1437 33.4262 10.2385C33.4515 10.2701 33.4852 10.2859 33.5105 10.3175C33.7968 10.7442 34.2515 10.9734 34.6725 11.242C35.1357 11.5423 35.5904 11.8505 36.0451 12.1586C36.5672 12.5142 37.0556 12.9172 37.5019 13.3597C38.0661 13.9207 38.5545 14.5291 38.925 15.2245C39.2197 15.7776 39.4892 16.3386 39.7081 16.9233C39.7755 17.113 39.8765 17.2947 39.9607 17.4843C40.1207 17.8241 40.3986 18.0296 40.7438 18.1876C41.0554 18.3219 41.3585 18.4721 41.6701 18.6222C41.7543 18.6617 41.8301 18.7249 41.8975 18.7881C41.9227 18.8118 41.9564 18.8434 41.9648 18.875C42.0743 19.1911 41.9227 19.4519 41.5859 19.5467C41.2828 19.6257 40.988 19.7205 40.6765 19.7758C40.3481 19.839 40.146 20.0366 40.0281 20.2973C39.8512 20.7003 39.7165 21.1191 39.5649 21.53C39.4639 21.7987 39.3376 22.0594 39.2365 22.3281C39.0681 22.7864 38.8071 23.1972 38.5545 23.616C38.2766 24.0743 37.9397 24.501 37.5777 24.904C36.7777 25.789 35.8177 26.4843 34.723 27.0138C34.5294 27.1086 34.3273 27.1797 34.1252 27.2508C33.8304 27.3535 33.5441 27.4641 33.241 27.5432C32.6515 27.6933 32.0453 27.7723 31.439 27.8197C31.1695 27.8355 30.8916 27.8513 30.6222 27.8513C30.0074 27.8513 29.4096 27.7802 28.8033 27.6775C28.0117 27.5511 27.2707 27.2903 26.555 26.9584C26.1508 26.7688 25.7382 26.5634 25.3592 26.3342C25.0392 26.1367 24.7529 25.8917 24.4582 25.6626C24.1719 25.4334 23.8772 25.2122 23.6246 24.9593C23.2962 24.6354 23.0014 24.2877 22.7067 23.94C22.5299 23.7346 22.3867 23.5054 22.2099 23.3079C21.9825 23.0471 21.7383 22.8101 21.3678 22.739C21.132 22.6994 20.9215 22.739 20.7278 22.8496C20.6015 22.9207 20.4836 22.9918 20.3658 23.0708C19.751 23.4817 19.1363 23.8926 18.5974 24.3904C18.0248 24.9119 17.5364 25.5045 17.2164 26.1999C16.8964 26.8952 16.7112 27.6222 16.7027 28.3886C16.6943 28.8469 16.7112 29.2894 16.8459 29.7319C16.9722 30.1428 17.1743 30.53 17.3932 30.9093C17.5785 31.2332 17.8395 31.5019 18.1006 31.7627C18.5721 32.2368 19.1448 32.5923 19.7931 32.8136C20.6605 33.1138 21.5699 33.2324 22.4962 33.0585C23.0183 32.9637 23.5067 32.782 23.9614 32.5133C24.4666 32.2131 24.9045 31.8496 25.3003 31.4308C25.6034 31.1068 25.8645 30.7512 26.0918 30.3799C26.3781 29.9137 26.6223 29.4159 26.7655 28.8864C26.7992 28.7521 26.8413 28.6257 26.8918 28.4993C27.0013 28.2069 27.3465 28.1437 27.557 28.3807C27.7002 28.5388 27.8349 28.7126 27.9612 28.8864C28.1633 29.1551 28.3907 29.2183 28.7107 29.0603C28.8791 28.9813 29.0475 28.9022 29.2496 28.9022C29.4685 28.8943 29.6369 28.9655 29.7885 29.0998C29.9232 29.2183 30.0496 29.3447 30.1759 29.4712C30.3022 29.6055 30.4453 29.645 30.6306 29.6213C31.0432 29.5739 31.4053 29.3763 31.7926 29.2578C32.0537 29.1788 32.3063 29.084 32.5926 29.0998C32.6347 29.0998 32.6768 29.0998 32.7105 29.1077C32.9378 29.1551 33.0052 29.3131 32.8536 29.4712C32.6936 29.6371 32.5084 29.7793 32.3231 29.9295C32.0284 30.1665 31.7253 30.4036 31.4305 30.6406C31.3463 30.7117 31.2537 30.767 31.1779 30.8461C31.0516 30.9646 30.9253 31.0989 30.799 31.2253C30.5211 31.5019 30.2938 31.818 30.0832 32.1577C29.8896 32.4659 29.6538 32.7583 29.4264 33.0506C29.1906 33.3509 28.9549 33.6432 28.7107 33.9277C28.2728 34.4176 27.7591 34.8443 27.2118 35.2315C26.7486 35.5555 26.235 35.8083 25.7297 36.0533C25.6287 36.1007 25.5192 36.1323 25.4182 36.1639C24.9129 36.3219 24.3993 36.472 23.894 36.6459C23.4814 36.7881 23.1446 37.0094 22.9846 37.4202C22.8246 37.8232 22.5804 38.1867 22.3194 38.5423C22.2099 38.7003 22.0331 38.8267 21.8562 38.9374C21.6625 39.0638 21.4268 38.9927 21.351 38.7793C21.2836 38.5976 21.2415 38.4001 21.2162 38.2104C21.191 37.9418 21.1405 37.6889 21.0057 37.4519C20.8794 37.2227 20.6773 37.0647 20.4584 36.9224C20.1468 36.7249 19.7847 36.6459 19.4226 36.5827C19.0774 36.5274 18.7406 36.4404 18.4122 36.2982C18.1427 36.1797 17.8564 36.0928 17.5869 35.9742C17.3006 35.8399 17.0143 35.6977 16.7449 35.5396C16.1301 35.192 15.5912 34.7574 15.0607 34.2991C14.8418 34.1094 14.6565 33.8724 14.4628 33.6591C14.2776 33.4536 14.0923 33.2482 13.9323 33.0269C13.6545 32.6397 13.4103 32.2368 13.1829 31.818C12.9555 31.3913 12.7955 30.9488 12.6524 30.4905C12.5766 30.2297 12.4756 29.969 12.425 29.7082C12.3661 29.4159 12.3324 29.1156 12.3156 28.8153C12.2903 28.444 12.265 28.0726 12.2819 27.7091C12.3156 27.156 12.324 26.595 12.5261 26.0576C12.6861 25.6389 12.7871 25.2043 13.0229 24.8092C13.2755 24.3667 13.545 23.9321 13.8818 23.5291C14.4292 22.8654 15.0691 22.2886 15.7428 21.7354C16.0038 21.5221 16.2817 21.3246 16.5343 21.1112C16.9301 20.7793 17.3259 20.4475 17.6964 20.0998C17.8816 19.926 17.9995 19.7126 17.9743 19.4519C17.9659 19.3807 17.9659 19.3175 17.9743 19.2464C18.0248 18.8908 17.848 18.6143 17.6206 18.3614C17.3511 18.0533 17.0564 17.7609 16.8038 17.4448C16.3996 16.9312 15.9112 16.4966 15.406 16.0936C15.0439 15.8092 14.6481 15.5721 14.2186 15.3667C13.4524 15.0032 12.6356 14.9163 11.8019 14.9637C11.2293 14.9953 10.682 15.1217 10.1599 15.3588C9.55358 15.6275 9.0315 15.983 8.5852 16.4413C8.16416 16.8759 7.83576 17.3737 7.6084 17.9347C7.45683 18.3298 7.30525 18.717 7.26315 19.1279C7.21263 19.5151 7.18736 19.9023 7.21263 20.2973C7.24631 20.7003 7.26315 21.1112 7.3642 21.5063C7.56629 22.3044 7.8947 23.0313 8.54309 23.616C8.76203 23.8136 9.00623 23.9637 9.25885 24.1138C9.74725 24.4062 10.303 24.5247 10.8504 24.667C10.8925 24.6749 10.9262 24.6828 10.9683 24.6986C11.3472 24.7934 11.4398 25.062 11.1956 25.3465C10.9177 25.6705 10.9093 25.8127 11.1198 26.1841C11.3219 26.5317 11.3556 26.8794 11.1451 27.2429C11.0693 27.3693 11.0019 27.4958 10.943 27.6301C10.7998 27.9461 10.8672 28.2464 10.9935 28.5467C11.0609 28.7047 11.0946 28.8785 11.1367 29.0445C11.1619 29.1314 11.1619 29.2262 11.204 29.3052C11.3809 29.6845 11.3809 30.0796 11.3893 30.4826C11.3893 30.5458 11.3556 30.6564 11.3135 30.6722C11.2293 30.6959 11.1114 30.6959 11.044 30.6485C10.9009 30.5458 10.7577 30.4194 10.6651 30.2771C10.3451 29.7951 9.98304 29.3447 9.57042 28.9418C9.28412 28.6573 8.95571 28.4123 8.63572 28.1674C8.27363 27.8908 7.8947 27.638 7.53261 27.3693C7.13684 27.077 6.74107 26.7767 6.37056 26.4606C6.03373 26.1762 5.72216 25.8601 5.4106 25.544C4.89693 25.0304 4.49274 24.4457 4.14749 23.8215C4.0296 23.616 3.92013 23.4027 3.81067 23.1972C3.7012 22.9918 3.61699 22.7706 3.49068 22.5651C3.31384 22.2649 3.20438 21.9409 3.07807 21.6248C2.99386 21.4115 2.89281 21.206 2.7665 21.0085C2.71598 20.9216 2.61493 20.8505 2.51388 20.8109C2.09284 20.6134 1.64655 20.4475 1.23393 20.242C0.829739 20.0445 0.425546 19.839 0.172926 19.4519C0.0634566 19.278 -0.020751 19.1042 0.00451108 18.8987C0.0129318 18.7802 0.00451108 18.6538 0.00451108 18.5353C0.0129318 18.4088 0.0634564 18.3535 0.198187 18.3535C0.299236 18.3535 0.417125 18.3456 0.509753 18.3851C1.07394 18.6143 1.67181 18.6064 2.26126 18.5906C2.48862 18.5827 2.67387 18.4721 2.82544 18.3219C3.02754 18.1165 3.13701 17.8715 3.22122 17.6108C3.30542 17.3421 3.38963 17.0735 3.51594 16.8206C3.75172 16.3228 4.01276 15.8408 4.35801 15.4062C4.57695 15.1296 4.77905 14.8373 5.02325 14.5844C5.26745 14.3158 5.56217 14.0945 5.81479 13.8338C6.05057 13.5888 6.32003 13.3992 6.60634 13.2095C6.86738 13.0357 7.12842 12.8619 7.39788 12.6959C7.86944 12.4115 8.39152 12.2139 8.91361 12.0085C9.36832 11.8347 9.8483 11.7477 10.3283 11.6608C10.6567 11.5976 10.9935 11.5423 11.3219 11.5186C11.9703 11.4633 12.6187 11.4554 13.2671 11.5581C13.9071 11.6608 14.5471 11.7477 15.1618 11.9611C15.8438 12.1981 16.5091 12.4589 17.1069 12.8382C17.5111 13.0989 17.9237 13.3439 18.3027 13.6283C18.6227 13.8654 18.909 14.1419 19.1953 14.4106C19.591 14.782 19.9531 15.185 20.2815 15.6196C20.4415 15.8329 20.61 16.0462 20.7784 16.2517C21.1657 16.7337 21.932 16.7811 22.3783 16.3307C22.6899 16.0146 23.052 15.7539 23.3804 15.4536C23.6161 15.2403 23.8435 15.019 24.0624 14.7899C24.3151 14.537 24.5593 14.2763 24.7866 14.0076C24.9887 13.7706 25.1571 13.5177 25.334 13.2728C25.4266 13.1384 25.5276 13.012 25.6034 12.8698C25.9403 12.1428 26.1676 11.408 26.1255 10.6257Z" fill="white"/>
<path d="M101.835 10.4114C101.599 10.3191 101.364 10.1511 101.121 10.1427C99.5418 10.0755 97.9629 10.0251 96.4596 10.697C95.4098 11.1673 94.2929 11.3269 93.1591 11.2849C91.1267 11.2093 89.8417 8.89973 90.8579 7.13608C91.5382 5.95191 92.5712 5.33044 93.9569 5.31364C95.855 5.29684 97.7614 5.40602 99.6426 5.19606C102.935 4.82654 106.219 5.14567 109.502 5.03649C110.535 5.0029 111.568 4.80974 112.593 4.81814C113.937 4.82654 115.289 4.91052 116.632 5.05329C118.463 5.24645 120.261 5.61598 121.999 6.31304C123.108 6.75815 123.704 7.87513 122.528 9.0677C121.42 10.1763 120.118 10.6466 118.598 10.4366C117.447 10.2771 116.305 9.97472 115.154 9.78156C113.962 9.5884 112.752 9.44563 111.551 9.30285C111.333 9.27766 111.048 9.26086 110.896 9.37844C110.67 9.5464 110.434 9.81515 110.392 10.0671C110.367 10.2183 110.686 10.5206 110.905 10.5794C111.241 10.6802 111.619 10.6214 111.98 10.655C112.652 10.7222 113.332 10.739 113.979 10.8985C115.255 11.2093 115.793 11.8811 115.919 13.1661C115.969 13.6616 115.994 14.1571 116.011 14.6526C116.078 18.0791 116.145 21.5056 116.196 24.9322C116.229 26.9142 115.482 28.7366 114.827 30.5423C114.289 32.0204 112.442 32.6502 111.241 31.7516C109.569 30.4919 107.764 30.769 105.933 30.9034C105.437 30.937 104.95 31.0966 104.463 31.0798C103.489 31.0462 102.59 31.2645 101.709 31.6424C101.171 31.8692 100.608 32.054 100.046 32.2135C98.6432 32.6167 97.9126 32.3059 97.3415 30.9622C96.6444 29.3245 96.3925 27.5776 96.4344 25.8056C96.4848 23.6892 96.636 21.5812 96.6696 19.4648C96.6864 18.3899 96.5772 17.3065 96.468 16.2399C96.2833 14.3755 97.543 12.3347 99.3319 11.7132C99.8442 11.5368 100.365 11.4108 100.877 11.2345C101.23 11.1085 101.566 10.9321 101.91 10.781C101.868 10.655 101.851 10.529 101.835 10.4114ZM106.395 20.6994C107.243 21.1781 108.167 21.556 108.898 22.1523C110.115 23.1517 109.763 24.0755 108.662 24.7726C106.823 25.9316 104.799 25.7552 102.784 25.2681C102.742 25.2597 102.7 25.2345 102.666 25.2093C102.087 24.7222 101.339 24.2939 101.331 23.4541C101.322 22.6058 101.935 22.0935 102.666 21.7324C102.91 21.6064 103.136 21.4385 103.371 21.2873C103.044 21.1529 102.784 21.2033 102.532 21.2201C102.213 21.2369 101.902 21.2117 101.583 21.2453C100.726 21.3209 100.256 21.8416 100.331 22.673C100.415 23.5632 100.541 24.4535 100.709 25.3353C100.944 26.6034 101.02 26.6874 102.296 26.6454C103.825 26.6034 105.353 26.4523 106.882 26.3935C107.646 26.3683 108.41 26.4607 109.183 26.4691C110.267 26.4775 110.544 26.3851 110.745 25.3773C110.98 24.2015 110.98 22.9754 111.064 21.7744C111.115 21.0269 110.678 20.7078 109.981 20.6994C108.755 20.691 107.554 20.6994 106.395 20.6994ZM111.098 15.5428C110.905 15.4001 110.594 14.9885 110.267 14.9801C109.796 14.9633 109.485 15.3749 109.511 15.904C109.536 16.4079 109.771 16.7774 110.292 16.8446C110.695 16.895 111.132 16.2987 111.098 15.5428ZM101.734 15.9795C101.171 15.8872 100.642 15.7444 100.583 16.475C100.566 16.685 100.827 17.0965 101.003 17.1133C101.767 17.2225 101.86 16.7186 101.734 15.9795ZM106.109 15.5428C106.025 15.4588 105.832 15.0893 105.589 15.0557C105.093 14.9885 105.018 15.4504 105.085 15.8032C105.144 16.1055 105.328 16.5926 105.521 16.6178C106.067 16.7102 106.126 16.2483 106.109 15.5428ZM106.773 10.0587C106.336 9.76476 106.017 9.42883 105.899 9.48762C105.597 9.64719 105.379 9.98312 105.127 10.2435C105.353 10.403 105.605 10.7054 105.807 10.6802C106.084 10.6466 106.328 10.361 106.773 10.0587Z" fill="white"/>
<path d="M226.273 23.6892C225.484 23.58 224.879 23.496 224.106 23.3868C224.031 24.5206 223.938 25.5368 223.913 26.553C223.896 27.6364 223.972 28.7198 223.963 29.8032C223.955 30.3407 223.913 30.8866 223.779 31.4073C223.518 32.3815 223.056 32.7174 222.158 32.7174C221.427 32.7174 220.654 32.1883 220.445 31.4409C220.302 30.9286 220.251 30.3743 220.209 29.8368C220.1 28.493 220.025 27.1409 219.907 25.7972C219.882 25.5536 219.739 25.3185 219.622 24.9993C218.681 25.5452 218.227 26.3767 217.782 27.1829C217.085 28.451 216.061 29.3665 214.885 30.1475C214.7 30.2735 214.499 30.4331 214.289 30.4498C213.953 30.4834 213.482 30.5338 213.289 30.3491C213.096 30.1643 213.02 29.6352 213.146 29.3749C213.608 28.4007 214.07 27.4012 214.725 26.5614C216.38 24.4534 217.723 22.1607 219.008 19.8343C219.134 19.5992 219.244 19.3472 219.319 19.0869C219.361 18.9273 219.328 18.7426 219.328 18.4486C218.639 18.4486 217.984 18.4486 217.337 18.4486C216.758 18.4486 216.161 18.499 215.599 18.415C214.868 18.2974 214.137 18.0287 214.011 17.1721C213.869 16.2063 213.961 15.2488 214.851 14.6106C215.909 13.8547 217.102 13.4852 218.395 13.4684C219.118 13.46 219.848 13.502 220.562 13.46C221.545 13.4012 222.527 13.292 223.51 13.1997C224.635 13.0905 225.752 12.9645 226.844 13.4348C227.793 13.8463 228.104 14.451 227.6 15.3496C227.205 16.0467 226.659 16.6682 226.122 17.2728C225.349 18.1379 225.374 18.5494 226.315 19.2045C226.685 19.4648 227.012 19.7756 227.39 20.0191C228.196 20.5482 228.667 21.2705 228.675 22.2783C230.119 22.6478 231.404 22.2447 232.681 21.808C233.185 21.6316 233.496 20.5986 233.319 20.0443C233.134 19.4564 232.698 19.2213 231.933 19.3052C231.53 19.3472 231.127 19.4228 230.724 19.4312C229.649 19.448 229.12 19.0449 228.851 18.0539C228.566 16.9873 228.784 16.1895 229.666 15.7695C230.59 15.3328 231.581 14.9885 232.563 14.7282C233.487 14.4846 233.706 14.3754 233.748 13.418C233.781 12.6538 233.806 11.8643 233.647 11.1253C233.403 9.95789 234.016 9.24403 234.764 8.56377C234.99 8.35381 235.284 8.20264 235.562 8.05987C236.855 7.388 237.602 7.65675 238.081 9.01728C238.417 9.99149 238.635 11.0077 238.325 12.0491C238.224 12.3934 238.131 12.7545 238.115 13.1073C238.056 14.1403 238.442 14.5182 239.467 14.4594C239.87 14.4342 240.273 14.3586 240.668 14.283C242.137 13.9975 243.876 15.6436 243.506 17.55C243.355 18.331 242.793 18.7258 242.129 18.8853C241.13 19.1205 240.097 19.2129 239.072 19.3472C238.719 19.3976 238.358 19.4144 237.93 19.448C237.804 19.8427 237.636 20.2123 237.586 20.5986C237.493 21.4468 237.854 21.8415 238.728 21.8751C241.205 21.9759 243.683 22.0431 246.16 22.1607C247.731 22.2279 248.865 23.0845 249.688 24.3443C250.2 25.1253 250.066 25.7636 249.41 26.4102C248.184 27.628 246.681 27.7204 245.127 27.3341C242.885 26.7714 240.626 26.3683 238.308 26.5194C236.922 26.6118 235.553 26.9645 234.176 27.0149C232.269 27.0821 230.413 27.3929 228.591 27.9219C227.843 28.1403 227.096 28.3923 226.458 27.6784C225.719 26.847 225.374 25.9147 225.769 24.8146C225.878 24.5038 226.029 24.2267 226.273 23.6892Z" fill="white"/>
<path d="M137.427 14.2918C136.864 14.4598 136.494 14.5773 136.108 14.6781C134.991 14.9889 133.824 14.4262 133.446 13.4016C133.001 12.167 133.479 10.9493 134.655 10.4958C136.133 9.93306 137.679 9.61392 139.266 9.62232C139.627 9.62232 139.988 9.64752 140.349 9.59713C141.844 9.40396 141.895 9.28639 141.979 7.78309C142.046 6.58212 142.659 5.54073 143.415 4.6589C144.12 3.84426 145.523 4.06262 146.085 5.04522C146.48 5.73389 146.749 6.52333 146.925 7.29598C147.345 9.11002 147.589 9.34518 149.487 9.236C150.159 9.19401 150.83 9.11842 151.494 9.03444C152.636 8.88327 153.652 9.26119 154.584 9.82388C156.004 10.6805 155.953 12.3182 154.542 13.1748C153.644 13.7207 152.661 13.7543 151.662 13.6955C149.856 13.5863 149.713 13.6367 148.974 15.2744C147.748 17.9787 147.883 18.0963 149.848 19.9523C152.628 22.5558 155.752 24.689 159.162 26.3854C160.052 26.8305 160.942 27.2756 161.757 27.8383C163.109 28.7705 162.899 30.4586 161.396 31.1641C161.27 31.2229 161.152 31.2985 161.026 31.3236C158.876 31.7016 156.726 31.7268 154.584 31.2733C154.232 31.1977 153.829 30.8953 153.627 30.5846C151.973 28.0315 149.604 26.0915 147.773 23.6979C147.479 23.3116 147.085 22.9841 146.707 22.6734C145.749 21.8923 145.254 21.9343 144.448 22.9337C142.911 24.8401 141.181 26.545 139.174 27.9475C137.267 29.2828 135.184 30.2235 132.791 30.2822C132.48 30.2906 132.144 30.2822 131.859 30.1815C131.136 29.9295 130.355 29.7028 130.296 28.7286C130.238 27.746 130.33 26.8137 131.321 26.2678C132.278 25.7471 133.261 25.3104 134.403 25.4028C135.537 25.4952 136.536 25.1341 137.427 24.437C138.678 23.4712 139.955 22.5474 141.181 21.5564C141.743 21.1029 142.231 20.4898 142.079 19.7003C141.928 18.9193 141.34 18.4994 140.559 18.3398C140.072 18.239 139.602 18.1047 139.115 17.9871C137.595 17.6427 136.654 16.7357 137.309 15.2072C137.401 15.0057 137.376 14.7621 137.427 14.2918ZM142.331 14.0315C142.818 15.1232 143.557 15.3584 144.297 15.4928C144.775 15.5851 145.254 15.0896 145.296 14.5857C145.355 13.9811 144.926 13.7459 144.464 13.7543C143.818 13.7627 143.171 13.9223 142.331 14.0315Z" fill="white"/>
<path d="M73.3055 24.6464C75.7998 24.4448 77.9078 24.2349 80.0158 24.1257C80.8976 24.0753 81.8214 24.1089 82.6865 24.302C84.047 24.6128 84.5929 25.7634 83.9462 27.0063C82.9888 28.8539 81.5779 30.2733 79.6127 31.0711C79.4867 31.1215 79.3355 31.1047 79.2264 31.1719C77.6307 32.1881 75.9678 31.9613 74.2797 31.449C72.6925 30.9703 71.08 30.5504 69.4927 30.0717C67.8634 29.5762 66.2425 29.0387 64.6216 28.5348C63.807 28.2829 62.9924 28.0141 62.1609 27.8042C58.9024 26.9811 56.9456 24.0249 57.6174 20.7579C57.9534 19.1371 58.4657 17.5414 58.9024 15.9373C58.9696 15.6769 59.0535 15.4166 59.1039 15.1479C59.2719 14.3332 58.9444 13.9469 58.1297 13.9973C57.861 14.0141 57.609 14.1233 57.3403 14.1736C56.0301 14.392 54.9384 13.9301 54.3001 12.8887C53.8382 12.1244 53.9641 10.7219 54.6612 9.85689C55.6942 8.58035 56.9707 7.74051 58.6924 7.69012C60.6996 7.63133 62.6396 8.00926 64.5545 8.49636C66.4105 8.97507 66.9732 10.9403 65.7218 12.4268C64.6384 13.7117 63.639 15.0387 63.0847 16.6428C62.774 17.533 62.5137 18.44 62.3121 19.3638C62.0182 20.7076 63.3787 22.1941 64.6216 22.6644C65.7974 23.1095 67.0152 23.479 68.2413 23.7394C70.0302 24.1425 71.8526 24.3944 73.3055 24.6464Z" fill="white"/>
<path d="M198.062 28.4426C197.038 28.1235 195.996 27.8547 194.997 27.4684C193.527 26.9057 192.083 26.2843 190.647 25.646C188.589 24.739 186.767 23.5212 185.801 21.388C185.599 20.9513 185.515 20.439 185.482 19.9519C185.339 17.6592 185.347 15.3496 185.053 13.0737C184.885 11.7635 185.339 10.7893 185.96 9.80671C186.901 8.3202 187.976 8.23622 189.202 9.53796C189.513 9.8655 189.765 10.2434 190 10.6297C190.369 11.226 190.873 11.4864 191.579 11.478C192.755 11.4612 193.922 11.5116 195.098 11.52C196.542 11.5284 197.684 12.3598 197.894 13.5692C198.079 14.6106 197.71 15.3496 196.677 15.6604C195.652 15.9711 194.577 16.1223 193.519 16.349C192.511 16.559 191.453 16.643 190.512 17.0125C189.336 17.4744 189.219 18.3226 190.118 19.2297C190.689 19.8007 191.327 20.3298 192.016 20.7414C193.519 21.64 195.005 22.4546 196.92 22.3706C198.65 22.295 200.405 22.6898 202.152 22.9081C202.547 22.9585 202.942 23.1181 203.286 23.3196C204.37 23.9243 204.512 24.9993 203.639 25.9063C202.136 27.4768 200.33 28.3671 198.062 28.4426Z" fill="white"/>
<path d="M179.603 7.7998C180.745 7.93418 181.719 8.36249 182.282 9.40389C182.845 10.4537 182.433 11.4027 181.828 12.3013C181.778 12.3769 181.719 12.4609 181.644 12.4945C179.326 13.6618 179.62 15.9294 179.536 17.9114C179.401 21.1868 179.502 24.4621 179.913 27.7291C180.031 28.6445 179.838 29.6187 179.645 30.5341C179.552 30.9792 179.174 31.4076 178.83 31.7351C178.259 32.281 177.654 32.2138 177.033 31.6847C176.428 31.1808 176.21 30.5173 176.168 29.7783C176.008 26.7213 175.882 23.6643 175.689 20.6157C175.597 19.23 175.42 17.8442 175.185 16.4837C174.992 15.3583 174.9 15.3835 173.774 15.2575C173.203 15.1903 172.615 15.0728 172.086 14.846C171.028 14.3925 170.356 13.3007 170.474 12.2677C170.608 11.092 171.003 10.1261 172.347 9.76502C173.993 9.3283 175.597 8.70683 177.234 8.22812C178.007 8.00137 178.822 7.93418 179.603 7.7998Z" fill="white"/>
<path d="M222.452 7.49641C223.686 7.40403 224.736 7.73156 225.702 8.69737C226.533 9.52881 226.349 11.0237 225.358 11.4268C223.409 12.2079 221.377 12.611 219.294 12.0231C218.337 11.7544 217.883 10.9313 217.95 9.91513C218.018 8.92413 218.874 7.92472 219.865 7.71477C220.344 7.61399 220.839 7.5468 221.335 7.49641C221.696 7.47121 222.057 7.49641 222.452 7.49641Z" fill="white"/>
</svg>
