<svg width="250" height="39" viewBox="0 0 250 39" fill="none" xmlns="http://www.w3.org/2000/svg">
<path d="M26.1255 10.6257C26.1845 9.80392 25.915 9.05326 25.5276 8.34211C25.2498 7.8206 24.854 7.37021 24.374 6.99883C24.0372 6.73808 23.6498 6.53263 23.2541 6.35089C22.7067 6.10594 22.1257 6.02693 21.5278 5.97952C20.8878 5.9242 20.2563 6.00322 19.6584 6.19286C19.1869 6.33509 18.7406 6.54053 18.3448 6.8408C18.1174 7.01463 17.8901 7.19637 17.6796 7.38601C17.5617 7.49664 17.4438 7.61516 17.3427 7.74159C17.0648 8.10506 16.8122 8.49225 16.6017 8.89523C16.3407 9.39304 16.2396 9.92245 16.0796 10.444C16.0459 10.5546 15.9954 10.6573 15.9449 10.7521C15.7596 11.0998 15.4144 11.005 15.2039 10.8153C15.1533 10.7679 15.1028 10.7126 15.0607 10.6652C14.8839 10.444 14.6481 10.4282 14.3871 10.4993C14.185 10.5546 13.9913 10.6178 13.7976 10.6889C13.385 10.8469 13.1829 10.7284 12.9724 10.4519C12.8882 10.3333 12.804 10.2148 12.7029 10.1042C12.5177 9.90664 12.2229 9.80392 11.9198 9.95405C11.743 10.041 11.524 10.0726 11.3219 10.1042C11.0104 10.1516 10.682 10.1753 10.3704 10.2227C10.1346 10.2543 9.90725 10.2227 9.69673 10.12C9.3178 9.93825 9.30938 9.51156 9.65463 9.28241C10.1009 8.99005 10.5893 8.78461 11.0609 8.54756C11.6082 8.2789 12.1219 7.97864 12.484 7.49664C12.5934 7.35441 12.6692 7.19637 12.7534 7.04624C12.8713 6.8408 12.9724 6.62745 13.0987 6.42991C13.3008 6.12965 13.5113 5.83729 13.7302 5.55283C13.9913 5.21305 14.3113 4.91279 14.6565 4.63623C15.0355 4.32807 15.4649 4.06731 15.8775 3.79866C16.4417 3.43518 17.0733 3.19023 17.6964 2.92947C18.0416 2.78724 18.3953 2.66872 18.749 2.54229C19.1616 2.39216 19.4395 2.1156 19.6247 1.74422C19.7089 1.57829 19.8352 1.42025 19.9279 1.26222C20.0963 0.969859 20.3152 0.709104 20.5257 0.448349C20.6605 0.282414 20.8205 0.140184 21.0141 0.0611677C21.3173 -0.0573574 21.5447 -0.017849 21.6204 0.306119C21.7046 0.669596 21.8057 1.02517 21.8478 1.38865C21.8983 1.77583 22.1425 1.99708 22.4625 2.17091C22.5804 2.23413 22.7151 2.27363 22.8414 2.30524C23.2035 2.40006 23.5656 2.48698 23.9193 2.62131C24.3993 2.81095 24.8792 2.98478 25.3424 3.22183C25.9824 3.5458 26.5802 3.91718 27.1528 4.33597C27.6497 4.69945 28.0959 5.11033 28.5086 5.55283C29.0475 6.13755 29.5022 6.78549 29.839 7.50454C30.1759 8.21569 30.3948 8.95054 30.4874 9.717C30.538 10.1753 30.5632 10.6336 30.538 11.0919C30.5043 11.6766 30.3948 12.2534 30.2348 12.8224C30.0832 13.3439 29.8559 13.8338 29.6201 14.3158C29.418 14.7188 29.1401 15.098 28.8707 15.4694C28.5928 15.8408 28.298 16.1964 27.9865 16.5361C27.7423 16.8048 27.4644 17.0418 27.1949 17.2868C26.9339 17.5239 26.6729 17.7609 26.395 17.9663C26.016 18.2508 25.6034 18.5037 25.2245 18.7881C25.0308 18.9303 24.8456 19.0884 24.6856 19.2701C24.4582 19.523 24.4582 19.8232 24.6014 20.1156C24.8456 20.6371 25.1487 21.127 25.494 21.5853C25.7466 21.9172 26.0413 22.2332 26.3529 22.5256C26.7486 22.9049 27.1949 23.221 27.6833 23.4896C28.3065 23.8373 28.9801 24.019 29.6875 24.1533C30.4285 24.2877 31.1358 24.185 31.8432 24.0032C32.4073 23.861 32.9042 23.6002 33.3505 23.2684C33.9904 22.8022 34.5125 22.2332 34.883 21.5537C35.0767 21.1981 35.2367 20.8346 35.3546 20.4475C35.4977 19.9813 35.5483 19.5072 35.5483 19.0173C35.5483 18.5432 35.4641 18.0928 35.3462 17.6345C35.203 17.0972 34.9251 16.6231 34.5967 16.1806C34.3609 15.8645 34.0662 15.58 33.7547 15.3193C33.4684 15.0743 33.1315 14.9005 32.8031 14.7109C32.601 14.5923 32.3652 14.5212 32.1379 14.4501C31.9442 14.3869 31.7421 14.3316 31.5316 14.2921C31.3211 14.2526 31.2032 14.134 31.1611 13.9523C31.119 13.7785 31.1948 13.6441 31.3379 13.5335C31.5821 13.3597 31.5905 13.1305 31.5063 12.8856C31.4895 12.8461 31.4642 12.8066 31.4558 12.7591C31.4221 12.6485 31.3884 12.5379 31.3716 12.4273C31.3379 12.1665 31.3716 11.9295 31.599 11.724C31.7168 11.6134 31.7926 11.4475 31.8684 11.2973C31.961 11.1077 31.9779 10.9023 31.9105 10.7047C31.9021 10.6652 31.8853 10.6336 31.8768 10.5941C31.8011 10.3412 31.7 10.1042 31.6495 9.83553C31.5905 9.47995 31.4979 9.13228 31.5148 8.7688C31.5148 8.70559 31.4895 8.63448 31.4895 8.57126C31.4811 8.46854 31.4811 8.37372 31.5905 8.31051C31.6916 8.2552 31.8095 8.2631 31.9189 8.36582C32.0705 8.50015 32.2305 8.63448 32.3484 8.79251C32.6347 9.16389 32.8957 9.55107 33.1736 9.93825C33.2494 10.041 33.342 10.1437 33.4262 10.2385C33.4515 10.2701 33.4852 10.2859 33.5105 10.3175C33.7968 10.7442 34.2515 10.9734 34.6725 11.242C35.1357 11.5423 35.5904 11.8505 36.0451 12.1586C36.5672 12.5142 37.0556 12.9172 37.5019 13.3597C38.0661 13.9207 38.5545 14.5291 38.925 15.2245C39.2197 15.7776 39.4892 16.3386 39.7081 16.9233C39.7755 17.113 39.8765 17.2947 39.9607 17.4843C40.1207 17.8241 40.3986 18.0296 40.7438 18.1876C41.0554 18.3219 41.3585 18.4721 41.6701 18.6222C41.7543 18.6617 41.8301 18.7249 41.8975 18.7881C41.9227 18.8118 41.9564 18.8434 41.9648 18.875C42.0743 19.1911 41.9227 19.4519 41.5859 19.5467C41.2828 19.6257 40.988 19.7205 40.6765 19.7758C40.3481 19.839 40.146 20.0366 40.0281 20.2973C39.8512 20.7003 39.7165 21.1191 39.5649 21.53C39.4639 21.7987 39.3376 22.0594 39.2365 22.3281C39.0681 22.7864 38.8071 23.1972 38.5545 23.616C38.2766 24.0743 37.9397 24.501 37.5777 24.904C36.7777 25.789 35.8177 26.4843 34.723 27.0138C34.5294 27.1086 34.3273 27.1797 34.1252 27.2508C33.8304 27.3535 33.5441 27.4641 33.241 27.5432C32.6515 27.6933 32.0453 27.7723 31.439 27.8197C31.1695 27.8355 30.8916 27.8513 30.6222 27.8513C30.0074 27.8513 29.4096 27.7802 28.8033 27.6775C28.0117 27.5511 27.2707 27.2903 26.555 26.9584C26.1508 26.7688 25.7382 26.5634 25.3592 26.3342C25.0392 26.1367 24.7529 25.8917 24.4582 25.6626C24.1719 25.4334 23.8772 25.2122 23.6246 24.9593C23.2962 24.6354 23.0014 24.2877 22.7067 23.94C22.5299 23.7346 22.3867 23.5054 22.2099 23.3079C21.9825 23.0471 21.7383 22.8101 21.3678 22.739C21.132 22.6994 20.9215 22.739 20.7278 22.8496C20.6015 22.9207 20.4836 22.9918 20.3658 23.0708C19.751 23.4817 19.1363 23.8926 18.5974 24.3904C18.0248 24.9119 17.5364 25.5045 17.2164 26.1999C16.8964 26.8952 16.7112 27.6222 16.7027 28.3886C16.6943 28.8469 16.7112 29.2894 16.8459 29.7319C16.9722 30.1428 17.1743 30.53 17.3932 30.9093C17.5785 31.2332 17.8395 31.5019 18.1006 31.7627C18.5721 32.2368 19.1448 32.5923 19.7931 32.8136C20.6605 33.1138 21.5699 33.2324 22.4962 33.0585C23.0183 32.9637 23.5067 32.782 23.9614 32.5133C24.4666 32.213 24.9045 31.8496 25.3003 31.4308C25.6034 31.1068 25.8645 30.7512 26.0918 30.3799C26.3781 29.9137 26.6223 29.4159 26.7655 28.8864C26.7992 28.7521 26.8413 28.6257 26.8918 28.4993C27.0013 28.2069 27.3465 28.1437 27.557 28.3807C27.7002 28.5388 27.8349 28.7126 27.9612 28.8864C28.1633 29.1551 28.3907 29.2183 28.7107 29.0603C28.8791 28.9813 29.0475 28.9022 29.2496 28.9022C29.4685 28.8943 29.6369 28.9655 29.7885 29.0998C29.9232 29.2183 30.0496 29.3447 30.1759 29.4712C30.3022 29.6055 30.4453 29.645 30.6306 29.6213C31.0432 29.5739 31.4053 29.3763 31.7926 29.2578C32.0537 29.1788 32.3063 29.084 32.5926 29.0998C32.6347 29.0998 32.6768 29.0998 32.7105 29.1077C32.9378 29.1551 33.0052 29.3131 32.8536 29.4712C32.6937 29.6371 32.5084 29.7793 32.3231 29.9295C32.0284 30.1665 31.7253 30.4036 31.4305 30.6406C31.3463 30.7117 31.2537 30.767 31.1779 30.8461C31.0516 30.9646 30.9253 31.0989 30.799 31.2253C30.5211 31.5019 30.2938 31.818 30.0832 32.1577C29.8896 32.4659 29.6538 32.7583 29.4264 33.0506C29.1906 33.3509 28.9549 33.6432 28.7107 33.9277C28.2728 34.4176 27.7591 34.8443 27.2118 35.2315C26.7486 35.5555 26.235 35.8083 25.7297 36.0533C25.6287 36.1007 25.5192 36.1323 25.4182 36.1639C24.9129 36.3219 24.3993 36.472 23.894 36.6459C23.4814 36.7881 23.1446 37.0094 22.9846 37.4202C22.8246 37.8232 22.5804 38.1867 22.3194 38.5423C22.2099 38.7003 22.0331 38.8267 21.8562 38.9374C21.6625 39.0638 21.4268 38.9927 21.351 38.7793C21.2836 38.5976 21.2415 38.4001 21.2162 38.2104C21.191 37.9418 21.1405 37.6889 21.0057 37.4519C20.8794 37.2227 20.6773 37.0647 20.4584 36.9224C20.1468 36.7249 19.7847 36.6459 19.4226 36.5827C19.0774 36.5274 18.7406 36.4404 18.4122 36.2982C18.1427 36.1797 17.8564 36.0928 17.5869 35.9742C17.3006 35.8399 17.0143 35.6977 16.7449 35.5397C16.1301 35.192 15.5912 34.7574 15.0607 34.2991C14.8418 34.1094 14.6565 33.8724 14.4628 33.6591C14.2776 33.4536 14.0923 33.2482 13.9323 33.0269C13.6545 32.6397 13.4103 32.2368 13.1829 31.818C12.9555 31.3913 12.7955 30.9488 12.6524 30.4905C12.5766 30.2297 12.4756 29.969 12.425 29.7082C12.3661 29.4159 12.3324 29.1156 12.3156 28.8153C12.2903 28.444 12.265 28.0726 12.2819 27.7091C12.3156 27.156 12.324 26.595 12.5261 26.0576C12.6861 25.6389 12.7871 25.2043 13.0229 24.8092C13.2755 24.3667 13.545 23.9321 13.8818 23.5291C14.4292 22.8654 15.0691 22.2886 15.7428 21.7354C16.0038 21.5221 16.2817 21.3246 16.5343 21.1112C16.9301 20.7793 17.3259 20.4475 17.6964 20.0998C17.8816 19.926 17.9995 19.7126 17.9743 19.4519C17.9659 19.3807 17.9659 19.3175 17.9743 19.2464C18.0248 18.8908 17.848 18.6143 17.6206 18.3614C17.3511 18.0533 17.0564 17.7609 16.8038 17.4448C16.3996 16.9312 15.9112 16.4966 15.406 16.0936C15.0439 15.8092 14.6481 15.5721 14.2186 15.3667C13.4524 15.0032 12.6356 14.9163 11.8019 14.9637C11.2293 14.9953 10.682 15.1217 10.1599 15.3588C9.55358 15.6275 9.0315 15.983 8.5852 16.4413C8.16416 16.8759 7.83576 17.3737 7.6084 17.9347C7.45683 18.3298 7.30525 18.717 7.26315 19.1279C7.21263 19.5151 7.18736 19.9023 7.21263 20.2973C7.24631 20.7003 7.26315 21.1112 7.3642 21.5063C7.56629 22.3044 7.8947 23.0313 8.5431 23.616C8.76203 23.8136 9.00623 23.9637 9.25885 24.1138C9.74725 24.4062 10.303 24.5247 10.8504 24.667C10.8925 24.6749 10.9262 24.6828 10.9683 24.6986C11.3472 24.7934 11.4398 25.062 11.1956 25.3465C10.9177 25.6705 10.9093 25.8127 11.1198 26.1841C11.3219 26.5317 11.3556 26.8794 11.1451 27.2429C11.0693 27.3693 11.0019 27.4958 10.943 27.6301C10.7998 27.9461 10.8672 28.2464 10.9935 28.5467C11.0609 28.7047 11.0946 28.8785 11.1367 29.0445C11.1619 29.1314 11.1619 29.2262 11.204 29.3052C11.3809 29.6845 11.3809 30.0796 11.3893 30.4826C11.3893 30.5458 11.3556 30.6564 11.3135 30.6722C11.2293 30.6959 11.1114 30.6959 11.044 30.6485C10.9009 30.5458 10.7577 30.4194 10.6651 30.2771C10.3451 29.7951 9.98303 29.3447 9.57042 28.9418C9.28412 28.6573 8.95571 28.4123 8.63572 28.1674C8.27363 27.8908 7.8947 27.638 7.53261 27.3693C7.13684 27.077 6.74107 26.7767 6.37056 26.4606C6.03373 26.1762 5.72216 25.8601 5.4106 25.544C4.89694 25.0304 4.49274 24.4457 4.14749 23.8215C4.0296 23.616 3.92013 23.4027 3.81067 23.1972C3.7012 22.9918 3.61699 22.7706 3.49068 22.5651C3.31384 22.2649 3.20438 21.9409 3.07807 21.6248C2.99386 21.4115 2.89281 21.206 2.7665 21.0085C2.71598 20.9216 2.61493 20.8505 2.51388 20.8109C2.09284 20.6134 1.64655 20.4475 1.23393 20.242C0.829739 20.0445 0.425546 19.839 0.172926 19.4519C0.0634566 19.278 -0.020751 19.1042 0.00451108 18.8987C0.0129318 18.7802 0.00451108 18.6538 0.00451108 18.5353C0.0129318 18.4088 0.0634564 18.3535 0.198187 18.3535C0.299236 18.3535 0.417125 18.3456 0.509753 18.3851C1.07394 18.6143 1.67181 18.6064 2.26126 18.5906C2.48862 18.5827 2.67387 18.4721 2.82544 18.3219C3.02754 18.1165 3.13701 17.8715 3.22122 17.6108C3.30542 17.3421 3.38963 17.0735 3.51594 16.8206C3.75172 16.3228 4.01276 15.8408 4.35801 15.4062C4.57695 15.1296 4.77905 14.8373 5.02325 14.5844C5.26745 14.3158 5.56217 14.0945 5.81479 13.8338C6.05057 13.5888 6.32003 13.3992 6.60634 13.2095C6.86738 13.0357 7.12842 12.8619 7.39788 12.6959C7.86944 12.4115 8.39152 12.2139 8.91361 12.0085C9.36832 11.8346 9.8483 11.7477 10.3283 11.6608C10.6567 11.5976 10.9935 11.5423 11.3219 11.5186C11.9703 11.4633 12.6187 11.4554 13.2671 11.5581C13.9071 11.6608 14.5471 11.7477 15.1618 11.9611C15.8438 12.1981 16.5091 12.4589 17.1069 12.8382C17.5111 13.0989 17.9238 13.3439 18.3027 13.6283C18.6227 13.8654 18.909 14.1419 19.1953 14.4106C19.591 14.782 19.9531 15.185 20.2815 15.6196C20.4415 15.8329 20.61 16.0462 20.7784 16.2517C21.1657 16.7337 21.932 16.7811 22.3783 16.3307C22.6899 16.0146 23.052 15.7539 23.3804 15.4536C23.6161 15.2403 23.8435 15.019 24.0624 14.7899C24.3151 14.537 24.5593 14.2763 24.7866 14.0076C24.9887 13.7706 25.1571 13.5177 25.334 13.2728C25.4266 13.1384 25.5276 13.012 25.6034 12.8698C25.9403 12.1428 26.1676 11.408 26.1255 10.6257Z" fill="#231815"/>
<path d="M101.835 10.4109C101.6 10.3186 101.365 10.1506 101.121 10.1422C99.5423 10.075 97.9634 10.0246 96.4601 10.6965C95.4103 11.1668 94.2934 11.3264 93.1596 11.2844C91.1272 11.2088 89.8422 8.89924 90.8584 7.13559C91.5387 5.95143 92.5717 5.32995 93.9574 5.31315C95.8555 5.29635 97.7619 5.40553 99.6431 5.19557C102.935 4.82605 106.219 5.14518 109.503 5.03601C110.536 5.00241 111.569 4.80925 112.593 4.81765C113.937 4.82605 115.289 4.91003 116.633 5.0528C118.464 5.24596 120.261 5.61549 121.999 6.31255C123.108 6.75767 123.704 7.87465 122.529 9.06721C121.42 10.1758 120.118 10.6461 118.598 10.4361C117.448 10.2766 116.305 9.97423 115.155 9.78107C113.962 9.58791 112.753 9.44514 111.552 9.30237C111.334 9.27717 111.048 9.26037 110.897 9.37795C110.67 9.54592 110.435 9.81466 110.393 10.0666C110.368 10.2178 110.687 10.5201 110.905 10.5789C111.241 10.6797 111.619 10.6209 111.98 10.6545C112.652 10.7217 113.332 10.7385 113.979 10.8981C115.256 11.2088 115.793 11.8807 115.919 13.1656C115.969 13.6611 115.995 14.1566 116.011 14.6521C116.079 18.0786 116.146 21.5052 116.196 24.9317C116.23 26.9137 115.482 28.7361 114.827 30.5418C114.29 32.0199 112.442 32.6498 111.241 31.7511C109.57 30.4914 107.764 30.7685 105.933 30.9029C105.438 30.9365 104.951 31.0961 104.464 31.0793C103.49 31.0457 102.591 31.264 101.709 31.642C101.172 31.8687 100.609 32.0535 100.046 32.213C98.6437 32.6162 97.913 32.3054 97.342 30.9617C96.6449 29.324 96.3929 27.5772 96.4349 25.8051C96.4853 23.6887 96.6365 21.5807 96.6701 19.4644C96.6869 18.3894 96.5777 17.306 96.4685 16.2394C96.2838 14.375 97.5435 12.3342 99.3324 11.7127C99.8447 11.5363 100.365 11.4103 100.878 11.234C101.23 11.108 101.566 10.9316 101.911 10.7805C101.869 10.6545 101.852 10.5285 101.835 10.4109ZM106.395 20.6989C107.244 21.1776 108.167 21.5555 108.898 22.1518C110.116 23.1512 109.763 24.0751 108.663 24.7721C106.824 25.9311 104.8 25.7547 102.784 25.2676C102.742 25.2592 102.7 25.234 102.667 25.2088C102.087 24.7217 101.34 24.2934 101.331 23.4536C101.323 22.6053 101.936 22.093 102.667 21.7319C102.91 21.6059 103.137 21.438 103.372 21.2868C103.044 21.1524 102.784 21.2028 102.532 21.2196C102.213 21.2364 101.902 21.2112 101.583 21.2448C100.726 21.3204 100.256 21.8411 100.332 22.6725C100.416 23.5628 100.542 24.453 100.71 25.3348C100.945 26.603 101.02 26.6869 102.297 26.6449C103.825 26.603 105.354 26.4518 106.882 26.393C107.647 26.3678 108.411 26.4602 109.184 26.4686C110.267 26.477 110.544 26.3846 110.746 25.3768C110.981 24.201 110.981 22.9749 111.065 21.7739C111.115 21.0265 110.679 20.7073 109.981 20.6989C108.755 20.6905 107.554 20.6989 106.395 20.6989ZM111.098 15.5423C110.905 15.3996 110.595 14.988 110.267 14.9796C109.797 14.9628 109.486 15.3744 109.511 15.9035C109.536 16.4074 109.772 16.7769 110.292 16.8441C110.695 16.8945 111.132 16.2982 111.098 15.5423ZM101.734 15.979C101.172 15.8867 100.643 15.7439 100.584 16.4746C100.567 16.6845 100.827 17.096 101.004 17.1128C101.768 17.222 101.86 16.7181 101.734 15.979ZM106.11 15.5423C106.026 15.4584 105.833 15.0888 105.589 15.0552C105.094 14.988 105.018 15.45 105.085 15.8027C105.144 16.105 105.329 16.5921 105.522 16.6173C106.068 16.7097 106.127 16.2478 106.11 15.5423ZM106.773 10.0582C106.337 9.76427 106.017 9.42834 105.9 9.48713C105.598 9.6467 105.379 9.98263 105.127 10.243C105.354 10.4025 105.606 10.7049 105.807 10.6797C106.085 10.6461 106.328 10.3606 106.773 10.0582Z" fill="#231815"/>
<path d="M226.273 23.6887C225.484 23.5795 224.879 23.4955 224.107 23.3864C224.031 24.5201 223.939 25.5363 223.914 26.5525C223.897 27.6359 223.972 28.7193 223.964 29.8027C223.956 30.3402 223.914 30.8861 223.779 31.4068C223.519 32.381 223.057 32.7169 222.158 32.7169C221.428 32.7169 220.655 32.1878 220.445 31.4404C220.302 30.9281 220.252 30.3738 220.21 29.8363C220.101 28.4925 220.025 27.1404 219.908 25.7967C219.882 25.5531 219.74 25.318 219.622 24.9988C218.681 25.5447 218.228 26.3762 217.783 27.1824C217.086 28.4506 216.061 29.366 214.885 30.147C214.701 30.273 214.499 30.4326 214.289 30.4494C213.953 30.483 213.483 30.5333 213.29 30.3486C213.096 30.1638 213.021 29.6347 213.147 29.3744C213.609 28.4002 214.071 27.4008 214.726 26.5609C216.38 24.4529 217.724 22.1602 219.009 19.8339C219.135 19.5987 219.244 19.3468 219.32 19.0864C219.362 18.9268 219.328 18.7421 219.328 18.4481C218.639 18.4481 217.984 18.4481 217.338 18.4481C216.758 18.4481 216.162 18.4985 215.599 18.4145C214.869 18.297 214.138 18.0282 214.012 17.1716C213.869 16.2058 213.962 15.2484 214.852 14.6101C215.91 13.8542 217.102 13.4847 218.396 13.4679C219.118 13.4595 219.849 13.5015 220.563 13.4595C221.545 13.4007 222.528 13.2915 223.51 13.1992C224.636 13.09 225.753 12.964 226.845 13.4343C227.794 13.8458 228.104 14.4505 227.6 15.3491C227.206 16.0462 226.66 16.6677 226.122 17.2724C225.35 18.1374 225.375 18.5489 226.315 19.204C226.685 19.4643 227.013 19.7751 227.39 20.0186C228.197 20.5477 228.667 21.27 228.675 22.2778C230.12 22.6473 231.405 22.2442 232.681 21.8075C233.185 21.6311 233.496 20.5981 233.32 20.0438C233.135 19.4559 232.698 19.2208 231.934 19.3048C231.531 19.3468 231.128 19.4223 230.725 19.4307C229.65 19.4475 229.121 19.0444 228.852 18.0534C228.566 16.9868 228.785 16.189 229.666 15.7691C230.59 15.3323 231.581 14.988 232.564 14.7277C233.488 14.4841 233.706 14.3749 233.748 13.4175C233.782 12.6533 233.807 11.8638 233.647 11.1248C233.404 9.9574 234.017 9.24354 234.764 8.56328C234.991 8.35332 235.285 8.20215 235.562 8.05938C236.855 7.38751 237.603 7.65626 238.082 9.01679C238.417 9.991 238.636 11.0072 238.325 12.0486C238.224 12.3929 238.132 12.7541 238.115 13.1068C238.056 14.1398 238.443 14.5177 239.467 14.4589C239.87 14.4337 240.274 14.3581 240.668 14.2825C242.138 13.997 243.876 15.6431 243.507 17.5495C243.356 18.3306 242.793 18.7253 242.13 18.8848C241.13 19.12 240.097 19.2124 239.073 19.3468C238.72 19.3971 238.359 19.4139 237.93 19.4475C237.804 19.8423 237.636 20.2118 237.586 20.5981C237.494 21.4463 237.855 21.8411 238.728 21.8747C241.206 21.9754 243.683 22.0426 246.161 22.1602C247.731 22.2274 248.865 23.084 249.688 24.3438C250.2 25.1248 250.066 25.7631 249.411 26.4098C248.185 27.6275 246.681 27.7199 245.128 27.3336C242.885 26.7709 240.626 26.3678 238.308 26.5189C236.923 26.6113 235.554 26.964 234.176 27.0144C232.27 27.0816 230.414 27.3924 228.591 27.9215C227.844 28.1398 227.097 28.3918 226.458 27.6779C225.719 26.8465 225.375 25.9143 225.77 24.8141C225.879 24.5033 226.03 24.2262 226.273 23.6887Z" fill="#231815"/>
<path d="M137.427 14.2918C136.864 14.4598 136.495 14.5773 136.109 14.6781C134.992 14.9889 133.824 14.4262 133.446 13.4016C133.001 12.167 133.48 10.9493 134.656 10.4958C136.134 9.93306 137.679 9.61392 139.266 9.62232C139.628 9.62232 139.989 9.64752 140.35 9.59713C141.845 9.40396 141.895 9.28639 141.979 7.78309C142.046 6.58212 142.659 5.54073 143.415 4.6589C144.121 3.84426 145.523 4.06262 146.086 5.04522C146.481 5.73389 146.749 6.52333 146.926 7.29598C147.346 9.11002 147.589 9.34518 149.487 9.236C150.159 9.19401 150.831 9.11842 151.494 9.03444C152.637 8.88327 153.653 9.26119 154.585 9.82388C156.004 10.6805 155.954 12.3182 154.543 13.1748C153.644 13.7207 152.662 13.7543 151.662 13.6955C149.857 13.5863 149.714 13.6367 148.975 15.2744C147.749 17.9787 147.883 18.0963 149.848 19.9523C152.628 22.5558 155.752 24.689 159.162 26.3854C160.052 26.8305 160.943 27.2756 161.757 27.8383C163.109 28.7705 162.899 30.4586 161.396 31.1641C161.27 31.2229 161.152 31.2985 161.026 31.3236C158.877 31.7016 156.727 31.7268 154.585 31.2733C154.232 31.1977 153.829 30.8953 153.628 30.5846C151.973 28.0315 149.605 26.0915 147.774 23.6979C147.48 23.3116 147.085 22.9841 146.707 22.6734C145.75 21.8923 145.254 21.9343 144.448 22.9337C142.911 24.8401 141.181 26.545 139.174 27.9475C137.268 29.2828 135.185 30.2235 132.791 30.2822C132.481 30.2906 132.145 30.2823 131.859 30.1815C131.137 29.9295 130.356 29.7028 130.297 28.7286C130.238 27.746 130.331 26.8137 131.322 26.2678C132.279 25.7471 133.262 25.3104 134.404 25.4028C135.538 25.4952 136.537 25.1341 137.427 24.437C138.679 23.4712 139.955 22.5474 141.181 21.5564C141.744 21.1029 142.231 20.4898 142.08 19.7003C141.929 18.9193 141.341 18.4994 140.56 18.3398C140.073 18.239 139.602 18.1047 139.115 17.9871C137.595 17.6427 136.655 16.7357 137.31 15.2072C137.402 15.0057 137.377 14.7621 137.427 14.2918ZM142.332 14.0315C142.819 15.1232 143.558 15.3584 144.297 15.4928C144.776 15.5851 145.254 15.0896 145.296 14.5857C145.355 13.9811 144.927 13.7459 144.465 13.7543C143.818 13.7627 143.172 13.9223 142.332 14.0315Z" fill="#231815"/>
<path d="M73.306 24.6469C75.8003 24.4453 77.9083 24.2353 80.0163 24.1262C80.8981 24.0758 81.8219 24.1094 82.687 24.3025C84.0475 24.6133 84.5934 25.7638 83.9467 27.0068C82.9893 28.8544 81.5784 30.2738 79.6132 31.0716C79.4872 31.122 79.336 31.1052 79.2269 31.1724C77.6312 32.1886 75.9683 31.9618 74.2802 31.4495C72.6929 30.9708 71.0805 30.5509 69.4932 30.0722C67.8639 29.5767 66.243 29.0392 64.6221 28.5353C63.8075 28.2833 62.9929 28.0146 62.1614 27.8046C58.9029 26.9816 56.946 24.0254 57.6179 20.7584C57.9538 19.1376 58.4661 17.5419 58.9029 15.9378C58.97 15.6774 59.054 15.4171 59.1044 15.1483C59.2724 14.3337 58.9448 13.9474 58.1302 13.9978C57.8615 14.0146 57.6095 14.1237 57.3408 14.1741C56.0306 14.3925 54.9388 13.9306 54.3006 12.8892C53.8387 12.1249 53.9646 10.7224 54.6617 9.85738C55.6947 8.58083 56.9712 7.741 58.6929 7.69061C60.7001 7.63182 62.6401 8.00975 64.5549 8.49685C66.411 8.97556 66.9737 10.9408 65.7223 12.4273C64.6389 13.7122 63.6395 15.0392 63.0852 16.6432C62.7745 17.5335 62.5141 18.4405 62.3126 19.3643C62.0186 20.708 63.3792 22.1945 64.6221 22.6649C65.7979 23.11 67.0157 23.4795 68.2418 23.7398C70.0307 24.143 71.8531 24.3949 73.306 24.6469Z" fill="#231815"/>
<path d="M198.063 28.4421C197.038 28.123 195.997 27.8543 194.997 27.4679C193.528 26.9052 192.083 26.2838 190.647 25.6455C188.59 24.7385 186.767 23.5207 185.801 21.3875C185.6 20.9508 185.516 20.4385 185.482 19.9514C185.339 17.6587 185.348 15.3491 185.054 13.0732C184.886 11.763 185.339 10.7888 185.961 9.80622C186.901 8.31971 187.976 8.23573 189.203 9.53747C189.513 9.86501 189.765 10.2429 190 10.6293C190.37 11.2255 190.874 11.4859 191.579 11.4775C192.755 11.4607 193.922 11.5111 195.098 11.5195C196.543 11.5279 197.685 12.3593 197.895 13.5687C198.08 14.6101 197.71 15.3491 196.677 15.6599C195.653 15.9706 194.578 16.1218 193.519 16.3485C192.512 16.5585 191.453 16.6425 190.513 17.012C189.337 17.4739 189.219 18.3221 190.118 19.2292C190.689 19.8003 191.327 20.3293 192.016 20.7409C193.519 21.6395 195.006 22.4541 196.921 22.3701C198.651 22.2946 200.406 22.6893 202.153 22.9076C202.548 22.958 202.942 23.1176 203.287 23.3192C204.37 23.9238 204.513 24.9988 203.639 25.9058C202.136 27.4763 200.33 28.3666 198.063 28.4421Z" fill="#231815"/>
<path d="M179.603 7.7998C180.745 7.93418 181.72 8.36249 182.282 9.40389C182.845 10.4537 182.433 11.4027 181.829 12.3013C181.778 12.3769 181.72 12.4609 181.644 12.4945C179.326 13.6618 179.62 15.9294 179.536 17.9114C179.402 21.1868 179.502 24.4621 179.914 27.7291C180.032 28.6445 179.838 29.6187 179.645 30.5341C179.553 30.9792 179.175 31.4076 178.831 31.7351C178.26 32.281 177.655 32.2138 177.033 31.6847C176.429 31.1808 176.21 30.5173 176.168 29.7783C176.009 26.7213 175.883 23.6643 175.69 20.6157C175.597 19.23 175.421 17.8442 175.186 16.4837C174.993 15.3583 174.9 15.3835 173.775 15.2575C173.204 15.1903 172.616 15.0728 172.087 14.846C171.029 14.3925 170.357 13.3007 170.474 12.2677C170.609 11.092 171.003 10.1261 172.347 9.76502C173.993 9.3283 175.597 8.70683 177.235 8.22812C178.008 8.00137 178.822 7.93418 179.603 7.7998Z" fill="#231815"/>
<path d="M222.452 7.49641C223.687 7.40403 224.737 7.73156 225.703 8.69737C226.534 9.52881 226.349 11.0237 225.358 11.4268C223.41 12.2079 221.377 12.611 219.295 12.0231C218.337 11.7544 217.884 10.9313 217.951 9.91513C218.018 8.92413 218.875 7.92472 219.866 7.71477C220.344 7.61399 220.84 7.5468 221.335 7.49641C221.697 7.47121 222.058 7.49641 222.452 7.49641Z" fill="#231815"/>
</svg>
