<svg width="24" height="19" viewBox="0 0 24 19" fill="none" xmlns="http://www.w3.org/2000/svg">
<path d="M7.84375 18.5312C7.32292 18.5312 6.88 18.3492 6.515 17.985C6.15083 17.62 5.96875 17.1771 5.96875 16.6562V13.5312H9.5625V10.0938C8.79167 10.1562 8.03667 10.0625 7.2975 9.8125C6.5575 9.5625 5.91667 9.16667 5.375 8.625V7.0625H3.78125L0 3.28125C0.729167 2.46875 1.59917 1.88542 2.61 1.53125C3.62 1.17708 4.64583 1 5.6875 1C6.375 1 7.04167 1.07792 7.6875 1.23375C8.33333 1.39042 8.95833 1.64583 9.5625 2V0H23.3125V15.4062C23.3125 16.2812 23.0104 17.0208 22.4062 17.625C21.8021 18.2292 21.0625 18.5312 20.1875 18.5312H7.84375ZM11.4375 13.5312H18.9375V15.4062C18.9375 15.7604 19.0575 16.0571 19.2975 16.2962C19.5367 16.5362 19.8333 16.6562 20.1875 16.6562C20.5417 16.6562 20.8383 16.5362 21.0775 16.2962C21.3175 16.0571 21.4375 15.7604 21.4375 15.4062V1.875H11.4375V3.25L18.625 10.4375V11.75H17.3125L13.625 8.0625L13.1562 8.53125C12.8854 8.80208 12.6096 9.03667 12.3287 9.235C12.0471 9.4325 11.75 9.59375 11.4375 9.71875V13.5312ZM4.5625 5.1875H7.25V7.75C7.58333 7.95833 7.91167 8.10417 8.235 8.1875C8.5575 8.27083 8.875 8.3125 9.1875 8.3125C9.70833 8.3125 10.1825 8.22375 10.61 8.04625C11.0367 7.86958 11.4479 7.59375 11.8437 7.21875L12.3125 6.75L10.3437 4.78125C9.69791 4.13542 8.98417 3.65625 8.2025 3.34375C7.42167 3.03125 6.58333 2.875 5.6875 2.875C5.16667 2.875 4.67208 2.92708 4.20375 3.03125C3.73458 3.13542 3.29167 3.28125 2.875 3.46875L4.5625 5.1875ZM7.84375 16.6562H17.3437C17.2396 16.4896 17.1667 16.2971 17.125 16.0788C17.0833 15.8596 17.0625 15.6354 17.0625 15.4062H7.84375V16.6562Z" fill="white"/>
</svg>
