<svg width="125" height="43" viewBox="0 0 125 43" fill="none" xmlns="http://www.w3.org/2000/svg">
<path d="M99.5166 10.7438C99.5166 11.0961 99.5679 11.4613 99.7088 11.8072C100.33 13.3446 101.912 14.2927 103.924 13.492C104.404 13.2998 117.71 7.93797 117.71 7.93797C117.71 7.93797 112.47 21.224 112.271 21.7172C111.509 23.6198 112.425 25.343 113.981 25.9196C114.327 26.0477 114.686 26.1053 115.038 26.1053C116.313 26.0989 117.434 25.3494 117.985 23.8504C118.068 23.6262 124.622 5.63182 124.763 5.20262C124.846 4.94638 125 4.34422 125 3.92783C125.006 3.0374 124.673 2.19821 124.039 1.56402C123.405 0.936236 122.578 0.609531 121.701 0.615937C121.271 0.615937 120.925 0.692809 120.4 0.859365C120.086 0.96186 103.194 7.24613 101.752 7.78423C100.311 8.32233 99.5102 9.469 99.5166 10.7438Z" fill="#ED1C24"/>
<path d="M67.8649 20.8909V20.5066H57.6217V23.1266H63.5729C62.0226 28.0336 56.4814 30.9163 56.4814 30.9163L57.9612 32.9854C57.9612 32.9854 67.8649 28.8984 67.8649 20.8909Z" fill="white"/>
<path d="M64.6297 38.2831V33.1968H60.9976V38.9365C60.9976 40.7302 62.4261 42.0242 64.3863 42.0242H75.6416V39.4106H65.9045C65.0205 39.4106 64.649 39.0583 64.6297 38.2831Z" fill="white"/>
<path d="M67.4551 25.3303V27.9568H71.7727V34.2666H75.4049V20.2247H71.7727V25.3303H67.4551Z" fill="white"/>
<path d="M98.7547 30.7561H102.387V20.1222H98.7547V23.4341H94.9624V26.0221H98.7547V30.7561Z" fill="white"/>
<path d="M17.2831 32.9983H3.45264V38.9366C3.45264 40.7303 4.88117 42.0243 6.8414 42.0243H18.0839V33.8054C18.0839 33.357 17.7252 32.9983 17.2831 32.9983ZM14.4581 39.4043H8.35962C7.47559 39.4107 7.09764 39.0583 7.08483 38.2832V35.6183H14.4581V39.4043Z" fill="white"/>
<path d="M18.3339 20.5386V20.4169H3.26064V23.0369H14.5352C14.5352 23.2099 14.5352 23.4277 14.5352 23.6391C14.5352 26.0734 14.4135 27.6748 14.3494 28.3283H0V30.9483H22.107V28.3283H17.5844C17.7958 27.5019 18.3339 24.9715 18.3339 20.5386Z" fill="white"/>
<path d="M40.9023 34.3114C43.9195 33.6516 46.1488 31.3903 46.1488 28.7126C46.1488 27.2713 45.5018 25.9516 44.4384 24.9331H48.2948V22.313H40.9023V19.8403H37.2765V22.313H29.884V24.9331H33.7404C32.677 25.9516 32.03 27.2649 32.03 28.7126C32.03 31.3967 34.2593 33.6516 37.2829 34.3114V36.9635H28.0391V39.5836H50.1397V36.9635H40.9023V34.3114ZM35.7647 28.6293C35.7647 26.8421 37.2573 25.3815 39.0894 25.3815C40.9215 25.3815 42.4141 26.8357 42.4141 28.6293C42.4141 30.423 40.9215 31.8772 39.0894 31.8772C37.2573 31.8772 35.7647 30.423 35.7647 28.6293Z" fill="white"/>
<path d="M91.8103 30.5256H95.3272C95.1798 29.6736 93.8922 22.7935 90.5419 20.4105H86.4869L83.3672 30.6088H87.0122L89.0877 23.2676C90.843 25.3175 91.695 29.8593 91.8103 30.5256Z" fill="white"/>
<path d="M92.5346 39.5003C91.6121 39.5003 91.4456 39.2633 91.4456 38.4817V38.155H102.393V32.6459C102.393 32.1718 102.047 31.8003 101.554 31.8003H87.8774V34.3243H98.9149V35.6759H87.9671V38.9366C87.9671 40.8263 89.3252 42.0242 91.3559 42.0242H102.624V39.5003H92.5346Z" fill="white"/>
</svg>
