<svg width="95" height="24" viewBox="0 0 95 24" fill="none" xmlns="http://www.w3.org/2000/svg">
<path d="M81.9447 23.4361C81.7041 23.4842 81.4635 23.5724 81.2228 23.5724C80.6534 23.5644 80.092 23.5002 79.5225 23.4842C78.7526 23.4601 77.9746 22.7223 77.9907 21.9683C78.0067 21.3829 78.0709 20.8054 78.0869 20.2199C78.1029 19.5703 77.9265 19.3056 77.2849 19.2575C76.8037 19.2254 76.2904 19.3136 75.8172 19.4259C75.0472 19.6184 75.1996 20.3162 75.4402 20.9979C75.745 21.8641 76.539 22.2571 77.1646 22.8185C77.2929 22.9388 77.3731 23.1072 77.4774 23.2596C77.3089 23.3719 77.1405 23.5724 76.9721 23.5724C76.17 23.5724 75.36 23.5804 74.574 23.4521C74.2372 23.396 73.9484 23.019 73.6436 22.7784C73.01 22.2491 72.4246 21.6395 71.7268 21.2144C71.414 21.0219 70.8606 21.1262 70.4435 21.2064C70.0746 21.2786 69.8661 21.5914 69.8982 21.9924C69.9302 22.3694 69.9543 22.7463 70.4676 22.8265C70.5959 22.8506 70.6842 23.0751 70.7964 23.2035C70.6441 23.2676 70.4997 23.3559 70.3473 23.3879C70.1388 23.4361 69.9222 23.4681 69.7137 23.4681C69.2084 23.4681 68.7031 23.4521 68.1979 23.4441C68.0856 23.4441 67.9813 23.42 67.869 23.4361C67.2916 23.4842 67.0189 23.2275 67.075 22.7784C67.1552 22.1448 67.2595 21.5112 67.4119 20.8856C67.5643 20.268 67.9011 19.6665 67.9332 19.0489C67.9733 18.4474 67.7728 17.8138 67.6124 17.2123C67.4279 16.5306 67.0911 15.8889 66.9467 15.2072C66.7301 14.2207 66.682 13.2262 67.3718 12.344C67.6846 11.943 67.861 11.4377 68.1979 11.0687C68.8796 10.3309 69.449 9.53686 70.5237 9.15188C71.3418 8.86315 72.1519 8.79097 72.9619 8.62254C73.01 8.61452 73.0662 8.6065 73.1143 8.62254C73.9645 8.95138 74.8547 8.99148 75.753 9.06366C76.1781 9.09574 76.6031 9.19198 77.0362 9.21605C77.8062 9.26417 78.5761 9.34437 79.3381 9.31229C80.4288 9.26417 81.5276 9.16792 82.6104 9.01554C83.653 8.86315 84.6555 8.93533 85.6741 9.1599C86.4441 9.32833 87.2461 9.54488 88.0161 9.49676C88.8983 9.44061 89.7083 9.53686 90.4462 9.95391C91.93 10.796 93.4217 11.6141 94.7531 12.6969C95.098 12.9776 95.098 13.4347 94.6489 13.6673C94.0152 14.0042 93.3335 14.2448 92.6518 14.4774C91.6573 14.8222 90.6066 15.0228 89.6602 15.4639C88.6416 15.9371 87.7273 16.6509 86.7408 17.2043C86.2195 17.501 85.7383 17.7978 85.4175 18.3271C85.1688 18.7362 85.1047 19.081 85.3533 19.5221C85.6019 19.9633 85.8265 20.4445 85.9468 20.9337C86.1233 21.6395 86.6205 22.0004 87.19 22.3373C87.4626 22.4977 87.7434 22.626 88.008 22.8025C88.1364 22.8907 88.2887 23.0511 88.2807 23.1634C88.2727 23.2837 88.0963 23.4762 87.9679 23.4922C87.5589 23.5564 87.1499 23.5564 86.7328 23.5644C86.5323 23.5644 86.3318 23.4842 86.1393 23.5002C85.1849 23.6045 84.5352 23.1473 83.8856 22.5057C83.3161 21.9363 82.6104 21.5112 81.9447 21.054C81.7843 20.9417 81.5276 20.8776 81.3512 20.9177C81.0063 20.9979 80.5491 20.9899 80.509 21.5192C80.4689 22.0405 80.7817 22.4736 81.287 22.7062C81.5437 22.8265 81.7522 23.0591 81.9848 23.2356C81.9768 23.2917 81.9607 23.3639 81.9447 23.4361Z" fill="white" fill-opacity="0.5"/>
<path d="M4.77316 2.96808C5.43082 2.60717 6.00026 2.4227 6.24889 1.84524C6.64189 0.922903 7.4359 0.561989 8.31813 0.33742C8.57478 0.273258 8.87154 0.409603 9.15225 0.417623C10.4435 0.457725 11.7428 0.634172 12.7373 1.46828C13.6516 2.23823 14.566 3.03225 15.0712 4.21925C15.5605 5.35814 15.785 6.47296 15.6888 7.71611C15.6006 8.83093 15.3519 9.84149 14.8386 10.836C14.4457 11.5979 14.4136 12.3839 14.975 13.21C15.376 13.8035 15.4562 14.6296 15.6567 15.3514C15.9775 16.5545 15.6647 17.7335 15.4482 18.9125C15.4322 18.9927 15.3921 19.0729 15.352 19.137C14.9108 19.8669 14.5579 20.685 13.9885 21.3025C13.3549 21.9923 12.5689 22.5617 11.6305 22.8825C10.4836 23.2755 9.31265 23.452 8.12565 23.476C5.84788 23.5161 3.57813 23.4921 1.30036 23.484C1.12391 23.484 0.939446 23.4439 0.762999 23.4199C0.249699 23.3397 0.0652316 23.067 0.0652316 22.5216C0.0812723 15.5921 0.0812724 8.6625 0.0732521 1.74097C0.0732521 1.46026 0.0331504 1.17955 0.00106919 0.898843C-0.0229918 0.537928 0.361983 0.136913 0.859243 0.120872C1.47681 0.104831 2.09437 0.193054 2.71193 0.193054C3.05681 0.193054 3.4097 0.152953 3.74656 0.0887907C4.46036 -0.0475546 4.85336 0.377522 4.76514 1.10737C4.69295 1.67681 4.76514 2.25428 4.77316 2.96808ZM7.41986 13.8196C7.41986 13.8356 7.41986 13.8516 7.41986 13.8677C6.94666 13.8677 6.47346 13.8677 6.00026 13.8677C5.19021 13.8677 4.8694 14.1083 4.75711 14.8863C4.70899 15.2472 4.77316 15.6241 4.7892 15.9851C4.80524 16.2497 4.83732 16.5144 4.8293 16.7791C4.82128 17.0919 4.73305 17.4046 4.74909 17.7174C4.78118 18.6237 5.17417 19.137 5.92808 19.137C7.16321 19.137 8.41438 19.1691 9.61742 18.9686C10.1628 18.8724 10.7884 18.335 11.0691 17.8297C11.3498 17.3244 11.3097 16.6026 11.3097 15.977C11.3097 14.9825 10.4916 14.0842 9.52118 13.9639C8.82341 13.8917 8.11763 13.8677 7.41986 13.8196ZM7.21935 4.78067C7.21935 4.80473 7.21133 4.83682 7.21133 4.86088C6.75417 4.86088 6.30504 4.86088 5.84788 4.86088C5.22229 4.8689 4.84534 5.22981 4.84534 5.84738C4.83732 6.68951 4.84534 7.53966 4.84534 8.38179C4.84534 9.16779 5.13407 9.44047 5.94412 9.41641C6.93062 9.38433 7.92514 9.33621 8.91164 9.32017C10.0826 9.30413 10.9087 8.68657 11.1894 7.57174C11.4942 6.38474 10.8846 5.30199 9.69763 5.0694C8.87956 4.909 8.04544 4.8689 7.21935 4.78067Z" fill="white" fill-opacity="0.5"/>
<path d="M49.0533 12.2957C49.0533 9.03944 49.0533 5.7832 49.0533 2.53497C49.0533 1.94147 49.0533 1.34796 49.0533 0.754459C49.0533 0.321362 49.4543 -0.0154907 49.8794 0.00054989C50.8338 0.0406515 51.7882 0.0807529 52.7427 0.0967935C53.5206 0.112834 53.8174 0.50583 53.6409 1.25974C53.5687 1.58055 53.5126 1.9174 53.5206 2.24624C53.5286 2.43872 53.6409 2.75152 53.7693 2.7836C53.9457 2.83172 54.2344 2.73548 54.3868 2.59913C54.844 2.1901 55.2691 1.74898 55.6941 1.30786C56.5122 0.457707 57.5388 0.345423 58.6296 0.441667C59.0065 0.473748 59.4236 0.433647 59.7684 0.569992C61.0597 1.05923 62.343 1.6768 63.1691 2.79162C63.8347 3.68187 64.3801 4.67639 64.5566 5.85538C64.8212 7.58777 64.5806 9.18381 63.7385 10.7157C63.3214 11.4696 62.8242 12.1273 62.1505 12.6646C61.7334 12.9935 61.7334 13.3624 62.0703 13.8837C62.8883 15.1349 63.4257 16.4903 63.5059 17.9901C63.5941 19.6984 64.1235 21.2063 65.2223 22.5296C65.3666 22.7061 65.4709 23.1392 65.3746 23.2354C65.1741 23.4279 64.8293 23.5562 64.5486 23.5642C63.6904 23.5803 62.8402 23.5001 61.9821 23.492C61.3244 23.484 60.771 23.3477 60.4742 22.674C60.1374 21.9281 59.6562 21.2223 59.4476 20.4443C59.2471 19.6984 59.3434 18.8884 59.2551 18.1104C59.1108 16.8352 58.5895 15.7524 57.7152 14.782C56.7528 13.7073 55.5417 13.7634 54.3146 13.8035C54.0981 13.8115 53.7532 14.1083 53.7131 14.3168C53.5768 14.9985 53.5206 15.6963 53.5046 16.386C53.4885 17.0197 53.5848 17.6533 53.5928 18.2869C53.6088 19.5862 53.6008 20.8854 53.5928 22.1847C53.5928 22.4334 53.5206 22.674 53.4966 22.9226C53.4645 23.3316 53.1838 23.468 52.8469 23.476C51.8364 23.5001 50.8258 23.492 49.8152 23.476C49.2939 23.468 49.0453 23.1311 49.0453 22.4735C49.0453 20.7331 49.0453 19.0007 49.0453 17.2603C49.0533 15.6001 49.0533 13.9479 49.0533 12.2957ZM55.63 5.16563C55.2289 5.16563 54.8119 5.11751 54.4189 5.18167C54.1623 5.22979 53.8094 5.39822 53.7211 5.60675C53.5607 5.96766 53.5367 6.40076 53.5126 6.80979C53.4805 7.3632 53.5367 7.92462 53.4966 8.47802C53.4645 8.91914 53.7532 9.40838 54.1703 9.40838C55.5498 9.4164 56.9373 9.44046 58.3168 9.40036C59.3835 9.36827 59.7684 9.05548 60.0652 8.02888C60.1534 7.71609 60.1695 7.37924 60.1695 7.0504C60.1855 6.05589 59.2712 5.15761 58.2686 5.15761C57.3944 5.16563 56.5122 5.16563 55.63 5.16563Z" fill="white" fill-opacity="0.5"/>
<path d="M31.7534 18.6719C31.7534 17.3245 31.7534 15.9771 31.7534 14.6297C31.7534 10.0421 31.7534 5.45446 31.7534 0.866838C31.7534 0.321457 31.9539 0.112928 32.4993 0.112928C33.3735 0.104908 34.2557 0.112928 35.1299 0.112928C35.3144 0.112928 35.5149 0.128969 35.6753 0.0728267C36.1004 -0.0875796 36.6057 0.393639 36.6057 0.882878C36.6057 3.27293 36.6057 5.67101 36.6057 8.06106C36.6057 8.23751 36.5174 8.42197 36.5495 8.58238C36.7019 9.38441 37.143 9.58492 38.1375 9.42451C38.5546 9.35233 38.9877 9.41649 39.4128 9.40847C40.3993 9.38441 41.3858 9.39243 42.3642 9.29619C42.8214 9.24806 43.0059 8.86309 42.9176 8.36583C42.8695 8.1172 42.9738 7.84451 42.9738 7.58786C42.9818 5.4304 42.9738 3.27293 42.9738 1.11547C42.9738 0.313436 43.4069 0.0166843 44.2169 0.0968874C45.027 0.16907 45.8451 0.112928 46.6631 0.120948C47.5373 0.120948 47.7298 0.353537 47.6416 1.20369C47.6095 1.53252 47.7058 1.86938 47.7058 2.19821C47.7058 2.57516 47.6336 2.96014 47.6336 3.33709C47.6256 8.87913 47.6336 14.4292 47.6336 19.9712C47.6336 20.8855 47.6416 21.7999 47.6336 22.7142C47.6256 23.3558 47.2165 23.6044 46.5829 23.5322C45.813 23.452 45.035 23.4921 44.2651 23.4921C43.1182 23.4841 42.9016 23.2997 42.8856 22.1447C42.8775 21.6475 42.9577 21.1502 42.9738 20.6529C42.9898 20.1156 42.9818 19.5702 42.9818 19.0248C42.9818 17.7576 42.9818 16.4984 42.9818 15.2312C42.9818 13.8998 42.6209 13.9239 41.5702 13.8116C40.6639 13.7074 39.7256 13.8678 38.8032 13.8758C38.338 13.8838 37.8729 13.8277 37.4077 13.7795C36.9906 13.7314 36.7661 13.98 36.6618 14.3089C36.5575 14.6377 36.5094 14.9906 36.5174 15.3355C36.5335 16.4262 36.5976 17.517 36.6057 18.5997C36.6057 19.5862 36.5415 20.5727 36.5174 21.5592C36.5094 21.9843 36.5656 22.4174 36.5014 22.8265C36.3971 23.4921 36.2127 23.5403 35.5309 23.5082C34.6166 23.4601 33.7023 23.4681 32.788 23.5002C31.9058 23.5322 31.7133 23.3638 31.7453 22.4335C31.7774 21.1662 31.7534 19.9231 31.7534 18.6719Z" fill="white" fill-opacity="0.5"/>
<path d="M17.0844 11.638C17.0844 8.02882 17.0844 4.41968 17.0844 0.81856C17.0844 0.176935 17.4453 0.000488426 18.0789 0.0806916C18.8569 0.176935 19.6669 0.152874 20.4529 0.0806916C21.263 0.00850874 21.6479 0.401504 21.5196 1.19552C21.4474 1.65267 21.5276 2.14191 21.5838 2.61511C21.5998 2.73541 21.8083 2.9279 21.9046 2.91988C22.0971 2.89582 22.3136 2.78354 22.4419 2.63917C23.0595 1.93338 23.6209 1.17947 24.2706 0.497748C24.4791 0.273179 24.8801 0.128814 25.2009 0.120793C26.7007 0.0806917 28.2005 0.0967323 29.7003 0.104753C30.3099 0.104753 30.5104 0.441606 30.4783 1.06719C30.4462 1.84516 30.5264 2.63115 30.5344 3.41714C30.5344 3.74597 30.5104 4.08283 30.4302 4.40364C30.3339 4.79664 29.9971 4.8608 29.6362 4.85278C27.3263 4.85278 25.0165 4.8608 22.7066 4.84476C21.8244 4.84476 21.6479 5.02922 21.5757 5.74303C21.4795 6.66537 21.4955 7.60375 21.5757 8.52608C21.6319 9.19979 21.9607 9.4003 22.6665 9.4003C24.4871 9.4003 26.3077 9.4003 28.1283 9.4003C28.8261 9.4003 29.0106 9.6008 29.0266 10.2825C29.0507 11.1487 29.0908 12.0229 29.1229 12.8891C29.1469 13.5067 28.6096 13.9398 28.008 13.7954C27.8637 13.7633 27.7113 13.7473 27.5589 13.7473C26.5323 13.7794 25.5137 13.8195 24.4871 13.8435C23.8776 13.8596 23.268 13.8195 22.6585 13.8516C21.8484 13.8997 21.5356 14.2526 21.5356 15.0466C21.5356 15.9368 21.5276 16.8351 21.5437 17.7254C21.5517 18.0542 21.5838 18.3911 21.656 18.7119C21.7522 19.1209 22.073 19.2091 22.466 19.2091C24.7438 19.2011 27.0135 19.2091 29.2913 19.2011C30.3019 19.2011 30.5665 19.4979 30.5425 20.4683C30.5264 21.142 30.5425 21.8157 30.5344 22.4894C30.5264 23.1952 30.2617 23.4519 29.564 23.4519C25.6661 23.4519 21.7682 23.4519 17.8784 23.4519C17.2769 23.4519 17.0844 23.2594 17.0844 22.6418C17.0764 18.9926 17.0844 15.3113 17.0844 11.638Z" fill="white" fill-opacity="0.5"/>
</svg>
