<svg width="19" height="19" viewBox="0 0 19 19" fill="none" xmlns="http://www.w3.org/2000/svg">
<path d="M16.6869 5.71787C16.514 5.04217 16.006 4.50913 15.361 4.32888C14.1908 4 9.50041 4 9.50041 4C9.50041 4 4.80919 4 3.63985 4.32888C2.99484 4.50913 2.486 5.04217 2.31313 5.71787C2 6.9437 2 9.50043 2 9.50043C2 9.50043 2 12.0572 2.31313 13.283C2.486 13.9595 2.99402 14.4917 3.63985 14.672C4.81 15 9.50041 15 9.50041 15C9.50041 15 14.1908 15 15.361 14.672C16.006 14.4909 16.5148 13.9587 16.6869 13.283C17 12.0572 17 9.50043 17 9.50043C17 9.50043 17 6.9437 16.6869 5.71787ZM8 11.8573V7.14274L11.897 9.50043L8 11.8573Z" fill="#222222"/>
</svg>
