<svg width="169" height="38" viewBox="0 0 169 38" fill="none" xmlns="http://www.w3.org/2000/svg">
<path d="M15.3266 20.4305L13.9433 5.15912C11.4327 6.03059 9.62751 8.41674 9.62751 11.2248C9.62751 11.9026 9.73818 12.5528 9.93184 13.1683C8.88054 12.4144 7.59409 11.9718 6.20389 11.9718C4.03214 11.9718 2.1163 13.0507 0.954346 14.6968L15.3266 20.4305Z" fill="#00AE4D"/>
<path d="M14.9256 21.8483L0 18.3486C0.034582 21.0045 1.7291 23.4668 4.39883 24.3521C5.04206 24.5665 5.69912 24.6633 6.34234 24.6771C5.29796 25.4379 4.47491 26.5169 4.03226 27.8379C3.34754 29.899 3.76944 32.0569 4.96598 33.6754L14.9256 21.8483Z" fill="#00AE4D"/>
<path d="M16.1637 22.5607L8.28589 35.7157C10.8311 36.4904 13.6876 35.6258 15.3475 33.3572C15.7487 32.8108 16.0392 32.216 16.2467 31.6074C16.6547 32.8316 17.4294 33.952 18.5567 34.7682C20.3066 36.0477 22.4922 36.3036 24.4011 35.6604L16.1637 22.5607Z" fill="#00AE4D"/>
<path d="M16.8484 20.4305L30.9578 14.4201C29.3532 12.2968 26.5314 11.3147 23.8616 12.1792C23.2184 12.3867 22.6305 12.691 22.1049 13.0714C22.4991 11.8403 22.5268 10.4778 22.0979 9.15676C21.434 7.09567 19.8155 5.60173 17.8928 5L16.8484 20.4305Z" fill="#00AE4D"/>
<path d="M17.2703 21.7377L27.3544 33.2881C28.876 31.1094 28.9313 28.1146 27.2852 25.8461C26.8841 25.2997 26.4137 24.8363 25.895 24.4489C27.1884 24.442 28.4887 24.0409 29.616 23.2247C31.3728 21.9521 32.2927 19.9533 32.265 17.9406L17.2703 21.7377Z" fill="#00AE4D"/>
<path d="M46.762 5.934V22.602H49.03V5.934H46.762ZM44.53 12.342V14.268H47.302V12.342H44.53ZM43.036 6.222V21.81H45.25V6.222H43.036ZM35.188 16.878V18.84H36.358C38.5 18.84 40.264 18.786 42.28 18.39L42.1 16.446C40.12 16.806 38.41 16.878 36.358 16.878H35.188ZM35.188 7.86V17.814H37.564V9.786H41.344V7.86H35.188ZM60.2066 10.236V12.162H64.0946V10.236H60.2066ZM62.8346 5.952V18.102H65.2286V5.952H62.8346ZM54.2306 20.406V22.314H65.6066V20.406H54.2306ZM54.2306 17.076V21.54H56.6246V17.076H54.2306ZM55.1306 8.13V9.174C55.1306 11.28 53.9426 13.458 51.1886 14.358L52.3946 16.266C55.5986 15.204 57.0746 12.306 57.0746 9.174V8.13H55.1306ZM55.6346 8.13V9.174C55.6346 12.144 57.0566 14.916 60.1526 15.942L61.3226 14.07C58.6946 13.188 57.5606 11.118 57.5606 9.174V8.13H55.6346ZM51.8366 7.068V8.958H60.8006V7.068H51.8366ZM67.8552 13.764V15.672H82.9392V13.764H67.8552ZM74.2092 11.262V14.502H76.5852V11.262H74.2092ZM69.6732 10.506V12.396H81.2292V10.506H69.6732ZM69.6732 6.654V11.712H72.0492V8.526H81.1392V6.654H69.6732ZM75.3432 16.5C71.7432 16.5 69.5472 17.598 69.5472 19.56C69.5472 21.522 71.7432 22.62 75.3432 22.62C78.9432 22.62 81.1212 21.522 81.1212 19.56C81.1212 17.598 78.9432 16.5 75.3432 16.5ZM75.3432 18.3C77.5752 18.3 78.7092 18.714 78.7092 19.56C78.7092 20.424 77.5752 20.802 75.3432 20.802C73.1112 20.802 71.9772 20.424 71.9772 19.56C71.9772 18.714 73.1112 18.3 75.3432 18.3ZM90.7138 13.944V16.266H93.1078V13.944H90.7138ZM84.3958 12.54V14.412H99.4618V12.54H84.3958ZM86.2498 6.42V11.658H97.5538V6.42H86.2498ZM95.1958 8.274V9.822H88.6078V8.274H95.1958ZM86.1238 15.456V17.238H95.2858V18.084H86.1418V21.216H88.4998V19.74H97.6438V15.456H86.1238ZM86.1418 20.694V22.494H98.0758V20.694H86.1418ZM100.972 18.732V20.676H116.056V18.732H100.972ZM107.29 15.168V19.2H109.684V15.168H107.29ZM102.556 6.996V15.672H114.418V6.996H112.042V9.552H104.932V6.996H102.556ZM104.932 11.424H112.042V13.764H104.932V11.424ZM118.161 8.004V9.912H131.913V8.004H118.161ZM117.531 19.002V20.928H132.615V19.002H117.531ZM123.849 16.806V19.758H126.225V16.806H123.849ZM125.019 10.632C121.545 10.632 119.367 11.838 119.367 13.89C119.367 15.942 121.545 17.148 125.019 17.148C128.493 17.148 130.671 15.942 130.671 13.89C130.671 11.838 128.493 10.632 125.019 10.632ZM125.019 12.486C127.107 12.486 128.223 12.936 128.223 13.89C128.223 14.844 127.107 15.276 125.019 15.276C122.931 15.276 121.815 14.844 121.815 13.89C121.815 12.936 122.931 12.486 125.019 12.486ZM123.849 6.114V9.192H126.225V6.114H123.849ZM140.696 9.732V11.658H143.342V9.732H140.696ZM146.006 5.934V18.408H148.274V5.934H146.006ZM142.676 6.204V17.904H144.926V6.204H142.676ZM137.06 20.406V22.314H148.706V20.406H137.06ZM137.06 16.95V21.612H139.454V16.95H137.06ZM137.006 7.05V9.192C137.006 11.172 136.124 13.332 133.856 14.448L135.152 16.266C137.798 15.024 138.878 12.126 138.878 9.192V7.05H137.006ZM137.492 7.05V9.192C137.492 12.036 138.428 14.7 140.894 15.852L142.208 14.034C140.12 13.026 139.328 11.118 139.328 9.192V7.05H137.492ZM162.24 5.916V22.638H164.616V5.916H162.24ZM159.378 11.784V13.728H162.51V11.784H159.378ZM151.386 16.932V18.876H152.718C155.526 18.876 157.686 18.804 160.098 18.426L159.882 16.518C157.524 16.896 155.472 16.932 152.718 16.932H151.386ZM151.386 7.32V17.544H153.762V9.264H159.108V7.32H151.386ZM153.222 11.964V13.836H158.532V11.964H153.222Z" fill="white"/>
<path d="M35.3144 35H37.3824C39.8134 35 41.1334 33.504 41.1334 30.941C41.1334 28.378 39.8134 26.937 37.3274 26.937H35.3144V35ZM36.3374 34.164V27.773H37.2504C39.1424 27.773 40.0884 28.895 40.0884 30.941C40.0884 32.987 39.1424 34.164 37.2504 34.164H36.3374ZM44.1746 35.154C44.9116 35.154 45.5826 34.769 46.1436 34.296H46.1876L46.2756 35H47.1006V31.337C47.1006 29.852 46.4846 28.884 45.0216 28.884C44.0646 28.884 43.2286 29.302 42.6786 29.654L43.0746 30.358C43.5366 30.039 44.1636 29.709 44.8676 29.709C45.8466 29.709 46.0886 30.446 46.0886 31.216C43.5476 31.502 42.4256 32.151 42.4256 33.449C42.4256 34.527 43.1736 35.154 44.1746 35.154ZM44.4496 34.34C43.8666 34.34 43.4046 34.065 43.4046 33.383C43.4046 32.613 44.0756 32.118 46.0886 31.887V33.548C45.5166 34.065 45.0326 34.34 44.4496 34.34ZM51.4068 35.154C52.2208 35.154 52.8478 34.879 53.3758 34.538L53.0128 33.867C52.5728 34.164 52.0998 34.351 51.5278 34.351C50.3838 34.351 49.6138 33.526 49.5368 32.261H53.5628C53.5958 32.107 53.6068 31.898 53.6068 31.689C53.6068 29.973 52.7488 28.884 51.2308 28.884C49.8558 28.884 48.5468 30.083 48.5468 32.03C48.5468 33.988 49.8118 35.154 51.4068 35.154ZM49.5258 31.535C49.6578 30.358 50.4058 29.687 51.2418 29.687C52.1878 29.687 52.7268 30.336 52.7268 31.535H49.5258ZM54.4617 37.673C55.6387 37.673 56.1007 36.903 56.1007 35.693V29.027H55.0887V35.682C55.0887 36.408 54.9457 36.87 54.3517 36.87C54.1427 36.87 53.9337 36.804 53.7907 36.76L53.5927 37.519C53.7907 37.596 54.0987 37.673 54.4617 37.673ZM55.5837 27.795C55.9687 27.795 56.2547 27.542 56.2547 27.124C56.2547 26.739 55.9687 26.486 55.5837 26.486C55.1987 26.486 54.9237 26.739 54.9237 27.124C54.9237 27.542 55.1987 27.795 55.5837 27.795ZM60.527 35.154C61.341 35.154 61.968 34.879 62.496 34.538L62.133 33.867C61.693 34.164 61.22 34.351 60.648 34.351C59.504 34.351 58.734 33.526 58.657 32.261H62.683C62.716 32.107 62.727 31.898 62.727 31.689C62.727 29.973 61.869 28.884 60.351 28.884C58.976 28.884 57.667 30.083 57.667 32.03C57.667 33.988 58.932 35.154 60.527 35.154ZM58.646 31.535C58.778 30.358 59.526 29.687 60.362 29.687C61.308 29.687 61.847 30.336 61.847 31.535H58.646ZM66.5298 35.154C67.9928 35.154 69.2908 33.999 69.2908 32.03C69.2908 30.028 67.9928 28.884 66.5298 28.884C65.0558 28.884 63.7578 30.028 63.7578 32.03C63.7578 33.999 65.0558 35.154 66.5298 35.154ZM66.5298 34.318C65.4848 34.318 64.7918 33.394 64.7918 32.03C64.7918 30.644 65.4848 29.72 66.5298 29.72C67.5638 29.72 68.2568 30.644 68.2568 32.03C68.2568 33.394 67.5638 34.318 66.5298 34.318ZM70.8797 35H71.8807V30.666C72.4747 30.072 72.9037 29.753 73.5087 29.753C74.3007 29.753 74.6417 30.226 74.6417 31.348V35H75.6537V31.216C75.6537 29.698 75.0817 28.884 73.8277 28.884C73.0027 28.884 72.3867 29.335 71.8257 29.896H71.7927L71.6937 29.027H70.8797V35ZM80.1415 35H81.0655V30.545C81.0655 29.841 80.9885 28.873 80.9335 28.158H80.9775L81.6155 29.995L83.1445 34.197H83.8265L85.3555 29.995L85.9935 28.158H86.0485C85.9935 28.873 85.9165 29.841 85.9165 30.545V35H86.8625V26.937H85.6305L84.1015 31.26C83.9145 31.81 83.7385 32.371 83.5405 32.943H83.4965C83.2985 32.371 83.1115 31.81 82.9135 31.26L81.3625 26.937H80.1415V35ZM91.3893 35.154C92.2033 35.154 92.8303 34.879 93.3583 34.538L92.9953 33.867C92.5553 34.164 92.0823 34.351 91.5103 34.351C90.3663 34.351 89.5963 33.526 89.5193 32.261H93.5453C93.5783 32.107 93.5893 31.898 93.5893 31.689C93.5893 29.973 92.7313 28.884 91.2133 28.884C89.8383 28.884 88.5293 30.083 88.5293 32.03C88.5293 33.988 89.7943 35.154 91.3893 35.154ZM89.5083 31.535C89.6403 30.358 90.3883 29.687 91.2243 29.687C92.1703 29.687 92.7093 30.336 92.7093 31.535H89.5083ZM96.7907 35.154C97.1647 35.154 97.5607 35.044 97.8907 34.923L97.6927 34.175C97.5057 34.252 97.2307 34.34 97.0217 34.34C96.3287 34.34 96.0977 33.911 96.0977 33.185V29.841H97.7147V29.027H96.0977V27.344H95.2507L95.1407 29.027L94.2057 29.093V29.841H95.0967V33.163C95.0967 34.351 95.5147 35.154 96.7907 35.154ZM99.0672 35H100.068V31.172C100.464 30.149 101.08 29.786 101.575 29.786C101.817 29.786 101.949 29.819 102.158 29.885L102.345 29.005C102.147 28.917 101.971 28.884 101.707 28.884C101.036 28.884 100.42 29.357 100.013 30.116H99.9802L99.8812 29.027H99.0672V35ZM105.502 35.154C106.965 35.154 108.263 33.999 108.263 32.03C108.263 30.028 106.965 28.884 105.502 28.884C104.028 28.884 102.73 30.028 102.73 32.03C102.73 33.999 104.028 35.154 105.502 35.154ZM105.502 34.318C104.457 34.318 103.764 33.394 103.764 32.03C103.764 30.644 104.457 29.72 105.502 29.72C106.536 29.72 107.229 30.644 107.229 32.03C107.229 33.394 106.536 34.318 105.502 34.318ZM109.852 37.519H110.853V35.506L110.831 34.461C111.37 34.901 111.931 35.154 112.47 35.154C113.845 35.154 115.066 33.966 115.066 31.931C115.066 30.083 114.241 28.884 112.69 28.884C111.997 28.884 111.337 29.269 110.798 29.72H110.765L110.666 29.027H109.852V37.519ZM112.316 34.307C111.92 34.307 111.392 34.142 110.853 33.691V30.545C111.436 30.006 111.942 29.72 112.448 29.72C113.581 29.72 114.032 30.611 114.032 31.942C114.032 33.416 113.295 34.307 112.316 34.307ZM118.995 35.154C120.458 35.154 121.756 33.999 121.756 32.03C121.756 30.028 120.458 28.884 118.995 28.884C117.521 28.884 116.223 30.028 116.223 32.03C116.223 33.999 117.521 35.154 118.995 35.154ZM118.995 34.318C117.95 34.318 117.257 33.394 117.257 32.03C117.257 30.644 117.95 29.72 118.995 29.72C120.029 29.72 120.722 30.644 120.722 32.03C120.722 33.394 120.029 34.318 118.995 34.318ZM124.401 35.154C124.676 35.154 124.83 35.11 124.973 35.066L124.841 34.296C124.72 34.318 124.676 34.318 124.632 34.318C124.478 34.318 124.346 34.197 124.346 33.878V26.255H123.345V33.812C123.345 34.67 123.642 35.154 124.401 35.154ZM126.47 35H127.471V29.027H126.47V35ZM126.976 27.795C127.361 27.795 127.647 27.542 127.647 27.124C127.647 26.739 127.361 26.486 126.976 26.486C126.58 26.486 126.305 26.739 126.305 27.124C126.305 27.542 126.58 27.795 126.976 27.795ZM131.37 35.154C131.744 35.154 132.14 35.044 132.47 34.923L132.272 34.175C132.085 34.252 131.81 34.34 131.601 34.34C130.908 34.34 130.677 33.911 130.677 33.185V29.841H132.294V29.027H130.677V27.344H129.83L129.72 29.027L128.785 29.093V29.841H129.676V33.163C129.676 34.351 130.094 35.154 131.37 35.154ZM134.72 35.154C135.457 35.154 136.128 34.769 136.689 34.296H136.733L136.821 35H137.646V31.337C137.646 29.852 137.03 28.884 135.567 28.884C134.61 28.884 133.774 29.302 133.224 29.654L133.62 30.358C134.082 30.039 134.709 29.709 135.413 29.709C136.392 29.709 136.634 30.446 136.634 31.216C134.093 31.502 132.971 32.151 132.971 33.449C132.971 34.527 133.719 35.154 134.72 35.154ZM134.995 34.34C134.412 34.34 133.95 34.065 133.95 33.383C133.95 32.613 134.621 32.118 136.634 31.887V33.548C136.062 34.065 135.578 34.34 134.995 34.34ZM139.544 35H140.545V30.666C141.139 30.072 141.568 29.753 142.173 29.753C142.965 29.753 143.306 30.226 143.306 31.348V35H144.318V31.216C144.318 29.698 143.746 28.884 142.492 28.884C141.667 28.884 141.051 29.335 140.49 29.896H140.457L140.358 29.027H139.544V35ZM151.853 35.154C152.898 35.154 153.679 34.736 154.317 33.988L153.767 33.35C153.25 33.922 152.656 34.252 151.897 34.252C150.357 34.252 149.389 32.987 149.389 30.952C149.389 28.939 150.401 27.685 151.93 27.685C152.612 27.685 153.151 27.993 153.569 28.444L154.13 27.784C153.657 27.267 152.898 26.794 151.919 26.794C149.873 26.794 148.344 28.378 148.344 30.974C148.344 33.592 149.84 35.154 151.853 35.154ZM155.732 35H156.733V29.027H155.732V35ZM156.238 27.795C156.623 27.795 156.909 27.542 156.909 27.124C156.909 26.739 156.623 26.486 156.238 26.486C155.842 26.486 155.567 26.739 155.567 27.124C155.567 27.542 155.842 27.795 156.238 27.795ZM160.632 35.154C161.006 35.154 161.402 35.044 161.732 34.923L161.534 34.175C161.347 34.252 161.072 34.34 160.863 34.34C160.17 34.34 159.939 33.911 159.939 33.185V29.841H161.556V29.027H159.939V27.344H159.092L158.982 29.027L158.047 29.093V29.841H158.938V33.163C158.938 34.351 159.356 35.154 160.632 35.154ZM162.996 37.585C164.195 37.585 164.811 36.683 165.229 35.506L167.484 29.027H166.505L165.427 32.349C165.273 32.888 165.097 33.482 164.932 34.032H164.877C164.679 33.482 164.481 32.877 164.294 32.349L163.073 29.027H162.039L164.437 35.011L164.305 35.462C164.052 36.199 163.623 36.749 162.952 36.749C162.787 36.749 162.611 36.705 162.501 36.661L162.303 37.464C162.49 37.541 162.721 37.585 162.996 37.585Z" fill="white"/>
</svg>
