<svg width="146" height="37" viewBox="0 0 146 37" fill="none" xmlns="http://www.w3.org/2000/svg">
<path d="M125.936 36.0173C125.566 36.0913 125.197 36.2269 124.827 36.2269C123.952 36.2146 123.089 36.1159 122.214 36.0913C121.03 36.0543 119.835 34.9203 119.859 33.7617C119.884 32.8619 119.983 31.9744 120.007 31.0746C120.032 30.0762 119.761 29.6695 118.775 29.5955C118.035 29.5462 117.246 29.6818 116.519 29.8544C115.336 30.1502 115.57 31.2225 115.94 32.2702C116.408 33.6014 117.628 34.2054 118.59 35.0682C118.787 35.2531 118.91 35.512 119.071 35.7462C118.812 35.9187 118.553 36.2269 118.294 36.2269C117.061 36.2269 115.816 36.2392 114.609 36.042C114.091 35.9557 113.647 35.3764 113.179 35.0066C112.205 34.1931 111.305 33.2563 110.233 32.603C109.752 32.3072 108.902 32.4675 108.261 32.5907C107.694 32.7017 107.373 33.1824 107.422 33.7987C107.472 34.378 107.509 34.9573 108.298 35.0806C108.495 35.1175 108.63 35.4627 108.803 35.6599C108.569 35.7585 108.347 35.8941 108.113 35.9434C107.792 36.0173 107.459 36.0666 107.139 36.0666C106.362 36.0666 105.586 36.042 104.809 36.0297C104.637 36.0297 104.477 35.9927 104.304 36.0173C103.417 36.0913 102.997 35.6969 103.084 35.0066C103.207 34.0329 103.367 33.0591 103.601 32.0977C103.836 31.1486 104.353 30.2241 104.403 29.275C104.464 28.3506 104.156 27.3768 103.91 26.4524C103.626 25.4047 103.108 24.4186 102.887 23.3709C102.554 21.8548 102.48 20.3264 103.54 18.9705C104.021 18.3542 104.292 17.5777 104.809 17.0107C105.857 15.8767 106.732 14.6565 108.384 14.0648C109.641 13.6211 110.886 13.5101 112.131 13.2513C112.205 13.239 112.291 13.2266 112.365 13.2513C113.672 13.7567 115.04 13.8183 116.42 13.9292C117.074 13.9785 117.727 14.1264 118.393 14.1634C119.576 14.2374 120.759 14.3606 121.93 14.3113C123.606 14.2374 125.295 14.0895 126.959 13.8553C128.562 13.6211 130.102 13.732 131.668 14.0771C132.851 14.336 134.084 14.6688 135.267 14.5948C136.623 14.5085 137.868 14.6565 139.002 15.2974C141.282 16.5916 143.575 17.8489 145.621 19.5129C146.151 19.9443 146.151 20.6469 145.46 21.0043C144.487 21.522 143.439 21.8918 142.391 22.2492C140.863 22.7793 139.248 23.0874 137.794 23.7653C136.228 24.4926 134.823 25.5896 133.307 26.4401C132.506 26.8961 131.766 27.3522 131.273 28.1657C130.891 28.7943 130.793 29.3243 131.175 30.0023C131.557 30.6802 131.902 31.4198 132.087 32.1716C132.358 33.2563 133.122 33.811 133.997 34.3287C134.416 34.5752 134.848 34.7724 135.255 35.0436C135.452 35.1792 135.686 35.4257 135.674 35.5983C135.661 35.7831 135.39 36.079 135.193 36.1036C134.564 36.2022 133.936 36.2022 133.295 36.2146C132.987 36.2146 132.678 36.0913 132.383 36.1159C130.916 36.2762 129.917 35.5736 128.919 34.5875C128.044 33.7124 126.959 33.0591 125.936 32.3565C125.69 32.184 125.295 32.0854 125.024 32.147C124.494 32.2702 123.791 32.2579 123.73 33.0714C123.668 33.8726 124.149 34.5382 124.925 34.8957C125.32 35.0806 125.64 35.438 125.998 35.7092C125.985 35.7955 125.961 35.9064 125.936 36.0173Z" fill="#1D1D1D"/>
<path d="M7.33559 4.56134C8.34632 4.00667 9.22146 3.72317 9.60357 2.8357C10.2075 1.41822 11.4278 0.863547 12.7837 0.518421C13.1781 0.419813 13.6342 0.629354 14.0656 0.64168C16.05 0.70331 18.0468 0.974482 19.5753 2.25638C20.9804 3.43967 22.3856 4.65994 23.1621 6.48418C23.914 8.23447 24.2591 9.94778 24.1112 11.8583C23.9756 13.5716 23.5935 15.1247 22.8047 16.6531C22.2007 17.8241 22.1514 19.032 23.0142 20.3016C23.6305 21.2137 23.7538 22.4833 24.0619 23.5926C24.555 25.4415 24.0742 27.2534 23.7414 29.0653C23.7168 29.1886 23.6552 29.3119 23.5935 29.4105C22.9156 30.5321 22.3733 31.7894 21.4981 32.7385C20.5244 33.7985 19.3164 34.6736 17.8743 35.1667C16.1117 35.7707 14.3121 36.0418 12.4878 36.0788C8.98727 36.1404 5.49902 36.1035 1.99845 36.0911C1.72728 36.0911 1.44378 36.0295 1.17261 35.9925C0.383748 35.8693 0.100251 35.4502 0.100251 34.612C0.124903 23.9624 0.124903 13.3128 0.112577 2.67546C0.112577 2.24405 0.050947 1.81265 0.00164317 1.38124C-0.0353347 0.82657 0.556311 0.210272 1.32052 0.18562C2.26962 0.160968 3.21872 0.296553 4.16782 0.296553C4.69783 0.296553 5.24018 0.234924 5.75787 0.136316C6.85488 -0.0732253 7.45885 0.58005 7.32326 1.70171C7.21233 2.57685 7.32326 3.46432 7.33559 4.56134ZM11.4032 21.2384C11.4032 21.263 11.4032 21.2877 11.4032 21.3123C10.6759 21.3123 9.94869 21.3123 9.22146 21.3123C7.97654 21.3123 7.4835 21.6821 7.31094 22.8777C7.23698 23.4324 7.33559 24.0117 7.36024 24.5664C7.38489 24.9731 7.4342 25.3799 7.42187 25.7866C7.40954 26.2673 7.27396 26.7481 7.29861 27.2288C7.34791 28.6216 7.95189 29.4105 9.11053 29.4105C11.0087 29.4105 12.9316 29.4598 14.7805 29.1516C15.6186 29.0037 16.5801 28.1779 17.0115 27.4013C17.4429 26.6248 17.3812 25.5155 17.3812 24.554C17.3812 23.0256 16.124 21.6451 14.6326 21.4602C13.5602 21.3493 12.4755 21.3123 11.4032 21.2384ZM11.095 7.347C11.095 7.38398 11.0827 7.43328 11.0827 7.47026C10.3801 7.47026 9.68985 7.47026 8.98727 7.47026C8.02584 7.48259 7.44652 8.03726 7.44652 8.98635C7.4342 10.2806 7.44652 11.5871 7.44652 12.8814C7.44652 14.0893 7.89026 14.5084 9.13518 14.4714C10.6513 14.4221 12.1797 14.3481 13.6958 14.3235C15.4954 14.2988 16.7649 13.3497 17.1964 11.6364C17.6647 9.81219 16.728 8.14819 14.9037 7.79074C13.6465 7.54422 12.3646 7.48259 11.095 7.347Z" fill="#1D1D1D"/>
<path d="M75.3872 18.8965C75.3872 13.8922 75.3872 8.88786 75.3872 3.89585C75.3872 2.98373 75.3872 2.07161 75.3872 1.15949C75.3872 0.493883 76.0035 -0.0238068 76.6568 0.000845095C78.1236 0.0624749 79.5904 0.124105 81.0572 0.148756C82.2528 0.173408 82.7089 0.777381 82.4377 1.93602C82.3268 2.42906 82.2405 2.94675 82.2528 3.45211C82.2651 3.74794 82.4377 4.22865 82.6349 4.27795C82.9061 4.35191 83.3498 4.204 83.584 3.99446C84.2866 3.36583 84.9399 2.6879 85.5931 2.00998C86.8504 0.703424 88.4281 0.530861 90.1044 0.678773C90.6838 0.728077 91.3247 0.666447 91.8547 0.875988C93.8392 1.62787 95.8113 2.57697 97.0809 4.29028C98.104 5.65846 98.9421 7.18688 99.2133 8.99879C99.6201 11.6612 99.2503 14.1141 97.9561 16.4683C97.3151 17.627 96.5509 18.6377 95.5155 19.4635C94.8746 19.9689 94.8746 20.5359 95.3923 21.3371C96.6495 23.2599 97.4753 25.343 97.5986 27.648C97.7342 30.2734 98.5477 32.5907 100.236 34.6245C100.458 34.8956 100.618 35.5612 100.471 35.7091C100.162 36.005 99.6324 36.2022 99.201 36.2145C97.8821 36.2392 96.5756 36.1159 95.2567 36.1036C94.2459 36.0912 93.3955 35.8817 92.9394 34.8463C92.4217 33.7 91.6822 32.6153 91.3617 31.4197C91.0535 30.2734 91.2014 29.0285 91.0659 27.8329C90.844 25.873 90.0428 24.209 88.6993 22.7176C87.2202 21.0659 85.3589 21.1522 83.4731 21.2138C83.1403 21.2261 82.6102 21.6822 82.5486 22.0027C82.3391 23.0504 82.2528 24.1227 82.2281 25.1828C82.2035 26.1565 82.3514 27.1303 82.3637 28.104C82.3884 30.1008 82.3761 32.0976 82.3637 34.0944C82.3637 34.4765 82.2528 34.8463 82.2158 35.2284C82.1665 35.8571 81.7351 36.0666 81.2174 36.0789C79.6643 36.1159 78.1113 36.1036 76.5582 36.0789C75.757 36.0666 75.3749 35.5489 75.3749 34.5382C75.3749 31.8634 75.3749 29.201 75.3749 26.5263C75.3872 23.9748 75.3872 21.4357 75.3872 18.8965ZM85.4945 7.93876C84.8782 7.93876 84.2373 7.86481 83.6333 7.96341C83.2389 8.03737 82.6965 8.29621 82.5609 8.61669C82.3144 9.17136 82.2774 9.83696 82.2405 10.4656C82.1912 11.3161 82.2774 12.1789 82.2158 13.0294C82.1665 13.7073 82.6102 14.4592 83.2512 14.4592C85.3713 14.4715 87.5036 14.5085 89.6237 14.4469C91.2631 14.3976 91.8547 13.9168 92.3108 12.3391C92.4464 11.8584 92.471 11.3407 92.471 10.8354C92.4957 9.30694 91.0905 7.92643 89.5498 7.92643C88.2062 7.93876 86.8504 7.93876 85.4945 7.93876Z" fill="#1D1D1D"/>
<path d="M48.8002 28.6957C48.8002 26.6249 48.8002 24.5542 48.8002 22.4834C48.8002 15.433 48.8002 8.38252 48.8002 1.33207C48.8002 0.493907 49.1083 0.173432 49.9465 0.173432C51.29 0.161106 52.6458 0.173432 53.9894 0.173432C54.2729 0.173432 54.581 0.198084 54.8275 0.111802C55.4808 -0.134717 56.2574 0.60484 56.2574 1.35672C56.2574 5.02986 56.2574 8.71532 56.2574 12.3885C56.2574 12.6596 56.1218 12.9431 56.1711 13.1896C56.4053 14.4222 57.0832 14.7304 58.6116 14.4839C59.2526 14.3729 59.9182 14.4715 60.5714 14.4592C62.0875 14.4222 63.6036 14.4346 65.1074 14.2867C65.81 14.2127 66.0935 13.621 65.9579 12.8568C65.8839 12.4747 66.0442 12.0557 66.0442 11.6612C66.0565 8.34554 66.0442 5.02986 66.0442 1.71418C66.0442 0.481581 66.7098 0.0255203 67.9547 0.14878C69.1996 0.259713 70.4569 0.173432 71.7141 0.185758C73.0576 0.185758 73.3535 0.54321 73.2179 1.84976C73.1686 2.35513 73.3165 2.87282 73.3165 3.37818C73.3165 3.9575 73.2055 4.54915 73.2055 5.12847C73.1932 13.6457 73.2055 22.1753 73.2055 30.6925C73.2055 32.0977 73.2179 33.5028 73.2055 34.908C73.1932 35.8941 72.5646 36.2762 71.5908 36.1652C70.4076 36.042 69.2119 36.1036 68.0286 36.1036C66.266 36.0913 65.9332 35.8078 65.9086 34.0328C65.8963 33.2686 66.0195 32.5044 66.0442 31.7402C66.0688 30.9144 66.0565 30.0762 66.0565 29.238C66.0565 27.2905 66.0565 25.3554 66.0565 23.4079C66.0565 21.3617 65.5018 21.3987 63.8871 21.2262C62.4943 21.0659 61.0522 21.3124 59.6347 21.3248C58.9198 21.3371 58.2049 21.2508 57.49 21.1769C56.849 21.1029 56.5039 21.485 56.3436 21.9904C56.1834 22.4957 56.1094 23.0381 56.1218 23.5681C56.1464 25.2444 56.245 26.9208 56.2574 28.5848C56.2574 30.1009 56.1587 31.6169 56.1218 33.133C56.1094 33.7863 56.1957 34.4519 56.0971 35.0805C55.9369 36.1036 55.6534 36.1776 54.6057 36.1283C53.2005 36.0543 51.7954 36.0666 50.3902 36.1159C49.0343 36.1652 48.7385 35.9064 48.7878 34.4766C48.8371 32.5291 48.8002 30.6185 48.8002 28.6957Z" fill="#1D1D1D"/>
<path d="M26.2559 17.8857C26.2559 12.339 26.2559 6.7923 26.2559 1.25795C26.2559 0.271873 26.8106 0.000701785 27.7843 0.123961C28.9799 0.271873 30.2249 0.234895 31.4328 0.123961C32.6777 0.0130277 33.2694 0.617 33.0722 1.83727C32.9612 2.53985 33.0845 3.29173 33.1708 4.01896C33.1954 4.20385 33.5159 4.49968 33.6638 4.48735C33.9596 4.45037 34.2924 4.27781 34.4896 4.05594C35.4387 2.97126 36.3016 1.81262 37.3 0.764911C37.6204 0.419784 38.2367 0.197917 38.7298 0.185591C41.0347 0.123962 43.3397 0.148614 45.6446 0.160939C46.5814 0.160939 46.8896 0.67863 46.8403 1.64005C46.791 2.83567 46.9142 4.04362 46.9265 5.25156C46.9265 5.75692 46.8896 6.27461 46.7663 6.76765C46.6184 7.37162 46.1007 7.47023 45.546 7.45791C41.9961 7.45791 38.4463 7.47023 34.8964 7.44558C33.5405 7.44558 33.2694 7.72908 33.1584 8.82609C33.0105 10.2436 33.0352 11.6857 33.1584 13.1032C33.2447 14.1386 33.7501 14.4467 34.8348 14.4467C37.6328 14.4467 40.4308 14.4467 43.2287 14.4467C44.3011 14.4467 44.5846 14.7549 44.6093 15.8026C44.6462 17.1338 44.7079 18.4773 44.7572 19.8085C44.7941 20.7576 43.9683 21.4232 43.0439 21.2013C42.822 21.152 42.5878 21.1274 42.3536 21.1274C40.7759 21.1767 39.2105 21.2383 37.6328 21.2753C36.696 21.3 35.7592 21.2383 34.8224 21.2876C33.5775 21.3616 33.0968 21.9039 33.0968 23.1242C33.0968 24.4924 33.0845 25.8729 33.1091 27.2411C33.1215 27.7464 33.1708 28.2641 33.2817 28.7572C33.4296 29.3858 33.9226 29.5214 34.5266 29.5214C38.0272 29.509 41.5154 29.5214 45.016 29.509C46.5691 29.509 46.9758 29.9651 46.9389 31.4565C46.9142 32.4919 46.9389 33.5273 46.9265 34.5627C46.9142 35.6474 46.5074 36.0418 45.4351 36.0418C39.4447 36.0418 33.4543 36.0418 27.4762 36.0418C26.5517 36.0418 26.2559 35.746 26.2559 34.7969C26.2436 29.1886 26.2559 23.531 26.2559 17.8857Z" fill="#1D1D1D"/>
</svg>
