<svg width="19" height="19" viewBox="0 0 19 19" fill="none" xmlns="http://www.w3.org/2000/svg">
<path d="M6.39274 2.05108C5.59251 2.08513 5.04767 2.21283 4.57094 2.40011C4.0857 2.59591 3.66856 2.85131 3.25142 3.26844C2.83428 3.68558 2.57889 4.10272 2.3916 4.59648C2.20431 5.07321 2.08513 5.61805 2.04257 6.41827C2.00851 7.2185 2 7.47389 2 9.50851C2.00851 11.5431 2.01703 11.7985 2.05108 12.5988C2.08513 13.399 2.21283 13.9438 2.40011 14.412C2.59591 14.9058 2.85131 15.3229 3.26845 15.7401C3.68558 16.1572 4.10272 16.4126 4.59648 16.5999C5.07321 16.7872 5.61805 16.9064 6.41827 16.9489C7.2185 16.983 7.47389 16.9915 9.50851 16.9915C11.5431 16.983 11.7985 16.983 12.5988 16.9404C13.399 16.9064 13.9438 16.7787 14.4205 16.5914C14.9143 16.3956 15.3314 16.1402 15.7486 15.723C16.1657 15.3059 16.4211 14.8888 16.6084 14.395C16.7957 13.9183 16.9149 13.3734 16.9574 12.5732C16.9915 11.773 17 11.5176 17 9.48297C16.9915 7.44835 16.9915 7.19296 16.9489 6.39274C16.9149 5.59251 16.7872 5.04767 16.5999 4.57094C16.4041 4.07719 16.1487 3.66005 15.7316 3.24291C15.3144 2.82577 14.8973 2.57037 14.4035 2.38309C13.9268 2.1958 13.382 2.07662 12.5817 2.03405C11.773 2.00851 11.5176 2 9.48297 2C7.44835 2.00851 7.19296 2.01703 6.39274 2.05108ZM6.47787 15.5953C5.74574 15.5613 5.35414 15.4421 5.09024 15.34C4.7412 15.2037 4.49432 15.042 4.23042 14.7781C3.96652 14.5142 3.80477 14.2673 3.66856 13.9183C3.5664 13.6544 3.43871 13.2543 3.40465 12.5306C3.3706 11.7389 3.36209 11.5006 3.35358 9.5C3.35358 7.49943 3.35358 7.26107 3.38763 6.46935C3.42168 5.73723 3.54086 5.34563 3.64302 5.08173C3.77923 4.73269 3.94098 4.48581 4.20488 4.22191C4.46879 3.958 4.71566 3.79625 5.0647 3.66005C5.3286 3.55789 5.72872 3.43871 6.45233 3.39614C7.24404 3.36209 7.48241 3.35358 9.47446 3.34506C11.475 3.34506 11.7134 3.34506 12.5051 3.37911C13.2372 3.41317 13.6288 3.53235 13.8927 3.63451C14.2418 3.77072 14.4972 3.93246 14.7526 4.19637C15.0165 4.46027 15.1782 4.70715 15.3144 5.05619C15.4166 5.32009 15.5358 5.7202 15.5783 6.44381C15.6124 7.23553 15.6209 7.47389 15.6294 9.46595C15.6379 11.4665 15.6294 11.7049 15.5953 12.4966C15.5613 13.2287 15.4421 13.6203 15.34 13.8927C15.2037 14.2418 15.042 14.4886 14.7781 14.7526C14.5142 15.0165 14.2673 15.1782 13.9183 15.3144C13.6544 15.4166 13.2543 15.5358 12.5306 15.5783C11.7389 15.6124 11.5006 15.6209 9.5 15.6294C7.50795 15.6379 7.26958 15.6294 6.47787 15.5953ZM12.5902 5.49035C12.5902 5.98411 12.9989 6.38422 13.4926 6.38422C13.9864 6.38422 14.395 5.9756 14.3865 5.48184C14.3865 4.98808 13.9779 4.58797 13.4841 4.58797C12.9904 4.58797 12.5902 4.99659 12.5902 5.49035ZM5.6521 9.5C5.6521 11.6283 7.38025 13.3394 9.50851 13.3394C11.6283 13.3309 13.3479 11.6112 13.3479 9.48297C13.3394 7.36322 11.6198 5.63507 9.49149 5.64359C7.36322 5.6521 5.64359 7.38025 5.6521 9.5ZM6.99716 9.5C6.99716 8.12089 8.11237 7.00568 9.49149 6.99716C10.8706 6.99716 11.9943 8.11237 11.9943 9.49149C11.9943 10.8706 10.8791 11.9943 9.5 11.9943C8.12089 11.9943 7.00568 10.8791 6.99716 9.5Z" fill="#222222"/>
</svg>
