<svg xmlns="http://www.w3.org/2000/svg" width="240" height="48.789" viewBox="0 0 240 48.789">
  <g id="logo_b" transform="translate(-313.003 -628.069)">
    <path id="path178" d="M413.5,672.945a12.5,12.5,0,0,0-5.11-1.443c-1.443,0-2.367.521-2.367,1.325,0,2.437,8.21,1.751,8.21,7.382,0,3.1-2.6,4.9-6.2,4.9a10.939,10.939,0,0,1-5.821-1.562v-3.478c2.319,1.539,3.739,2.082,5.514,2.082,1.537,0,2.367-.543,2.367-1.49,0-2.651-8.212-1.68-8.212-7.477,0-2.792,2.414-4.637,6.153-4.637A13.193,13.193,0,0,1,413.5,669.8v3.146" transform="translate(-36.525 -16.633)"/>
    <path id="path180" d="M435.415,686.46c-.355,0-.568-.214-.568-.757v-4.969c0-2.39-1.869-3.312-4.614-3.312a8.869,8.869,0,0,0-4.732,1.324v2.792a5.955,5.955,0,0,1,4.022-1.822c1.49,0,1.965.8,1.892,1.822-4.565,1.42-6.483,1.941-6.483,4.543a2.911,2.911,0,0,0,3.053,2.674,6.094,6.094,0,0,0,3.6-1.231c.237.876.781,1.231,1.916,1.231a7.152,7.152,0,0,0,3.218-.994v-1.917C435.912,686.413,435.651,686.46,435.415,686.46Zm-4-.567a2.9,2.9,0,0,1-1.892.828,1.137,1.137,0,0,1-1.112-1.159c0-1.088.97-1.563,3-2.3v2.627" transform="translate(-45.996 -20.281)"/>
    <path id="path182" d="M444.205,677.782h3.667l2.318,6.01,2.343-6.01h3.643L451.16,688.9h-1.916l-5.039-11.122" transform="translate(-53.916 -20.429)"/>
    <path id="path184" d="M468.832,683.645h7.832c.166-3.975-2.461-6.222-5.631-6.222a5.5,5.5,0,0,0-5.749,5.7c0,3.406,2.484,5.631,6.318,5.631a7.9,7.9,0,0,0,4.875-1.443v-2.154a6.406,6.406,0,0,1-4.047,1.563C470.275,686.721,468.95,685.586,468.832,683.645Zm2.437-4.188a2.347,2.347,0,0,1,2.367,2.39H468.9a2.319,2.319,0,0,1,2.367-2.39" transform="translate(-62.577 -20.281)"/>
    <path id="path186" d="M504.962,677.732h-3.975v4.5a1.585,1.585,0,0,0,1.68,1.75,4.771,4.771,0,0,0,2.294-.638v2.484a7.768,7.768,0,0,1-3.171.686c-2.271,0-4.235-1.041-4.235-4.094v-4.685H496v-.663l4.567-5.112h.426v3.431h3.975v2.343" transform="translate(-75.198 -18.035)"/>
    <path id="path188" d="M516.929,675.745h.047a4.217,4.217,0,0,1,3.455-1.822,3.823,3.823,0,0,1,4,4.165v6.955H521V678.82c0-1.632-.71-2.389-1.775-2.389-.8,0-1.49.5-2.294,1.657v6.955H513.5V668.907h3.431v6.838" transform="translate(-82.39 -16.782)"/>
    <path id="path190" d="M538.649,683.645h7.832c.165-3.975-2.461-6.222-5.631-6.222a5.5,5.5,0,0,0-5.749,5.7c0,3.406,2.484,5.631,6.316,5.631a7.9,7.9,0,0,0,4.875-1.443v-2.154a6.4,6.4,0,0,1-4.045,1.563C540.092,686.721,538.767,685.586,538.649,683.645Zm2.436-4.188a2.346,2.346,0,0,1,2.367,2.39H538.72a2.318,2.318,0,0,1,2.365-2.39" transform="translate(-91.267 -20.281)"/>
    <path id="path192" d="M582.952,683.5a12.53,12.53,0,0,1-6.341,1.61c-6.269,0-9.393-4.07-9.393-8.235,0-4.306,3.526-8.328,9.7-8.328a11.378,11.378,0,0,1,5.845,1.42v3.6A11.26,11.26,0,0,0,577.2,671.9c-3.431,0-5.845,2.035-5.845,4.9,0,2.886,2.39,4.945,5.751,4.945,2.106,0,3.526-.663,5.844-1.775V683.5" transform="translate(-104.466 -16.633)"/>
    <path id="path194" d="M601.416,675.745h.047a4.217,4.217,0,0,1,3.455-1.822,3.823,3.823,0,0,1,4,4.165v6.955h-3.431V678.82c0-1.632-.71-2.389-1.775-2.389-.8,0-1.49.5-2.294,1.657v6.955h-3.431V668.907h3.431v6.838" transform="translate(-117.109 -16.782)"/>
    <path id="path196" d="M620.63,688.691h3.431V677.783H620.63Z" transform="translate(-126.415 -20.429)"/>
    <path id="path198" d="M624.095,670.437a1.892,1.892,0,1,1-1.892-1.892,1.9,1.9,0,0,1,1.892,1.892" transform="translate(-126.283 -16.633)"/>
    <path id="path200" d="M630.713,685.043h3.431V668.907h-3.431Z" transform="translate(-130.558 -16.782)"/>
    <path id="path202" d="M647.81,668.907v5.7a6.34,6.34,0,0,0-2.839-.686c-3.123,0-5.3,2.318-5.3,5.655,0,3.265,2.177,5.679,5.11,5.679a4.474,4.474,0,0,0,3.029-1.088v.875h3.431V668.907Zm0,13.155a2.877,2.877,0,0,1-2.035.9c-1.608,0-2.626-1.325-2.626-3.312,0-2.177,1.018-3.431,2.744-3.431a3.711,3.711,0,0,1,1.917.639v5.206" transform="translate(-134.239 -16.782)"/>
    <path id="path204" d="M666.871,680.758h.047c1.016-2.271,2.153-3.336,3.477-3.336a3.73,3.73,0,0,1,2.272.993l-.947,3.029a3.947,3.947,0,0,0-2.035-.8c-1.253,0-2.057,1.183-2.814,3.194v4.708H663.44V677.635h3.431v3.124" transform="translate(-144.007 -20.281)"/>
    <path id="path206" d="M683.1,683.645h7.832c.165-3.975-2.461-6.222-5.631-6.222a5.5,5.5,0,0,0-5.749,5.7c0,3.406,2.484,5.631,6.318,5.631a7.9,7.9,0,0,0,4.873-1.443v-2.154a6.4,6.4,0,0,1-4.045,1.563C684.54,686.721,683.215,685.586,683.1,683.645Zm2.437-4.188a2.346,2.346,0,0,1,2.365,2.39h-4.732a2.319,2.319,0,0,1,2.367-2.39" transform="translate(-150.626 -20.281)"/>
    <path id="path208" d="M705.261,679.2a4.394,4.394,0,0,1,3.549-1.773,3.818,3.818,0,0,1,3.975,4.188v6.932h-3.431v-6.649c0-1.537-.733-2.177-1.7-2.177-.853,0-1.492.449-2.39,1.8v7.028H701.83V677.634h3.431V679.2" transform="translate(-159.783 -20.281)"/>
    <path id="path210" d="M356.382,641.374c2.175-2.237,3.141-3.272,2.99-3.885a2.055,2.055,0,0,0-1.243-1.2,3.177,3.177,0,0,0-2.311-.272,7.84,7.84,0,0,0-1.219,1.113l-.686.673h0c-.377-.44-.779-.882-1.177-1.28a21.681,21.681,0,0,0-10.558-5.808,6.649,6.649,0,0,0-5.717-2.618,6.438,6.438,0,0,0-4.584,2.666,24.322,24.322,0,0,0-11.292,6.113v0a5.021,5.021,0,0,0-3.059.349,1.534,1.534,0,0,0-.953.929c-.071.278.015.727,1.056,2.094v0a23.959,23.959,0,0,0-4.6,15.188,21.884,21.884,0,0,0,6.34,14.456,21.572,21.572,0,0,0,4.508,3.455h0a26.681,26.681,0,0,0,24.872.828l.015-.006a1.352,1.352,0,0,0,.651-1.741l-.078-.215c-1.056-2.885-4.272-11.668-1.621-19.3,1.11-3.193,3.9-6.483,6.3-9.05h0a21.283,21.283,0,0,1,2.533,12.482,19.446,19.446,0,0,1-4.617,10.687h0a.455.455,0,0,0-.125.315.767.767,0,0,0,.024.147l.2.577a.461.461,0,0,0,.767.152h.015c6.785-7.486,8.273-18.329,3.586-26.848h0Zm-28.841,16.491a44.059,44.059,0,0,0-1.455,12.926v0a22.025,22.025,0,0,1-4.288-3.331,21.639,21.639,0,0,1-6.237-12.927,20.057,20.057,0,0,1,3.053-13.064h0c.776.929,1.719,2,2.705,3.126a67.3,67.3,0,0,1,6.441,8.032c.745,1.255.383,2.755-.218,5.241Zm23.86-17.732c-5.106,4.474-9.789,6.767-13.906,6.795a16.722,16.722,0,0,1-9.733-3.476,38.256,38.256,0,0,1-5.991-5.465l-.125-.134h0a19.515,19.515,0,0,1,8.992-4.755s0,0,0,0h0s0,0,0,0a9.8,9.8,0,0,0-.477,4.057,9.229,9.229,0,0,0,3.1,6.272,6.188,6.188,0,0,0,9.007-.788,9.219,9.219,0,0,0,1.966-6.715,10.182,10.182,0,0,0-.214-1.371h0a21.787,21.787,0,0,1,6.281,4.394c.373.374.742.77,1.1,1.184h0" fill="#ed1b2d"/>
  </g>
</svg>
