<svg xmlns="http://www.w3.org/2000/svg" width="75" height="25" viewBox="0 0 75 25">
  <g id="footer_ico" transform="translate(0)">
    <rect id="사각형_39" data-name="사각형 39" width="25" height="25" transform="translate(0)" fill="none"/>
    <rect id="사각형_40" data-name="사각형 40" width="25" height="25" transform="translate(25)" fill="none"/>
    <rect id="사각형_41" data-name="사각형 41" width="25" height="25" transform="translate(50)" fill="none"/>
    <g id="인스타" transform="translate(4.261 4.266)" opacity="0.8">
      <g id="그룹_6" data-name="그룹 6" transform="translate(0 0)">
        <path id="SVGID_1_" d="M11.125,9.056a5.924,5.924,0,0,0-2,.383,4.151,4.151,0,0,0-1.45.954,3.952,3.952,0,0,0-.945,1.459,6.163,6.163,0,0,0-.383,2c-.037.879-.047,1.16-.047,3.395s.019,2.516.056,3.395a5.816,5.816,0,0,0,.383,1.992,4.1,4.1,0,0,0,.954,1.459,3.952,3.952,0,0,0,1.459.945,6.163,6.163,0,0,0,2,.383c.879.037,1.16.047,3.395.047s2.516-.009,3.395-.056a5.924,5.924,0,0,0,2-.383,4.1,4.1,0,0,0,1.459-.954,3.952,3.952,0,0,0,.945-1.459,6.164,6.164,0,0,0,.383-2c.037-.879.047-1.16.047-3.395s-.009-2.516-.056-3.395a5.924,5.924,0,0,0-.383-2,4.1,4.1,0,0,0-.954-1.459,3.952,3.952,0,0,0-1.459-.945,6.163,6.163,0,0,0-2-.383C17.036,9.009,16.755,9,14.52,9s-2.516.019-3.395.056m.094,14.878a4.567,4.567,0,0,1-1.524-.281,2.75,2.75,0,0,1-1.562-1.562,4.557,4.557,0,0,1-.29-1.524c-.037-.87-.047-1.132-.056-3.329s0-2.459.037-3.329A4.567,4.567,0,0,1,8.1,12.385a2.75,2.75,0,0,1,1.562-1.562,4.815,4.815,0,0,1,1.524-.29c.87-.037,1.132-.047,3.32-.056s2.459,0,3.329.037a4.567,4.567,0,0,1,1.524.281,2.476,2.476,0,0,1,.945.617,2.549,2.549,0,0,1,.617.945,4.815,4.815,0,0,1,.29,1.524c.037.87.047,1.132.056,3.32s0,2.459-.037,3.329a4.7,4.7,0,0,1-.281,1.534,2.75,2.75,0,0,1-1.562,1.562,4.815,4.815,0,0,1-1.524.29c-.87.037-1.132.047-3.329.056s-2.45,0-3.32-.037m6.714-11.1a.987.987,0,1,0,.982-.991.99.99,0,0,0-.982.991m-7.622,4.4A4.227,4.227,0,1,0,14.529,13a4.223,4.223,0,0,0-4.218,4.236m1.478,0a2.745,2.745,0,1,1,2.749,2.74,2.752,2.752,0,0,1-2.749-2.74" transform="translate(-6.3 -9)" fill="#36322f"/>
      </g>
    </g>
    <g id="페이스북" transform="translate(33.303 4.266)" opacity="0.8">
      <g id="그룹_8" data-name="그룹 8">
        <path id="패스_25" data-name="패스 25" d="M35.794,31.978V24.109H33.2V21.386h2.594V18.448A3.026,3.026,0,0,1,38.689,15.5h2.905v2.466h-1.34c-.665,0-1.544.536-1.544,1.2V21.4h2.616v2.712H38.71v7.869H35.794Z" transform="translate(-33.2 -15.5)" fill="#36322f"/>
      </g>
    </g>
    <path id="패스_27" data-name="패스 27" d="M108.23,92.16h5.733s5.2,8.053,5.361,8.269.174,0,.174,0a14.213,14.213,0,0,1-.5-3.8V92.16h5.711v14.918H119s-5.1-7.624-5.253-7.835-.174,0-.174,0a10.2,10.2,0,0,1,.37,2.988v4.847H108.23V92.16Z" transform="translate(-53.969 -87.119)" fill="#36322f" opacity="0.8"/>
  </g>
</svg>
