<svg width="110" height="48" viewBox="0 0 110 48" fill="none" xmlns="http://www.w3.org/2000/svg">
<path d="M24.1381 48C37.4582 48 48.2763 37.267 48.2763 24.0053C48.2763 10.743 37.4582 0 24.1381 0C10.7975 0 0 10.743 0 24.0053C0 37.267 10.7975 48 24.1381 48Z" fill="#A50034"/>
<path d="M23.167 13.4705V34.5295H29.8951V32.6359H25.1062V13.4705H23.167Z" fill="white"/>
<path d="M16.4303 19.2164C18.0309 19.2164 19.3212 17.9213 19.3212 16.3397C19.3212 14.7569 18.0309 13.4568 16.4303 13.4568C14.8296 13.4568 13.5393 14.7569 13.5393 16.3397C13.5393 17.9225 14.8296 19.2164 16.4303 19.2164Z" fill="white"/>
<path d="M25.1054 3.91761C24.8531 3.90518 24.3735 3.88965 24.1443 3.88965C13.0026 3.88965 3.93506 12.9156 3.93506 23.9953C3.93506 29.3771 6.03661 34.4214 9.84313 38.2147C13.6653 41.9993 18.7371 44.0905 24.1443 44.0905C29.5309 44.0905 34.6014 41.9993 38.4167 38.2147C42.2326 34.4214 44.3441 29.3771 44.3441 23.9953V23.1011H43.5266H29.9137V24.9518H42.4193C42.4193 24.9922 42.4193 25.1885 42.4106 25.2395C41.7748 34.7116 33.8245 42.2137 24.1443 42.2137C19.2442 42.2137 14.6495 40.3177 11.1915 36.8742C7.72222 33.4451 5.81053 28.8768 5.81053 23.9947C5.81053 19.1406 7.72222 14.5487 11.1915 11.109C14.6495 7.6724 19.2442 5.77636 24.1443 5.77636C24.3554 5.77636 24.8687 5.77636 25.1054 5.78879V3.91761Z" fill="white"/>
<path d="M66.4296 8.0801H59.1763V39.3252H81.4546V33.2431H66.4296V8.0801V8.0801ZM97.4107 27.4183H103.318V32.8815C102.229 33.2941 100.105 33.7055 98.084 33.7055C91.5557 33.7055 89.3811 30.4062 89.3811 23.7052C89.3811 17.3148 91.4521 13.547 97.9803 13.547C101.608 13.547 103.68 14.6817 105.388 16.8475L109.898 12.7217C107.151 8.80657 102.331 7.62085 97.8254 7.62085C87.668 7.62085 82.3326 13.1368 82.3326 23.653C82.3326 34.1181 87.1509 39.7888 97.7742 39.7888C102.644 39.7888 107.411 38.5522 110 36.7481V21.591H97.4107V27.4183Z" fill="white"/>
</svg>
