<svg xmlns="http://www.w3.org/2000/svg" xmlns:xlink="http://www.w3.org/1999/xlink" width="167.986" height="37.396" viewBox="0 0 167.986 37.396">
  <defs>
    <radialGradient id="radial-gradient" cx="0.75" cy="0.3" r="1.033" gradientTransform="translate(0.006) scale(0.987 1)" gradientUnits="objectBoundingBox">
      <stop offset="0" stop-color="#009dd9"/>
      <stop offset="0.66" stop-color="#14489f"/>
      <stop offset="1" stop-color="#0083ca"/>
    </radialGradient>
    <radialGradient id="radial-gradient-2" cx="0.77" cy="0.58" r="0.951" gradientTransform="translate(-0.01) scale(1.021 1)" gradientUnits="objectBoundingBox">
      <stop offset="0" stop-color="#c7eafb"/>
      <stop offset="0.63" stop-color="#1dc3ee"/>
      <stop offset="1" stop-color="#9ddcf9"/>
    </radialGradient>
  </defs>
  <g id="logo_w" transform="translate(-7.22 -8.4)">
    <g id="그룹_2" data-name="그룹 2" transform="translate(7.22 8.4)">
      <path id="패스_1" data-name="패스 1" d="M39.117,13.971A18.7,18.7,0,1,1,17.146,10.7l2.584-.189C19.722,10.521,29.593,5.4,39.117,13.971Z" transform="translate(-7.22 -8.528)" fill-rule="evenodd" fill="url(#radial-gradient)"/>
      <path id="패스_2" data-name="패스 2" d="M13.421,30.521A13.146,13.146,0,0,0,24.9,32.569a12.686,12.686,0,0,0,7.775-6.775c1.489-3.458.693-7.917-3.293-9.2-2.442-.788-5.412.339-7.326,1.867-1.583,1.26-3.269,3.167-5.57,2.34-1.8-.646-2.466-2.907-.922-5.6,1.528-2.678,4.805-5.27,10.021-5.633a19.253,19.253,0,0,1,13.581,4.286,18.723,18.723,0,0,0-21.979-3.269A15,15,0,0,0,10.8,17.3c-2.048,4.372-1.6,9.965,2.623,13.219ZM9.647,17.948c-2.529,5.932-.67,13.227,5.184,16.543,5.333,3.025,12.738,2.655,17.386-1.851,1.5-1.45,2.639-3.64,4.475-4.585a2.852,2.852,0,0,1,2.828.016c1.473.985,1.52,2.781.985,4.467A11.832,11.832,0,0,1,37.574,37.1a17.338,17.338,0,0,1-7.964,4.742,18.78,18.78,0,0,1-15.9-2.86A16.036,16.036,0,0,1,8.418,20.587,18.7,18.7,0,0,1,9.647,17.948Z" transform="translate(-7.26 -8.4)" fill-rule="evenodd" fill="url(#radial-gradient-2)"/>
    </g>
    <path id="패스_3" data-name="패스 3" d="M178.578,17.815V16.5l-9.264.008q0,3.474.008,6.94a1.617,1.617,0,0,0,.528,1.268,2.119,2.119,0,0,0,1.45.457l8.02-.008V23.833l-7.185.008-.008-6.027Zm-78.408,10.5a1.179,1.179,0,0,0-1.213-1.134H95.034V24.046l7.437-.008V22.722H99.288a3.16,3.16,0,0,0,.425-.677,5.473,5.473,0,0,0,.26-.748,7.464,7.464,0,0,0,.189-.78,4.98,4.98,0,0,0,.063-.756V17.176a1.179,1.179,0,0,0-1.213-1.134q-5.967,0-11.927.008v1.316l10.3-.008v2.474a12.151,12.151,0,0,1-.095,1.5,5.508,5.508,0,0,1-.354,1.386l-12.006.024v1.316l7.287-.008v3.135h-5.2V28.5l10.3-.008v4.766h2.86V28.316Zm73-.835h-1.607V31.42a1.614,1.614,0,0,0,.559,1.308,2.219,2.219,0,0,0,1.465.457l10.99-.008V31.861l-10.194.008V28.615a1.189,1.189,0,0,0-1.213-1.134Zm9.768-11.588a1.179,1.179,0,0,1,1.213,1.134v2.6h3.159v1.316h-3.159l.008,7.634h-2.82q0-6.346-.008-12.683Zm-23.555.024h-1.5q.012,8.638.016,17.284h2.647l-.008-11.186h1.938l.008,11.186h2.647q0-8.106-.016-16.213a1.108,1.108,0,0,0-1.142-1.064h-1.5v4.782h-1.938V16.987a1.1,1.1,0,0,0-1.142-1.071Zm-18.41.008h-1.615c0,3.112.008,6.231.008,9.343H142.2V22.659h3.159V21.344H142.2v-1.52h3.159V18.508H142.2v-1.45a1.2,1.2,0,0,0-1.229-1.134Zm-23.326.024h-1.5q.012,8.638.016,17.284H118.8l-.008-10.186h1.615l.008,10.186h2.647q0-8.106-.016-16.213a1.106,1.106,0,0,0-1.134-1.064h-1.5c0,1.93,0,3.852.008,5.782H118.8V17.027a1.14,1.14,0,0,0-1.158-1.079ZM69.077,27.9H67.47v3.6a1.582,1.582,0,0,0,.551,1.3,2.175,2.175,0,0,0,1.45.457l10.745-.008V31.932l-9.926.016V29.033A1.184,1.184,0,0,0,69.077,27.9Zm9.532-11.927a1.179,1.179,0,0,1,1.213,1.134V20.02h3.159v1.331H79.822l.008,7.318H77.01q0-6.357-.008-12.707l1.607.008Zm69.506,1.111v1.576h3.1a13.9,13.9,0,0,1-.544,4.144,13.227,13.227,0,0,1-.89,2.269,9.915,9.915,0,0,1-1.127,1.757,11.117,11.117,0,0,1-1.213,1.268l1.639,1.591a5.264,5.264,0,0,0,1.1-.961,13.785,13.785,0,0,0,1.008-1.292,11.336,11.336,0,0,0,.827-1.426,12.564,12.564,0,0,0,.567-1.347,12.91,12.91,0,0,0,1.639,2.025c.63.654,1.363,1.347,2.2,2.1l1.008-1.331c-.473-.425-.906-.819-1.292-1.19s-.741-.748-1.079-1.134a11.25,11.25,0,0,1-.922-1.221,14.3,14.3,0,0,1-.843-1.5,12.08,12.08,0,0,0,.3-1.709c.071-.646.126-1.323.173-2.009h2.86V17.082Zm-11.053,8.776a6.089,6.089,0,0,0-1.954.3,5,5,0,0,0-1.591.882,4.189,4.189,0,0,0-1.119,1.308,3.24,3.24,0,0,0-.362,1.528A3.336,3.336,0,0,0,132.4,31.4a4.225,4.225,0,0,0,1.119,1.284,5.105,5.105,0,0,0,1.591.89,6.667,6.667,0,0,0,3.9,0,4.989,4.989,0,0,0,1.6-.89,4.27,4.27,0,0,0,1.1-1.284,3.278,3.278,0,0,0,0-3.057,4.351,4.351,0,0,0-1.111-1.3,5.037,5.037,0,0,0-1.6-.882,5.683,5.683,0,0,0-1.938-.307Zm0,1.308a1.72,1.72,0,0,1,.922.252,2.517,2.517,0,0,1,.709.646,3.257,3.257,0,0,1,.441.874,2.823,2.823,0,0,1,.008,1.883,2.925,2.925,0,0,1-.465.843,2.3,2.3,0,0,1-.7.614,1.816,1.816,0,0,1-.914.236,1.855,1.855,0,0,1-.922-.221,2.338,2.338,0,0,1-.709-.6,3,3,0,0,1-.441-.851,2.913,2.913,0,0,1-.165-.969,3.037,3.037,0,0,1,.15-.945,3.108,3.108,0,0,1,.425-.874,2.478,2.478,0,0,1,.709-.638,1.832,1.832,0,0,1,.953-.252Zm-10.477-6.554a3.737,3.737,0,0,1,.378-1.67,4.12,4.12,0,0,1,1.15-1.386,5.517,5.517,0,0,1,1.678-.961,6.031,6.031,0,0,1,2.025-.323,5.961,5.961,0,0,1,1.985.315,5.439,5.439,0,0,1,1.686.953,4.039,4.039,0,0,1,1.127,1.386,3.877,3.877,0,0,1,0,3.34,4.23,4.23,0,0,1-1.127,1.386,5.462,5.462,0,0,1-1.686.961,6,6,0,0,1-1.985.323,6.067,6.067,0,0,1-2.025-.315,5.76,5.76,0,0,1-1.678-.953,4.2,4.2,0,0,1-1.15-1.386,3.737,3.737,0,0,1-.378-1.67Zm7.594-.024a3.4,3.4,0,0,0-.173-1.079,3.954,3.954,0,0,0-.473-.969,2.2,2.2,0,0,0-.756-.693,1.937,1.937,0,0,0-.985-.26,2,2,0,0,0-1.024.26,2.481,2.481,0,0,0-.741.693,2.879,2.879,0,0,0-.449.953,3.975,3.975,0,0,0-.15,1.087,4.216,4.216,0,0,0,.15,1.127,3.043,3.043,0,0,0,.449.953,2.48,2.48,0,0,0,.741.693,1.979,1.979,0,0,0,1.024.26,1.917,1.917,0,0,0,.985-.26,2.333,2.333,0,0,0,.748-.693A3.7,3.7,0,0,0,134,21.69a3.272,3.272,0,0,0,.181-1.1Zm-25.705-3.041h3.915V16.326h-3.915v1.221Zm1.954,3.466a1.406,1.406,0,0,1,.811.244,2.124,2.124,0,0,1,.591.622,3.413,3.413,0,0,1,.378.819,2.976,2.976,0,0,1,.142.874,3.237,3.237,0,0,1-.126.89,3,3,0,0,1-.386.835,2.069,2.069,0,0,1-.591.607,1.416,1.416,0,0,1-.8.236,1.5,1.5,0,0,1-.851-.236,2.144,2.144,0,0,1-.614-.607,2.682,2.682,0,0,1-.354-.827,3.516,3.516,0,0,1-.118-.9,3.237,3.237,0,0,1,.126-.89,2.8,2.8,0,0,1,.386-.819,2.248,2.248,0,0,1,.614-.607,1.323,1.323,0,0,1,.8-.244Zm-4.467-2.19V20.1h2.8a6.573,6.573,0,0,0-2.088,1.6,2.962,2.962,0,0,0-.685,1.875,3.381,3.381,0,0,0,.323,1.465,3.8,3.8,0,0,0,.993,1.237,4.448,4.448,0,0,0,1.41.843,5.063,5.063,0,0,0,1.733.284,4.816,4.816,0,0,0,1.717-.284,4.394,4.394,0,0,0,1.379-.843,4.769,4.769,0,0,0,1-1.229,3.019,3.019,0,0,0,.354-1.473,2.921,2.921,0,0,0-.7-1.875,6.611,6.611,0,0,0-2.08-1.591h2.773V18.831l-8.926-.008ZM67.2,17.011h4.876V15.79H67.2v1.221Zm-2.962.89v1.292h2.773a6,6,0,0,0-1.568,1.56,3,3,0,0,0-.512,1.654,3.336,3.336,0,0,0,.331,1.473,3.561,3.561,0,0,0,1.04,1.245,5.087,5.087,0,0,0,1.536.851,5.3,5.3,0,0,0,1.8.291,5.5,5.5,0,0,0,1.8-.284,4.816,4.816,0,0,0,1.536-.867A3.976,3.976,0,0,0,74,23.873a3.139,3.139,0,0,0,.339-1.473,3,3,0,0,0-.536-1.67,6.2,6.2,0,0,0-1.568-1.536h2.812V17.9Zm5.4,1.851a1.513,1.513,0,0,1,.851.244,2.454,2.454,0,0,1,.654.622,3.222,3.222,0,0,1,.41.843,2.989,2.989,0,0,1,.15.937,3.223,3.223,0,0,1-.142.937,3.147,3.147,0,0,1-.418.867,2.212,2.212,0,0,1-.646.622,1.558,1.558,0,0,1-.859.244,1.511,1.511,0,0,1-.867-.244,2.4,2.4,0,0,1-.654-.638,3.3,3.3,0,0,1-.4-.859,3.207,3.207,0,0,1,.394-2.686A2.512,2.512,0,0,1,68.762,20,1.5,1.5,0,0,1,69.636,19.753Z" transform="translate(-12.101 -1.568)" fill="#fff"/>
    <g id="그룹_3" data-name="그룹 3" transform="translate(53.943 35.381)">
      <path id="패스_4" data-name="패스 4" d="M66.538,42.76h1.016v2.127l1.82-2.127h1.245l-2.08,2.332,2.166,2.615H69.382l-1.82-2.3h-.016v2.3H66.53V42.76Z" transform="translate(-66.53 -42.673)" fill="#fff"/>
      <path id="패스_5" data-name="패스 5" d="M76.064,42.65a2.562,2.562,0,0,1,0,5.121,2.329,2.329,0,0,1-2.474-2.576A2.312,2.312,0,0,1,76.064,42.65Zm0,4.341c1.032,0,1.418-.9,1.418-1.8,0-.874-.41-1.765-1.418-1.765s-1.418.89-1.418,1.765C74.646,46.085,75.032,46.991,76.064,46.991Z" transform="translate(-68.028 -42.65)" fill="#fff"/>
      <path id="패스_6" data-name="패스 6" d="M82.17,42.76h1.1c1.087,0,2.379-.032,2.379,1.339a1.145,1.145,0,0,1-1.04,1.15v.016c.276.024.433.291.536.512l.811,1.938H84.825l-.607-1.544c-.142-.37-.276-.512-.7-.512h-.323v2.056H82.178V42.76Zm1.016,2.111h.331c.5,0,1.071-.071,1.071-.685,0-.6-.567-.646-1.071-.646h-.331Z" transform="translate(-69.849 -42.673)" fill="#fff"/>
      <path id="패스_7" data-name="패스 7" d="M89.13,42.76h2.978v.78H90.138v1.221h1.8v.78h-1.8v1.386h1.985v.78H89.13Z" transform="translate(-71.326 -42.673)" fill="#fff"/>
      <path id="패스_8" data-name="패스 8" d="M96.782,42.76h1.142l1.985,4.947H98.79l-.433-1.134H96.309l-.441,1.134H94.82Zm.559.993h-.016l-.733,2.04h1.473Z" transform="translate(-72.534 -42.673)" fill="#fff"/>
      <path id="패스_9" data-name="패스 9" d="M109.294,42.65a2.562,2.562,0,0,1,0,5.121,2.329,2.329,0,0,1-2.474-2.576A2.312,2.312,0,0,1,109.294,42.65Zm0,4.341c1.032,0,1.418-.9,1.418-1.8,0-.874-.41-1.765-1.418-1.765s-1.418.89-1.418,1.765C107.876,46.085,108.262,46.991,109.294,46.991Z" transform="translate(-75.08 -42.65)" fill="#fff"/>
      <path id="패스_10" data-name="패스 10" d="M119.123,47.613a5.122,5.122,0,0,1-1.15.158c-1.639,0-2.773-.8-2.773-2.474a2.484,2.484,0,0,1,2.773-2.647,3.4,3.4,0,0,1,1.142.2l-.071.835a2.129,2.129,0,0,0-1.1-.26,1.67,1.67,0,0,0-1.694,1.8,1.645,1.645,0,0,0,1.717,1.765,2.9,2.9,0,0,0,1.1-.2Z" transform="translate(-76.859 -42.65)" fill="#fff"/>
      <path id="패스_11" data-name="패스 11" d="M122.36,42.76h2.978v.78h-1.969v1.221h1.8v.78h-1.8v1.386h1.985v.78H122.36V42.76Z" transform="translate(-78.378 -42.673)" fill="#fff"/>
      <path id="패스_12" data-name="패스 12" d="M130.012,42.76h1.142l1.985,4.947H132.02l-.433-1.134h-2.048l-.441,1.134H128.05Zm.559.993h-.016l-.733,2.04H131.3Z" transform="translate(-79.586 -42.673)" fill="#fff"/>
      <path id="패스_13" data-name="패스 13" d="M136.51,42.76h1.245l1.922,3.7h.016v-3.7h.969v4.947h-1.237l-1.93-3.7h-.016v3.7h-.969Z" transform="translate(-81.381 -42.673)" fill="#fff"/>
      <path id="패스_14" data-name="패스 14" d="M148.228,42.76h2.8v.78h-1.8v1.221h1.709v.78h-1.709v2.166H148.22V42.76Z" transform="translate(-83.866 -42.673)" fill="#fff"/>
      <path id="패스_15" data-name="패스 15" d="M156.224,42.65a2.562,2.562,0,0,1,0,5.121,2.329,2.329,0,0,1-2.474-2.576A2.312,2.312,0,0,1,156.224,42.65Zm0,4.341c1.032,0,1.418-.9,1.418-1.8,0-.874-.41-1.765-1.418-1.765s-1.418.89-1.418,1.765C154.806,46.085,155.192,46.991,156.224,46.991Z" transform="translate(-85.04 -42.65)" fill="#fff"/>
      <path id="패스_16" data-name="패스 16" d="M162.4,42.76h1.016v2.86c0,.843.276,1.394,1.048,1.394s1.048-.551,1.048-1.394V42.76h1.016v3.167c0,1.323-.764,1.875-2.064,1.875s-2.064-.544-2.064-1.875Z" transform="translate(-86.876 -42.673)" fill="#fff"/>
      <path id="패스_17" data-name="패스 17" d="M170.25,42.76h1.245l1.922,3.7h.016v-3.7h.969v4.947h-1.237l-1.93-3.7h-.016v3.7h-.969Z" transform="translate(-88.542 -42.673)" fill="#fff"/>
      <path id="패스_18" data-name="패스 18" d="M178.18,42.76h1.379c1.544,0,2.915.512,2.915,2.474s-1.371,2.474-2.915,2.474H178.18Zm1.008,4.167h.567a1.694,1.694,0,0,0,0-3.387h-.567Z" transform="translate(-90.224 -42.673)" fill="#fff"/>
      <path id="패스_19" data-name="패스 19" d="M187.352,42.76h1.142l1.985,4.947H189.36l-.433-1.134h-2.048l-.441,1.134H185.39Zm.559.993H187.9l-.733,2.04h1.473Z" transform="translate(-91.755 -42.673)" fill="#fff"/>
      <path id="패스_20" data-name="패스 20" d="M193.949,43.54H192.5v-.78h3.907v.78h-1.45v4.167h-1.016V43.54Z" transform="translate(-93.263 -42.673)" fill="#fff"/>
      <path id="패스_21" data-name="패스 21" d="M199.41,42.76h1.016v4.947H199.41Z" transform="translate(-94.73 -42.673)" fill="#fff"/>
      <path id="패스_22" data-name="패스 22" d="M205.474,42.65a2.562,2.562,0,0,1,0,5.121A2.329,2.329,0,0,1,203,45.195,2.312,2.312,0,0,1,205.474,42.65Zm0,4.341c1.032,0,1.418-.9,1.418-1.8,0-.874-.41-1.765-1.418-1.765s-1.418.89-1.418,1.765C204.056,46.085,204.442,46.991,205.474,46.991Z" transform="translate(-95.492 -42.65)" fill="#fff"/>
      <path id="패스_23" data-name="패스 23" d="M211.63,42.76h1.245l1.922,3.7h.016v-3.7h.969v4.947h-1.237l-1.93-3.7H212.6v3.7h-.969Z" transform="translate(-97.323 -42.673)" fill="#fff"/>
    </g>
  </g>
</svg>
