<svg xmlns="http://www.w3.org/2000/svg" width="24.564" height="24.55" viewBox="0 0 24.564 24.55">
  <g id="sns_ins" transform="translate(0)">
    <g id="그룹_23" data-name="그룹 23" transform="translate(0 0)">
      <path id="SVGID_1_" d="M13.494,9.084a8.832,8.832,0,0,0-2.983.572,6.189,6.189,0,0,0-2.161,1.422,5.892,5.892,0,0,0-1.408,2.175,9.188,9.188,0,0,0-.572,2.983c-.056,1.31-.07,1.729-.07,5.061s.028,3.75.084,5.061a8.669,8.669,0,0,0,.572,2.969A6.115,6.115,0,0,0,8.377,31.5a5.892,5.892,0,0,0,2.175,1.408,9.189,9.189,0,0,0,2.983.572c1.31.056,1.729.07,5.061.07s3.75-.014,5.061-.084A8.831,8.831,0,0,0,26.64,32.9a6.115,6.115,0,0,0,2.175-1.422A5.892,5.892,0,0,0,30.223,29.3a9.188,9.188,0,0,0,.572-2.983c.056-1.31.07-1.729.07-5.061s-.014-3.75-.084-5.061a8.831,8.831,0,0,0-.572-2.983,6.115,6.115,0,0,0-1.422-2.175,5.892,5.892,0,0,0-2.175-1.408,9.189,9.189,0,0,0-2.983-.572C22.3,9.014,21.886,9,18.554,9s-3.75.028-5.061.084m.139,22.18a6.808,6.808,0,0,1-2.272-.418,4.1,4.1,0,0,1-2.328-2.328A6.793,6.793,0,0,1,8.6,26.245c-.056-1.3-.07-1.687-.084-4.963s0-3.667.056-4.963a6.808,6.808,0,0,1,.418-2.272,4.1,4.1,0,0,1,2.328-2.328,7.178,7.178,0,0,1,2.272-.432c1.3-.056,1.687-.07,4.949-.084s3.667,0,4.963.056a6.808,6.808,0,0,1,2.272.418,3.69,3.69,0,0,1,1.408.92A3.8,3.8,0,0,1,28.1,14a7.178,7.178,0,0,1,.432,2.272c.056,1.3.07,1.687.084,4.949s0,3.667-.056,4.963a7,7,0,0,1-.418,2.286A4.1,4.1,0,0,1,25.818,30.8a7.178,7.178,0,0,1-2.272.432c-1.3.056-1.687.07-4.963.084s-3.653,0-4.949-.056m10.01-16.548a1.471,1.471,0,1,0,1.464-1.478,1.476,1.476,0,0,0-1.464,1.478M12.281,21.282a6.3,6.3,0,1,0,6.288-6.315,6.295,6.295,0,0,0-6.288,6.315m2.2,0a4.092,4.092,0,1,1,4.1,4.085,4.1,4.1,0,0,1-4.1-4.085" transform="translate(-6.3 -9)" fill="rgba(255,255,255,0.8)"/>
    </g>
  </g>
</svg>
