<svg xmlns="http://www.w3.org/2000/svg" width="24.624" height="17.237" viewBox="0 0 24.624 17.237">
  <path id="sns_ytb" d="M155.72,235.942a3.085,3.085,0,0,0-2.177-2.177c-1.921-.515-9.621-.515-9.621-.515s-7.7,0-9.621.515a3.086,3.086,0,0,0-2.178,2.177,34.432,34.432,0,0,0,0,11.855,3.082,3.082,0,0,0,2.178,2.177c1.921.514,9.621.514,9.621.514s7.7,0,9.621-.514a3.085,3.085,0,0,0,2.177-2.177,34.433,34.433,0,0,0,0-11.855Zm-14.261,9.621v-7.388l6.4,3.695Z" transform="translate(-131.61 -233.25)" fill="rgba(255,255,255,0.8)"/>
</svg>
