<svg xmlns="http://www.w3.org/2000/svg" width="25.201" height="21.199" viewBox="0 0 25.201 21.199">
  <g id="sns_blog" transform="translate(0)">
    <path id="패스_68" data-name="패스 68" d="M143.25,288.29H126.01a3.987,3.987,0,0,0-3.98,3.994v9.476a3.987,3.987,0,0,0,3.98,3.994h5.939l2.027,3.3a.884.884,0,0,0,.066.094.679.679,0,0,0,1.176,0,.488.488,0,0,0,.068-.1l2.027-3.3h5.939a3.987,3.987,0,0,0,3.98-3.994v-9.476A3.987,3.987,0,0,0,143.25,288.29Z" transform="translate(-122.03 -288.29)" fill="rgba(255,255,255,0.8)"/>
    <g id="그룹_22" data-name="그룹 22" transform="translate(2.741 4.96)">
      <g id="그룹_20" data-name="그룹 20" transform="translate(0 0)">
        <path id="패스_63" data-name="패스 63" d="M148.205,333.548a2.05,2.05,0,0,0-1.312.608V331.71H145.35v6.428h1.559v-.5a1.48,1.48,0,0,0,1.3.664,2.274,2.274,0,0,0,2.175-2.4S150.3,333.548,148.205,333.548Zm-.34,3.392a.992.992,0,1,1,.991-.992A.992.992,0,0,1,147.866,336.941Z" transform="translate(-145.35 -331.565)" fill="#1c1c1c"/>
        <path id="패스_64" data-name="패스 64" d="M192.35,330.48v1.487s.7-.032.7,1.279v3.805h1.487v-4.157S194.6,330.48,192.35,330.48Z" transform="translate(-186.825 -330.48)" fill="#1c1c1c"/>
        <path id="패스_65" data-name="패스 65" d="M222.788,347.52s-2.55,0-2.55,2.38a2.3,2.3,0,0,0,2.55,2.349s2.608,0,2.608-2.349A2.346,2.346,0,0,0,222.788,347.52Zm0,3.372a.992.992,0,1,1,.991-.992A.992.992,0,0,1,222.788,350.892Z" transform="translate(-211.434 -345.517)" fill="#1c1c1c"/>
        <path id="패스_66" data-name="패스 66" d="M274.227,347.673v.431a1.685,1.685,0,0,0-1.294-.588,2.128,2.128,0,0,0-2.183,2.364s-.025,2.289,2.123,2.289a1.765,1.765,0,0,0,1.354-.588v.36s.108,1.127-.983,1.127h-.371v1.367h.6a2.24,2.24,0,0,0,2.255-2.41v-4.353Zm-.923,3.216a.992.992,0,1,1,.991-.992A.991.991,0,0,1,273.3,350.889Z" transform="translate(-256.009 -345.514)" fill="#1c1c1c"/>
      </g>
    </g>
  </g>
</svg>
