<svg xmlns="http://www.w3.org/2000/svg" width="134.691" height="178.032" viewBox="0 0 134.691 178.032">
  <g id="wordcircle" transform="translate(-674.562 -225.237)">
    <g id="그룹_1" data-name="그룹 1">
      <path id="패스_1" data-name="패스 1" d="M700.441,231.887a8.926,8.926,0,0,0,6.413,6.518l-.662,1.506a9.742,9.742,0,0,1-5.769-4.511,9.971,9.971,0,0,1-3.184,6.9l-1.273-1.084a9.424,9.424,0,0,0,2.9-8.971l-.715-3.141,1.579-.36Zm7.049-6.513,4,17.532-1.6.365-4-17.532Z" fill="#fff"/>
      <path id="패스_2" data-name="패스 2" d="M728.24,234.8l-8.355-.639.637-8.316,8.356.64Zm5.455,6.556-.1,1.317-12.044-.924.431-5.643,1.635.125-.331,4.328Zm-6.513-13.677-5.165-.4-.435,5.683,5.164.4ZM733.4,238.2l-1.635-.125.984-12.842,1.635.125Z" fill="#fff"/>
      <path id="패스_3" data-name="패스 3" d="M741.8,239.686a80.79,80.79,0,0,0,11.084,3.73l-.32,1.186a65.874,65.874,0,0,1-11.087-3.56Zm12.384-2.747c-.921,2.324-3.415,3.185-6.018,2.153-2.583-1.026-3.827-3.368-2.9-5.692.928-2.342,3.432-3.177,6.016-2.152C753.882,232.28,755.114,234.6,754.185,236.939Zm-7.436-2.949a3.225,3.225,0,1,0,4.015-1.441A2.92,2.92,0,0,0,746.749,233.99Zm13.2-.725-6.629,16.712-1.524-.605,6.629-16.711Z" fill="#fff"/>
      <path id="패스_4" data-name="패스 4" d="M780.022,267.773c-1.449,1.379-3.819.513-6.4-2.2s-3.324-5.121-1.875-6.5c1.464-1.392,3.834-.526,6.412,2.185S781.486,266.381,780.022,267.773Zm-1.129-1.189c.869-.827.231-2.484-1.644-4.456s-3.513-2.7-4.383-1.878c-.854.813-.217,2.471,1.673,4.457C776.414,266.679,778.037,267.4,778.893,266.584Zm-3.186-9.56c-1.559-1.638-1.778-3.61-.416-4.907,1.334-1.267,3.308-.964,4.866.674s1.749,3.61.415,4.878C779.21,258.965,777.265,258.662,775.707,257.024Zm.884-.841c.965,1.015,2.163,1.2,2.974.428s.673-1.965-.293-2.979c-.978-1.029-2.163-1.2-2.959-.443C775.5,253.962,775.612,255.154,776.591,256.183Zm7.377-.749-6.287-6.61.942-.9,2.592,2.725,1.449-1.379,1.117,1.174-1.449,1.379,2.564,2.7Zm-3.7,6.642-1.077-1.13L786.7,253.8l1.075,1.13-3.29,3.13,1.573,1.652,3.537-3.363,1.089,1.144-8.234,7.832-1.09-1.145,3.726-3.544-1.571-1.652Z" fill="#fff"/>
      <path id="패스_5" data-name="패스 5" d="M787.329,274.18l5.5,11.14L787.8,287.8l-.725-1.471,3.838-1.894-4.77-9.67Zm9.146,11.571-1.2.593-7.188-14.567,1.2-.592,3.24,6.565,1.919-.947-2.283-4.628,6.01-2.966.717,1.453-1.83.9,3.86,7.823,1.829-.9.718,1.454-6.011,2.965-2.283-4.629-1.92.948Zm-2.43-12.7,3.859,7.822,1.867-.921-3.86-7.821Z" fill="#fff"/>
      <path id="패스_6" data-name="패스 6" d="M792.357,298.042l1.769,10.939-1.264.205-2.023-12.519,4.246-.687,1.679,10.387,1.579-.256-1.689-10.445,1.225-.2,1.946,12.045-3.988.645-1.682-10.407Zm10.624,11.068-1.3.21-2.592-16.033,1.3-.211Zm1.964-14.926c1.994-.323,3.457,1.832,4.086,5.722s-.081,6.395-2.075,6.718-3.437-1.836-4.065-5.726S802.951,294.507,804.945,294.184Zm.268,1.659c-1.185.191-1.588,1.958-1.118,4.861s1.408,4.453,2.593,4.261,1.587-1.958,1.119-4.861S806.4,295.651,805.213,295.843Z" fill="#fff"/>
      <path id="패스_7" data-name="패스 7" d="M805.285,344.678l-17.258-4.884.447-1.578,17.257,4.885Zm-9.146-5.5a45.064,45.064,0,0,1,.822-5.108l-6.214-1.759.446-1.578,6.119,1.732c.408-1.734.851-3.374,1.254-4.8l1.387.164a82.62,82.62,0,0,0-2.6,11.545Zm8.452-8.643c2.116.6,3.042,2.836,2.312,5.414-.724,2.559-2.684,3.978-4.8,3.379-2.1-.593-3.022-2.83-2.3-5.389C800.533,331.363,802.493,329.944,804.591,330.537Zm-.431,1.521c-1.347-.382-2.588.555-3.067,2.249-.474,1.673.093,3.122,1.439,3.5s2.589-.556,3.063-2.23C806.074,333.888,805.508,332.439,804.16,332.058Z" fill="#fff"/>
      <path id="패스_8" data-name="패스 8" d="M784.481,350.8l-5.613,8.658-1.124-.728,6.505-10.036,4.313,2.8-.892,1.376Zm2.013,15.794-1.158-.751,1.435-2.215-5.168-3.35.891-1.376,11.295,7.321L792.9,367.6l-4.967-3.22Zm1.688-12.275c1.382-2.131,3.436-2.874,5.131-1.775,1.677,1.087,1.839,3.266.458,5.4s-3.447,2.891-5.125,1.8C786.951,358.645,786.8,356.449,788.182,354.319Zm1.074.7c-.881,1.359-.818,2.734.239,3.42,1.04.673,2.32.169,3.2-1.19s.808-2.718-.232-3.392C791.407,353.167,790.138,353.655,789.256,355.015Zm2.471,7.917,5.754-8.877,1.108.717-2.425,3.743,1.845,1.2-.892,1.377-1.846-1.2-2.436,3.759Z" fill="#fff"/>
      <path id="패스_9" data-name="패스 9" d="M753.953,379.884l-.712-1.135,10.146-6.372,2.84,4.523-1.406.883-2.128-3.388Zm7.51,7.9,2.926,4.658-1.407.883-7.116-11.332,1.4-.883,3.469,5.522,3.066-1.925.723,1.151Zm-.039-6.3a7.365,7.365,0,0,1,5.879.937,7.27,7.27,0,0,1,1.522-5.963l1.376.648a6.147,6.147,0,0,0-.762,7.138l.3.474,3.37-2.116.7,1.117-3.372,2.117,1.224,1.948-1.39.872-1.222-1.947-3.354,2.106-.7-1.118,3.355-2.106-.3-.475c-1.266-2.015-3.913-2.809-6.613-2.106Z" fill="#fff"/>
      <path id="패스_10" data-name="패스 10" d="M743.517,383.926l-10.011,2.52-.327-1.3,11.6-2.92,1.387,5.509-1.591.4Zm-9.173,13.388-.332-1.319,2.56-.645-1.558-6.189,1.591-.4,3.224,12.8-1.591.4-1.334-5.3Zm10.061-7.319a4.429,4.429,0,1,1-3.461,5.43A4.4,4.4,0,0,1,744.405,389.995Zm.347,1.377a3,3,0,1,0,3.721,2.158A2.943,2.943,0,0,0,744.752,391.372Z" fill="#fff"/>
      <path id="패스_11" data-name="패스 11" d="M710.978,403.2l.71-17.961,1.638.065-.71,17.961Zm14.985-12.073a80.5,80.5,0,0,0-11.692.157l-.092-1.225a66,66,0,0,1,11.639-.319Zm-10.771,6.7c.1-2.5,2.165-4.137,4.962-4.026,2.778.11,4.727,1.908,4.628,4.406-.1,2.517-2.184,4.136-4.962,4.025C717.023,402.122,715.092,400.345,715.192,397.828Zm7.992.317a3.225,3.225,0,1,0-3.308,2.69A2.919,2.919,0,0,0,723.184,398.145Z" fill="#fff"/>
      <path id="패스_12" data-name="패스 12" d="M675.146,387.914l12.847,6.585-.584,1.139-5.748-2.947-.82,1.6-1.46-.748.821-1.6-5.64-2.89Zm2.382-6.71.593-1.157,14.432,7.4-.593,1.158Zm4.334,9.343c-3.292-1.687-4.75-3.445-3.974-4.958s3.053-1.356,6.345.332,4.732,3.436,3.957,4.949S685.154,392.235,681.862,390.547Zm.53-1.031c2.312,1.185,3.839,1.406,4.268.57.419-.819-.651-1.93-2.965-3.115s-3.84-1.407-4.259-.588C679.006,387.219,680.078,388.329,682.392,389.516Zm-.7-12.09c.831-1.618,3.26-1.451,6.731.327s5.025,3.654,4.2,5.273c-.812,1.584-3.252,1.435-6.721-.344S680.877,379.011,681.689,377.426Zm1.495.766c-.456.89.721,2.1,3.265,3.4s4.215,1.552,4.67.664c.466-.907-.711-2.118-3.256-3.422S683.648,377.285,683.184,378.192Z" fill="#fff"/>
    </g>
  </g>
</svg>
